<?xml version="1.0" standalone="no"?>
 <!DOCTYPE svg PUBLIC "-//W3C//DTD SVG 1.1//EN" 
 "http://www.w3.org/Graphics/SVG/1.1/DTD/svg11.dtd"> 
<svg
  xmlns:svg="http://www.w3.org/2000/svg"
  xmlns="http://www.w3.org/2000/svg"
  xmlns:xlink="http://www.w3.org/1999/xlink"
  version="1.1"
  width="297.0022mm" height="210.0072mm" viewBox="0.0000 0.0000 297.0022 210.0072">
<title>SVG Image created as macropad-F_Silkscreen.svg date 2026/02/28 09:15:04 </title>
  <desc>Image generated by PCBNEW </desc>
<g style="fill:#000000; fill-opacity:1.0000;stroke:#000000; stroke-opacity:1.0000;
stroke-linecap:round; stroke-linejoin:round;"
 transform="translate(0 0) scale(1 1)">
</g>
<g style="fill:none; 
stroke:#000000; stroke-width:0.1500; stroke-opacity:1; 
stroke-linecap:round; stroke-linejoin:round;">
<path d="M177.0022 166.0072
L285.0022 166.0072
L285.0022 198.0072
L177.0022 198.0072
L177.0022 166.0072
" />
</g>
<g style="fill:none; 
stroke:#000000; stroke-width:0.1500; stroke-opacity:1; 
stroke-linecap:round; stroke-linejoin:round;">
<path d="M10.0000 10.0000
L287.0022 10.0000
L287.0022 200.0072
L10.0000 200.0072
L10.0000 10.0000
" />
</g>
<g style="fill:none; 
stroke:#000000; stroke-width:0.1500; stroke-opacity:1; 
stroke-linecap:round; stroke-linejoin:round;">
<path d="M12.0000 12.0000
L285.0022 12.0000
L285.0022 198.0072
L12.0000 198.0072
L12.0000 12.0000
" />
</g>
<g style="fill:none; 
stroke:#000000; stroke-width:0.1500; stroke-opacity:1; 
stroke-linecap:round; stroke-linejoin:round;">
<path d="M60.0000 12.0000
L60.0000 10.0000
" />
</g>
<g style="fill:none; 
stroke:#000000; stroke-width:0.1500; stroke-opacity:1; 
stroke-linecap:round; stroke-linejoin:round;">
<path d="M110.0000 12.0000
L110.0000 10.0000
" />
</g>
<g style="fill:none; 
stroke:#000000; stroke-width:0.1500; stroke-opacity:1; 
stroke-linecap:round; stroke-linejoin:round;">
<path d="M160.0000 12.0000
L160.0000 10.0000
" />
</g>
<g style="fill:none; 
stroke:#000000; stroke-width:0.1500; stroke-opacity:1; 
stroke-linecap:round; stroke-linejoin:round;">
<path d="M210.0000 12.0000
L210.0000 10.0000
" />
</g>
<g style="fill:none; 
stroke:#000000; stroke-width:0.1500; stroke-opacity:1; 
stroke-linecap:round; stroke-linejoin:round;">
<path d="M260.0000 12.0000
L260.0000 10.0000
" />
</g>
<g style="fill:none; 
stroke:#000000; stroke-width:0.1500; stroke-opacity:1; 
stroke-linecap:round; stroke-linejoin:round;">
<text x="35.0000" y="11.6500"
textLength="1.4281" font-size="1.7333" lengthAdjust="spacingAndGlyphs"
text-anchor="start" opacity="0" stroke-opacity="0">1</text>
<g class="stroked-text"><desc>1</desc>
<path d="M36.0892 11.5936
L35.3463 11.5936
" />
<path d="M35.7177 11.5936
L35.7177 10.2936
" />
<path d="M35.7177 10.2936
L35.5939 10.4793
" />
<path d="M35.5939 10.4793
L35.4701 10.6031
" />
<path d="M35.4701 10.6031
L35.3463 10.6650
" />
</g></g>
<g style="fill:none; 
stroke:#000000; stroke-width:0.1500; stroke-opacity:1; 
stroke-linecap:round; stroke-linejoin:round;">
<text x="85.0000" y="11.6500"
textLength="1.4281" font-size="1.7333" lengthAdjust="spacingAndGlyphs"
text-anchor="start" opacity="0" stroke-opacity="0">2</text>
<g class="stroked-text"><desc>2</desc>
<path d="M85.3463 10.4174
L85.4082 10.3555
" />
<path d="M85.4082 10.3555
L85.5320 10.2936
" />
<path d="M85.5320 10.2936
L85.8415 10.2936
" />
<path d="M85.8415 10.2936
L85.9654 10.3555
" />
<path d="M85.9654 10.3555
L86.0273 10.4174
" />
<path d="M86.0273 10.4174
L86.0892 10.5412
" />
<path d="M86.0892 10.5412
L86.0892 10.6650
" />
<path d="M86.0892 10.6650
L86.0273 10.8507
" />
<path d="M86.0273 10.8507
L85.2844 11.5936
" />
<path d="M85.2844 11.5936
L86.0892 11.5936
" />
</g></g>
<g style="fill:none; 
stroke:#000000; stroke-width:0.1500; stroke-opacity:1; 
stroke-linecap:round; stroke-linejoin:round;">
<text x="135.0000" y="11.6500"
textLength="1.4281" font-size="1.7333" lengthAdjust="spacingAndGlyphs"
text-anchor="start" opacity="0" stroke-opacity="0">3</text>
<g class="stroked-text"><desc>3</desc>
<path d="M135.2844 10.2936
L136.0892 10.2936
" />
<path d="M136.0892 10.2936
L135.6558 10.7888
" />
<path d="M135.6558 10.7888
L135.8415 10.7888
" />
<path d="M135.8415 10.7888
L135.9654 10.8507
" />
<path d="M135.9654 10.8507
L136.0273 10.9127
" />
<path d="M136.0273 10.9127
L136.0892 11.0365
" />
<path d="M136.0892 11.0365
L136.0892 11.3460
" />
<path d="M136.0892 11.3460
L136.0273 11.4698
" />
<path d="M136.0273 11.4698
L135.9654 11.5317
" />
<path d="M135.9654 11.5317
L135.8415 11.5936
" />
<path d="M135.8415 11.5936
L135.4701 11.5936
" />
<path d="M135.4701 11.5936
L135.3463 11.5317
" />
<path d="M135.3463 11.5317
L135.2844 11.4698
" />
</g></g>
<g style="fill:none; 
stroke:#000000; stroke-width:0.1500; stroke-opacity:1; 
stroke-linecap:round; stroke-linejoin:round;">
<text x="185.0000" y="11.6500"
textLength="1.4281" font-size="1.7333" lengthAdjust="spacingAndGlyphs"
text-anchor="start" opacity="0" stroke-opacity="0">4</text>
<g class="stroked-text"><desc>4</desc>
<path d="M185.9654 10.7269
L185.9654 11.5936
" />
<path d="M185.6558 10.2317
L185.3463 11.1603
" />
<path d="M185.3463 11.1603
L186.1511 11.1603
" />
</g></g>
<g style="fill:none; 
stroke:#000000; stroke-width:0.1500; stroke-opacity:1; 
stroke-linecap:round; stroke-linejoin:round;">
<text x="235.0000" y="11.6500"
textLength="1.4281" font-size="1.7333" lengthAdjust="spacingAndGlyphs"
text-anchor="start" opacity="0" stroke-opacity="0">5</text>
<g class="stroked-text"><desc>5</desc>
<path d="M236.0273 10.2936
L235.4082 10.2936
" />
<path d="M235.4082 10.2936
L235.3463 10.9127
" />
<path d="M235.3463 10.9127
L235.4082 10.8507
" />
<path d="M235.4082 10.8507
L235.5320 10.7888
" />
<path d="M235.5320 10.7888
L235.8415 10.7888
" />
<path d="M235.8415 10.7888
L235.9654 10.8507
" />
<path d="M235.9654 10.8507
L236.0273 10.9127
" />
<path d="M236.0273 10.9127
L236.0892 11.0365
" />
<path d="M236.0892 11.0365
L236.0892 11.3460
" />
<path d="M236.0892 11.3460
L236.0273 11.4698
" />
<path d="M236.0273 11.4698
L235.9654 11.5317
" />
<path d="M235.9654 11.5317
L235.8415 11.5936
" />
<path d="M235.8415 11.5936
L235.5320 11.5936
" />
<path d="M235.5320 11.5936
L235.4082 11.5317
" />
<path d="M235.4082 11.5317
L235.3463 11.4698
" />
</g></g>
<g style="fill:none; 
stroke:#000000; stroke-width:0.1500; stroke-opacity:1; 
stroke-linecap:round; stroke-linejoin:round;">
<text x="285.0000" y="11.6500"
textLength="1.4281" font-size="1.7333" lengthAdjust="spacingAndGlyphs"
text-anchor="start" opacity="0" stroke-opacity="0">6</text>
<g class="stroked-text"><desc>6</desc>
<path d="M285.9654 10.2936
L285.7177 10.2936
" />
<path d="M285.7177 10.2936
L285.5939 10.3555
" />
<path d="M285.5939 10.3555
L285.5320 10.4174
" />
<path d="M285.5320 10.4174
L285.4082 10.6031
" />
<path d="M285.4082 10.6031
L285.3463 10.8507
" />
<path d="M285.3463 10.8507
L285.3463 11.3460
" />
<path d="M285.3463 11.3460
L285.4082 11.4698
" />
<path d="M285.4082 11.4698
L285.4701 11.5317
" />
<path d="M285.4701 11.5317
L285.5939 11.5936
" />
<path d="M285.5939 11.5936
L285.8415 11.5936
" />
<path d="M285.8415 11.5936
L285.9654 11.5317
" />
<path d="M285.9654 11.5317
L286.0273 11.4698
" />
<path d="M286.0273 11.4698
L286.0892 11.3460
" />
<path d="M286.0892 11.3460
L286.0892 11.0365
" />
<path d="M286.0892 11.0365
L286.0273 10.9127
" />
<path d="M286.0273 10.9127
L285.9654 10.8507
" />
<path d="M285.9654 10.8507
L285.8415 10.7888
" />
<path d="M285.8415 10.7888
L285.5939 10.7888
" />
<path d="M285.5939 10.7888
L285.4701 10.8507
" />
<path d="M285.4701 10.8507
L285.4082 10.9127
" />
<path d="M285.4082 10.9127
L285.3463 11.0365
" />
</g></g>
<g style="fill:none; 
stroke:#000000; stroke-width:0.1500; stroke-opacity:1; 
stroke-linecap:round; stroke-linejoin:round;">
<path d="M60.0000 198.0072
L60.0000 200.0072
" />
</g>
<g style="fill:none; 
stroke:#000000; stroke-width:0.1500; stroke-opacity:1; 
stroke-linecap:round; stroke-linejoin:round;">
<path d="M110.0000 198.0072
L110.0000 200.0072
" />
</g>
<g style="fill:none; 
stroke:#000000; stroke-width:0.1500; stroke-opacity:1; 
stroke-linecap:round; stroke-linejoin:round;">
<path d="M160.0000 198.0072
L160.0000 200.0072
" />
</g>
<g style="fill:none; 
stroke:#000000; stroke-width:0.1500; stroke-opacity:1; 
stroke-linecap:round; stroke-linejoin:round;">
<path d="M210.0000 198.0072
L210.0000 200.0072
" />
</g>
<g style="fill:none; 
stroke:#000000; stroke-width:0.1500; stroke-opacity:1; 
stroke-linecap:round; stroke-linejoin:round;">
<path d="M260.0000 198.0072
L260.0000 200.0072
" />
</g>
<g style="fill:none; 
stroke:#000000; stroke-width:0.1500; stroke-opacity:1; 
stroke-linecap:round; stroke-linejoin:round;">
<text x="35.0000" y="199.6572"
textLength="1.4281" font-size="1.7333" lengthAdjust="spacingAndGlyphs"
text-anchor="start" opacity="0" stroke-opacity="0">1</text>
<g class="stroked-text"><desc>1</desc>
<path d="M36.0892 199.6008
L35.3463 199.6008
" />
<path d="M35.7177 199.6008
L35.7177 198.3008
" />
<path d="M35.7177 198.3008
L35.5939 198.4865
" />
<path d="M35.5939 198.4865
L35.4701 198.6103
" />
<path d="M35.4701 198.6103
L35.3463 198.6722
" />
</g></g>
<g style="fill:none; 
stroke:#000000; stroke-width:0.1500; stroke-opacity:1; 
stroke-linecap:round; stroke-linejoin:round;">
<text x="85.0000" y="199.6572"
textLength="1.4281" font-size="1.7333" lengthAdjust="spacingAndGlyphs"
text-anchor="start" opacity="0" stroke-opacity="0">2</text>
<g class="stroked-text"><desc>2</desc>
<path d="M85.3463 198.4246
L85.4082 198.3627
" />
<path d="M85.4082 198.3627
L85.5320 198.3008
" />
<path d="M85.5320 198.3008
L85.8415 198.3008
" />
<path d="M85.8415 198.3008
L85.9654 198.3627
" />
<path d="M85.9654 198.3627
L86.0273 198.4246
" />
<path d="M86.0273 198.4246
L86.0892 198.5484
" />
<path d="M86.0892 198.5484
L86.0892 198.6722
" />
<path d="M86.0892 198.6722
L86.0273 198.8579
" />
<path d="M86.0273 198.8579
L85.2844 199.6008
" />
<path d="M85.2844 199.6008
L86.0892 199.6008
" />
</g></g>
<g style="fill:none; 
stroke:#000000; stroke-width:0.1500; stroke-opacity:1; 
stroke-linecap:round; stroke-linejoin:round;">
<text x="135.0000" y="199.6572"
textLength="1.4281" font-size="1.7333" lengthAdjust="spacingAndGlyphs"
text-anchor="start" opacity="0" stroke-opacity="0">3</text>
<g class="stroked-text"><desc>3</desc>
<path d="M135.2844 198.3008
L136.0892 198.3008
" />
<path d="M136.0892 198.3008
L135.6558 198.7960
" />
<path d="M135.6558 198.7960
L135.8415 198.7960
" />
<path d="M135.8415 198.7960
L135.9654 198.8579
" />
<path d="M135.9654 198.8579
L136.0273 198.9199
" />
<path d="M136.0273 198.9199
L136.0892 199.0437
" />
<path d="M136.0892 199.0437
L136.0892 199.3532
" />
<path d="M136.0892 199.3532
L136.0273 199.4770
" />
<path d="M136.0273 199.4770
L135.9654 199.5389
" />
<path d="M135.9654 199.5389
L135.8415 199.6008
" />
<path d="M135.8415 199.6008
L135.4701 199.6008
" />
<path d="M135.4701 199.6008
L135.3463 199.5389
" />
<path d="M135.3463 199.5389
L135.2844 199.4770
" />
</g></g>
<g style="fill:none; 
stroke:#000000; stroke-width:0.1500; stroke-opacity:1; 
stroke-linecap:round; stroke-linejoin:round;">
<text x="185.0000" y="199.6572"
textLength="1.4281" font-size="1.7333" lengthAdjust="spacingAndGlyphs"
text-anchor="start" opacity="0" stroke-opacity="0">4</text>
<g class="stroked-text"><desc>4</desc>
<path d="M185.9654 198.7341
L185.9654 199.6008
" />
<path d="M185.6558 198.2389
L185.3463 199.1675
" />
<path d="M185.3463 199.1675
L186.1511 199.1675
" />
</g></g>
<g style="fill:none; 
stroke:#000000; stroke-width:0.1500; stroke-opacity:1; 
stroke-linecap:round; stroke-linejoin:round;">
<text x="235.0000" y="199.6572"
textLength="1.4281" font-size="1.7333" lengthAdjust="spacingAndGlyphs"
text-anchor="start" opacity="0" stroke-opacity="0">5</text>
<g class="stroked-text"><desc>5</desc>
<path d="M236.0273 198.3008
L235.4082 198.3008
" />
<path d="M235.4082 198.3008
L235.3463 198.9199
" />
<path d="M235.3463 198.9199
L235.4082 198.8579
" />
<path d="M235.4082 198.8579
L235.5320 198.7960
" />
<path d="M235.5320 198.7960
L235.8415 198.7960
" />
<path d="M235.8415 198.7960
L235.9654 198.8579
" />
<path d="M235.9654 198.8579
L236.0273 198.9199
" />
<path d="M236.0273 198.9199
L236.0892 199.0437
" />
<path d="M236.0892 199.0437
L236.0892 199.3532
" />
<path d="M236.0892 199.3532
L236.0273 199.4770
" />
<path d="M236.0273 199.4770
L235.9654 199.5389
" />
<path d="M235.9654 199.5389
L235.8415 199.6008
" />
<path d="M235.8415 199.6008
L235.5320 199.6008
" />
<path d="M235.5320 199.6008
L235.4082 199.5389
" />
<path d="M235.4082 199.5389
L235.3463 199.4770
" />
</g></g>
<g style="fill:none; 
stroke:#000000; stroke-width:0.1500; stroke-opacity:1; 
stroke-linecap:round; stroke-linejoin:round;">
<text x="285.0000" y="199.6572"
textLength="1.4281" font-size="1.7333" lengthAdjust="spacingAndGlyphs"
text-anchor="start" opacity="0" stroke-opacity="0">6</text>
<g class="stroked-text"><desc>6</desc>
<path d="M285.9654 198.3008
L285.7177 198.3008
" />
<path d="M285.7177 198.3008
L285.5939 198.3627
" />
<path d="M285.5939 198.3627
L285.5320 198.4246
" />
<path d="M285.5320 198.4246
L285.4082 198.6103
" />
<path d="M285.4082 198.6103
L285.3463 198.8579
" />
<path d="M285.3463 198.8579
L285.3463 199.3532
" />
<path d="M285.3463 199.3532
L285.4082 199.4770
" />
<path d="M285.4082 199.4770
L285.4701 199.5389
" />
<path d="M285.4701 199.5389
L285.5939 199.6008
" />
<path d="M285.5939 199.6008
L285.8415 199.6008
" />
<path d="M285.8415 199.6008
L285.9654 199.5389
" />
<path d="M285.9654 199.5389
L286.0273 199.4770
" />
<path d="M286.0273 199.4770
L286.0892 199.3532
" />
<path d="M286.0892 199.3532
L286.0892 199.0437
" />
<path d="M286.0892 199.0437
L286.0273 198.9199
" />
<path d="M286.0273 198.9199
L285.9654 198.8579
" />
<path d="M285.9654 198.8579
L285.8415 198.7960
" />
<path d="M285.8415 198.7960
L285.5939 198.7960
" />
<path d="M285.5939 198.7960
L285.4701 198.8579
" />
<path d="M285.4701 198.8579
L285.4082 198.9199
" />
<path d="M285.4082 198.9199
L285.3463 199.0437
" />
</g></g>
<g style="fill:none; 
stroke:#000000; stroke-width:0.1500; stroke-opacity:1; 
stroke-linecap:round; stroke-linejoin:round;">
<path d="M10.0000 60.0000
L12.0000 60.0000
" />
</g>
<g style="fill:none; 
stroke:#000000; stroke-width:0.1500; stroke-opacity:1; 
stroke-linecap:round; stroke-linejoin:round;">
<path d="M10.0000 110.0000
L12.0000 110.0000
" />
</g>
<g style="fill:none; 
stroke:#000000; stroke-width:0.1500; stroke-opacity:1; 
stroke-linecap:round; stroke-linejoin:round;">
<path d="M10.0000 160.0000
L12.0000 160.0000
" />
</g>
<g style="fill:none; 
stroke:#000000; stroke-width:0.1500; stroke-opacity:1; 
stroke-linecap:round; stroke-linejoin:round;">
<text x="11.0000" y="35.6500"
textLength="1.3043" font-size="1.7333" lengthAdjust="spacingAndGlyphs"
text-anchor="middle" opacity="0" stroke-opacity="0">A</text>
<g class="stroked-text"><desc>A</desc>
<path d="M10.6905 35.2222
L11.3095 35.2222
" />
<path d="M10.5667 35.5936
L11.0000 34.2936
" />
<path d="M11.0000 34.2936
L11.4333 35.5936
" />
</g></g>
<g style="fill:none; 
stroke:#000000; stroke-width:0.1500; stroke-opacity:1; 
stroke-linecap:round; stroke-linejoin:round;">
<text x="11.0000" y="85.6500"
textLength="1.4900" font-size="1.7333" lengthAdjust="spacingAndGlyphs"
text-anchor="middle" opacity="0" stroke-opacity="0">B</text>
<g class="stroked-text"><desc>B</desc>
<path d="M11.0929 84.9127
L11.2786 84.9746
" />
<path d="M11.2786 84.9746
L11.3405 85.0365
" />
<path d="M11.3405 85.0365
L11.4024 85.1603
" />
<path d="M11.4024 85.1603
L11.4024 85.3460
" />
<path d="M11.4024 85.3460
L11.3405 85.4698
" />
<path d="M11.3405 85.4698
L11.2786 85.5317
" />
<path d="M11.2786 85.5317
L11.1548 85.5936
" />
<path d="M11.1548 85.5936
L10.6595 85.5936
" />
<path d="M10.6595 85.5936
L10.6595 84.2936
" />
<path d="M10.6595 84.2936
L11.0929 84.2936
" />
<path d="M11.0929 84.2936
L11.2167 84.3555
" />
<path d="M11.2167 84.3555
L11.2786 84.4174
" />
<path d="M11.2786 84.4174
L11.3405 84.5412
" />
<path d="M11.3405 84.5412
L11.3405 84.6650
" />
<path d="M11.3405 84.6650
L11.2786 84.7888
" />
<path d="M11.2786 84.7888
L11.2167 84.8507
" />
<path d="M11.2167 84.8507
L11.0929 84.9127
" />
<path d="M11.0929 84.9127
L10.6595 84.9127
" />
</g></g>
<g style="fill:none; 
stroke:#000000; stroke-width:0.1500; stroke-opacity:1; 
stroke-linecap:round; stroke-linejoin:round;">
<text x="11.0000" y="135.6500"
textLength="1.4900" font-size="1.7333" lengthAdjust="spacingAndGlyphs"
text-anchor="middle" opacity="0" stroke-opacity="0">C</text>
<g class="stroked-text"><desc>C</desc>
<path d="M11.4024 135.4698
L11.3405 135.5317
" />
<path d="M11.3405 135.5317
L11.1548 135.5936
" />
<path d="M11.1548 135.5936
L11.0310 135.5936
" />
<path d="M11.0310 135.5936
L10.8452 135.5317
" />
<path d="M10.8452 135.5317
L10.7214 135.4079
" />
<path d="M10.7214 135.4079
L10.6595 135.2841
" />
<path d="M10.6595 135.2841
L10.5976 135.0365
" />
<path d="M10.5976 135.0365
L10.5976 134.8507
" />
<path d="M10.5976 134.8507
L10.6595 134.6031
" />
<path d="M10.6595 134.6031
L10.7214 134.4793
" />
<path d="M10.7214 134.4793
L10.8452 134.3555
" />
<path d="M10.8452 134.3555
L11.0310 134.2936
" />
<path d="M11.0310 134.2936
L11.1548 134.2936
" />
<path d="M11.1548 134.2936
L11.3405 134.3555
" />
<path d="M11.3405 134.3555
L11.4024 134.4174
" />
</g></g>
<g style="fill:none; 
stroke:#000000; stroke-width:0.1500; stroke-opacity:1; 
stroke-linecap:round; stroke-linejoin:round;">
<text x="11.0000" y="185.6500"
textLength="1.4900" font-size="1.7333" lengthAdjust="spacingAndGlyphs"
text-anchor="middle" opacity="0" stroke-opacity="0">D</text>
<g class="stroked-text"><desc>D</desc>
<path d="M10.6595 185.5936
L10.6595 184.2936
" />
<path d="M10.6595 184.2936
L10.9690 184.2936
" />
<path d="M10.9690 184.2936
L11.1548 184.3555
" />
<path d="M11.1548 184.3555
L11.2786 184.4793
" />
<path d="M11.2786 184.4793
L11.3405 184.6031
" />
<path d="M11.3405 184.6031
L11.4024 184.8507
" />
<path d="M11.4024 184.8507
L11.4024 185.0365
" />
<path d="M11.4024 185.0365
L11.3405 185.2841
" />
<path d="M11.3405 185.2841
L11.2786 185.4079
" />
<path d="M11.2786 185.4079
L11.1548 185.5317
" />
<path d="M11.1548 185.5317
L10.9690 185.5936
" />
<path d="M10.9690 185.5936
L10.6595 185.5936
" />
</g></g>
<g style="fill:none; 
stroke:#000000; stroke-width:0.1500; stroke-opacity:1; 
stroke-linecap:round; stroke-linejoin:round;">
<path d="M287.0022 60.0000
L285.0022 60.0000
" />
</g>
<g style="fill:none; 
stroke:#000000; stroke-width:0.1500; stroke-opacity:1; 
stroke-linecap:round; stroke-linejoin:round;">
<path d="M287.0022 110.0000
L285.0022 110.0000
" />
</g>
<g style="fill:none; 
stroke:#000000; stroke-width:0.1500; stroke-opacity:1; 
stroke-linecap:round; stroke-linejoin:round;">
<path d="M287.0022 160.0000
L285.0022 160.0000
" />
</g>
<g style="fill:none; 
stroke:#000000; stroke-width:0.1500; stroke-opacity:1; 
stroke-linecap:round; stroke-linejoin:round;">
<text x="286.0022" y="35.6500"
textLength="1.3043" font-size="1.7333" lengthAdjust="spacingAndGlyphs"
text-anchor="middle" opacity="0" stroke-opacity="0">A</text>
<g class="stroked-text"><desc>A</desc>
<path d="M285.6927 35.2222
L286.3117 35.2222
" />
<path d="M285.5689 35.5936
L286.0022 34.2936
" />
<path d="M286.0022 34.2936
L286.4355 35.5936
" />
</g></g>
<g style="fill:none; 
stroke:#000000; stroke-width:0.1500; stroke-opacity:1; 
stroke-linecap:round; stroke-linejoin:round;">
<text x="286.0022" y="85.6500"
textLength="1.4900" font-size="1.7333" lengthAdjust="spacingAndGlyphs"
text-anchor="middle" opacity="0" stroke-opacity="0">B</text>
<g class="stroked-text"><desc>B</desc>
<path d="M286.0951 84.9127
L286.2808 84.9746
" />
<path d="M286.2808 84.9746
L286.3427 85.0365
" />
<path d="M286.3427 85.0365
L286.4046 85.1603
" />
<path d="M286.4046 85.1603
L286.4046 85.3460
" />
<path d="M286.4046 85.3460
L286.3427 85.4698
" />
<path d="M286.3427 85.4698
L286.2808 85.5317
" />
<path d="M286.2808 85.5317
L286.1570 85.5936
" />
<path d="M286.1570 85.5936
L285.6617 85.5936
" />
<path d="M285.6617 85.5936
L285.6617 84.2936
" />
<path d="M285.6617 84.2936
L286.0951 84.2936
" />
<path d="M286.0951 84.2936
L286.2189 84.3555
" />
<path d="M286.2189 84.3555
L286.2808 84.4174
" />
<path d="M286.2808 84.4174
L286.3427 84.5412
" />
<path d="M286.3427 84.5412
L286.3427 84.6650
" />
<path d="M286.3427 84.6650
L286.2808 84.7888
" />
<path d="M286.2808 84.7888
L286.2189 84.8507
" />
<path d="M286.2189 84.8507
L286.0951 84.9127
" />
<path d="M286.0951 84.9127
L285.6617 84.9127
" />
</g></g>
<g style="fill:none; 
stroke:#000000; stroke-width:0.1500; stroke-opacity:1; 
stroke-linecap:round; stroke-linejoin:round;">
<text x="286.0022" y="135.6500"
textLength="1.4900" font-size="1.7333" lengthAdjust="spacingAndGlyphs"
text-anchor="middle" opacity="0" stroke-opacity="0">C</text>
<g class="stroked-text"><desc>C</desc>
<path d="M286.4046 135.4698
L286.3427 135.5317
" />
<path d="M286.3427 135.5317
L286.1570 135.5936
" />
<path d="M286.1570 135.5936
L286.0332 135.5936
" />
<path d="M286.0332 135.5936
L285.8474 135.5317
" />
<path d="M285.8474 135.5317
L285.7236 135.4079
" />
<path d="M285.7236 135.4079
L285.6617 135.2841
" />
<path d="M285.6617 135.2841
L285.5998 135.0365
" />
<path d="M285.5998 135.0365
L285.5998 134.8507
" />
<path d="M285.5998 134.8507
L285.6617 134.6031
" />
<path d="M285.6617 134.6031
L285.7236 134.4793
" />
<path d="M285.7236 134.4793
L285.8474 134.3555
" />
<path d="M285.8474 134.3555
L286.0332 134.2936
" />
<path d="M286.0332 134.2936
L286.1570 134.2936
" />
<path d="M286.1570 134.2936
L286.3427 134.3555
" />
<path d="M286.3427 134.3555
L286.4046 134.4174
" />
</g></g>
<g style="fill:none; 
stroke:#000000; stroke-width:0.1500; stroke-opacity:1; 
stroke-linecap:round; stroke-linejoin:round;">
<text x="286.0022" y="185.6500"
textLength="1.4900" font-size="1.7333" lengthAdjust="spacingAndGlyphs"
text-anchor="middle" opacity="0" stroke-opacity="0">D</text>
<g class="stroked-text"><desc>D</desc>
<path d="M285.6617 185.5936
L285.6617 184.2936
" />
<path d="M285.6617 184.2936
L285.9712 184.2936
" />
<path d="M285.9712 184.2936
L286.1570 184.3555
" />
<path d="M286.1570 184.3555
L286.2808 184.4793
" />
<path d="M286.2808 184.4793
L286.3427 184.6031
" />
<path d="M286.3427 184.6031
L286.4046 184.8507
" />
<path d="M286.4046 184.8507
L286.4046 185.0365
" />
<path d="M286.4046 185.0365
L286.3427 185.2841
" />
<path d="M286.3427 185.2841
L286.2808 185.4079
" />
<path d="M286.2808 185.4079
L286.1570 185.5317
" />
<path d="M286.1570 185.5317
L285.9712 185.5936
" />
<path d="M285.9712 185.5936
L285.6617 185.5936
" />
</g></g>
<g style="fill:none; 
stroke:#000000; stroke-width:0.1500; stroke-opacity:1; 
stroke-linecap:round; stroke-linejoin:round;">
<text x="200.0022" y="193.8572"
textLength="7.0071" font-size="2.0000" lengthAdjust="spacingAndGlyphs"
text-anchor="start" opacity="0" stroke-opacity="0">Date: </text>
<g class="stroked-text"><desc>Date: </desc>
<path d="M200.4580 193.7933
L200.4580 192.2933
" />
<path d="M200.4580 192.2933
L200.8152 192.2933
" />
<path d="M200.8152 192.2933
L201.0295 192.3648
" />
<path d="M201.0295 192.3648
L201.1723 192.5076
" />
<path d="M201.1723 192.5076
L201.2437 192.6505
" />
<path d="M201.2437 192.6505
L201.3152 192.9362
" />
<path d="M201.3152 192.9362
L201.3152 193.1505
" />
<path d="M201.3152 193.1505
L201.2437 193.4362
" />
<path d="M201.2437 193.4362
L201.1723 193.5790
" />
<path d="M201.1723 193.5790
L201.0295 193.7219
" />
<path d="M201.0295 193.7219
L200.8152 193.7933
" />
<path d="M200.8152 193.7933
L200.4580 193.7933
" />
<path d="M202.6009 193.7933
L202.6009 193.0076
" />
<path d="M202.6009 193.0076
L202.5295 192.8648
" />
<path d="M202.5295 192.8648
L202.3866 192.7933
" />
<path d="M202.3866 192.7933
L202.1009 192.7933
" />
<path d="M202.1009 192.7933
L201.9580 192.8648
" />
<path d="M202.6009 193.7219
L202.4580 193.7933
" />
<path d="M202.4580 193.7933
L202.1009 193.7933
" />
<path d="M202.1009 193.7933
L201.9580 193.7219
" />
<path d="M201.9580 193.7219
L201.8866 193.5790
" />
<path d="M201.8866 193.5790
L201.8866 193.4362
" />
<path d="M201.8866 193.4362
L201.9580 193.2933
" />
<path d="M201.9580 193.2933
L202.1009 193.2219
" />
<path d="M202.1009 193.2219
L202.4580 193.2219
" />
<path d="M202.4580 193.2219
L202.6009 193.1505
" />
<path d="M203.1009 192.7933
L203.6723 192.7933
" />
<path d="M203.3152 192.2933
L203.3152 193.5790
" />
<path d="M203.3152 193.5790
L203.3866 193.7219
" />
<path d="M203.3866 193.7219
L203.5295 193.7933
" />
<path d="M203.5295 193.7933
L203.6723 193.7933
" />
<path d="M204.7437 193.7219
L204.6009 193.7933
" />
<path d="M204.6009 193.7933
L204.3152 193.7933
" />
<path d="M204.3152 193.7933
L204.1723 193.7219
" />
<path d="M204.1723 193.7219
L204.1009 193.5790
" />
<path d="M204.1009 193.5790
L204.1009 193.0076
" />
<path d="M204.1009 193.0076
L204.1723 192.8648
" />
<path d="M204.1723 192.8648
L204.3152 192.7933
" />
<path d="M204.3152 192.7933
L204.6009 192.7933
" />
<path d="M204.6009 192.7933
L204.7437 192.8648
" />
<path d="M204.7437 192.8648
L204.8152 193.0076
" />
<path d="M204.8152 193.0076
L204.8152 193.1505
" />
<path d="M204.8152 193.1505
L204.1009 193.2933
" />
<path d="M205.4580 193.6505
L205.5295 193.7219
" />
<path d="M205.5295 193.7219
L205.4580 193.7933
" />
<path d="M205.4580 193.7933
L205.3866 193.7219
" />
<path d="M205.3866 193.7219
L205.4580 193.6505
" />
<path d="M205.4580 193.6505
L205.4580 193.7933
" />
<path d="M205.4580 192.8648
L205.5295 192.9362
" />
<path d="M205.5295 192.9362
L205.4580 193.0076
" />
<path d="M205.4580 193.0076
L205.3866 192.9362
" />
<path d="M205.3866 192.9362
L205.4580 192.8648
" />
<path d="M205.4580 192.8648
L205.4580 193.0076
" />
</g></g>
<g style="fill:none; 
stroke:#000000; stroke-width:0.1500; stroke-opacity:1; 
stroke-linecap:round; stroke-linejoin:round;">
<path d="M177.0022 194.5072
L285.0022 194.5072
" />
</g>
<g style="fill:none; 
stroke:#000000; stroke-width:0.1500; stroke-opacity:1; 
stroke-linecap:round; stroke-linejoin:round;">
<text x="178.0022" y="196.6572"
textLength="20.8643" font-size="2.0000" lengthAdjust="spacingAndGlyphs"
text-anchor="start" opacity="0" stroke-opacity="0">KiCad E.D.A. 8.0.7</text>
<g class="stroked-text"><desc>KiCad E.D.A. 8.0.7</desc>
<path d="M178.4580 196.5933
L178.4580 195.0933
" />
<path d="M179.3152 196.5933
L178.6723 195.7362
" />
<path d="M179.3152 195.0933
L178.4580 195.9505
" />
<path d="M179.9580 196.5933
L179.9580 195.5933
" />
<path d="M179.9580 195.0933
L179.8866 195.1648
" />
<path d="M179.8866 195.1648
L179.9580 195.2362
" />
<path d="M179.9580 195.2362
L180.0295 195.1648
" />
<path d="M180.0295 195.1648
L179.9580 195.0933
" />
<path d="M179.9580 195.0933
L179.9580 195.2362
" />
<path d="M181.5295 196.4505
L181.4580 196.5219
" />
<path d="M181.4580 196.5219
L181.2437 196.5933
" />
<path d="M181.2437 196.5933
L181.1009 196.5933
" />
<path d="M181.1009 196.5933
L180.8866 196.5219
" />
<path d="M180.8866 196.5219
L180.7437 196.3790
" />
<path d="M180.7437 196.3790
L180.6723 196.2362
" />
<path d="M180.6723 196.2362
L180.6009 195.9505
" />
<path d="M180.6009 195.9505
L180.6009 195.7362
" />
<path d="M180.6009 195.7362
L180.6723 195.4505
" />
<path d="M180.6723 195.4505
L180.7437 195.3076
" />
<path d="M180.7437 195.3076
L180.8866 195.1648
" />
<path d="M180.8866 195.1648
L181.1009 195.0933
" />
<path d="M181.1009 195.0933
L181.2437 195.0933
" />
<path d="M181.2437 195.0933
L181.4580 195.1648
" />
<path d="M181.4580 195.1648
L181.5295 195.2362
" />
<path d="M182.8152 196.5933
L182.8152 195.8076
" />
<path d="M182.8152 195.8076
L182.7437 195.6648
" />
<path d="M182.7437 195.6648
L182.6009 195.5933
" />
<path d="M182.6009 195.5933
L182.3152 195.5933
" />
<path d="M182.3152 195.5933
L182.1723 195.6648
" />
<path d="M182.8152 196.5219
L182.6723 196.5933
" />
<path d="M182.6723 196.5933
L182.3152 196.5933
" />
<path d="M182.3152 196.5933
L182.1723 196.5219
" />
<path d="M182.1723 196.5219
L182.1009 196.3790
" />
<path d="M182.1009 196.3790
L182.1009 196.2362
" />
<path d="M182.1009 196.2362
L182.1723 196.0933
" />
<path d="M182.1723 196.0933
L182.3152 196.0219
" />
<path d="M182.3152 196.0219
L182.6723 196.0219
" />
<path d="M182.6723 196.0219
L182.8152 195.9505
" />
<path d="M184.1723 196.5933
L184.1723 195.0933
" />
<path d="M184.1723 196.5219
L184.0295 196.5933
" />
<path d="M184.0295 196.5933
L183.7437 196.5933
" />
<path d="M183.7437 196.5933
L183.6009 196.5219
" />
<path d="M183.6009 196.5219
L183.5295 196.4505
" />
<path d="M183.5295 196.4505
L183.4580 196.3076
" />
<path d="M183.4580 196.3076
L183.4580 195.8790
" />
<path d="M183.4580 195.8790
L183.5295 195.7362
" />
<path d="M183.5295 195.7362
L183.6009 195.6648
" />
<path d="M183.6009 195.6648
L183.7437 195.5933
" />
<path d="M183.7437 195.5933
L184.0295 195.5933
" />
<path d="M184.0295 195.5933
L184.1723 195.6648
" />
<path d="M186.0295 195.8076
L186.5295 195.8076
" />
<path d="M186.7437 196.5933
L186.0295 196.5933
" />
<path d="M186.0295 196.5933
L186.0295 195.0933
" />
<path d="M186.0295 195.0933
L186.7437 195.0933
" />
<path d="M187.3866 196.4505
L187.4580 196.5219
" />
<path d="M187.4580 196.5219
L187.3866 196.5933
" />
<path d="M187.3866 196.5933
L187.3152 196.5219
" />
<path d="M187.3152 196.5219
L187.3866 196.4505
" />
<path d="M187.3866 196.4505
L187.3866 196.5933
" />
<path d="M188.1009 196.5933
L188.1009 195.0933
" />
<path d="M188.1009 195.0933
L188.4580 195.0933
" />
<path d="M188.4580 195.0933
L188.6723 195.1648
" />
<path d="M188.6723 195.1648
L188.8152 195.3076
" />
<path d="M188.8152 195.3076
L188.8866 195.4505
" />
<path d="M188.8866 195.4505
L188.9580 195.7362
" />
<path d="M188.9580 195.7362
L188.9580 195.9505
" />
<path d="M188.9580 195.9505
L188.8866 196.2362
" />
<path d="M188.8866 196.2362
L188.8152 196.3790
" />
<path d="M188.8152 196.3790
L188.6723 196.5219
" />
<path d="M188.6723 196.5219
L188.4580 196.5933
" />
<path d="M188.4580 196.5933
L188.1009 196.5933
" />
<path d="M189.6009 196.4505
L189.6723 196.5219
" />
<path d="M189.6723 196.5219
L189.6009 196.5933
" />
<path d="M189.6009 196.5933
L189.5295 196.5219
" />
<path d="M189.5295 196.5219
L189.6009 196.4505
" />
<path d="M189.6009 196.4505
L189.6009 196.5933
" />
<path d="M190.2437 196.1648
L190.9580 196.1648
" />
<path d="M190.1009 196.5933
L190.6009 195.0933
" />
<path d="M190.6009 195.0933
L191.1009 196.5933
" />
<path d="M191.6009 196.4505
L191.6723 196.5219
" />
<path d="M191.6723 196.5219
L191.6009 196.5933
" />
<path d="M191.6009 196.5933
L191.5295 196.5219
" />
<path d="M191.5295 196.5219
L191.6009 196.4505
" />
<path d="M191.6009 196.4505
L191.6009 196.5933
" />
<path d="M193.6723 195.7362
L193.5295 195.6648
" />
<path d="M193.5295 195.6648
L193.4580 195.5933
" />
<path d="M193.4580 195.5933
L193.3866 195.4505
" />
<path d="M193.3866 195.4505
L193.3866 195.3790
" />
<path d="M193.3866 195.3790
L193.4580 195.2362
" />
<path d="M193.4580 195.2362
L193.5295 195.1648
" />
<path d="M193.5295 195.1648
L193.6723 195.0933
" />
<path d="M193.6723 195.0933
L193.9580 195.0933
" />
<path d="M193.9580 195.0933
L194.1009 195.1648
" />
<path d="M194.1009 195.1648
L194.1723 195.2362
" />
<path d="M194.1723 195.2362
L194.2437 195.3790
" />
<path d="M194.2437 195.3790
L194.2437 195.4505
" />
<path d="M194.2437 195.4505
L194.1723 195.5933
" />
<path d="M194.1723 195.5933
L194.1009 195.6648
" />
<path d="M194.1009 195.6648
L193.9580 195.7362
" />
<path d="M193.9580 195.7362
L193.6723 195.7362
" />
<path d="M193.6723 195.7362
L193.5295 195.8076
" />
<path d="M193.5295 195.8076
L193.4580 195.8790
" />
<path d="M193.4580 195.8790
L193.3866 196.0219
" />
<path d="M193.3866 196.0219
L193.3866 196.3076
" />
<path d="M193.3866 196.3076
L193.4580 196.4505
" />
<path d="M193.4580 196.4505
L193.5295 196.5219
" />
<path d="M193.5295 196.5219
L193.6723 196.5933
" />
<path d="M193.6723 196.5933
L193.9580 196.5933
" />
<path d="M193.9580 196.5933
L194.1009 196.5219
" />
<path d="M194.1009 196.5219
L194.1723 196.4505
" />
<path d="M194.1723 196.4505
L194.2437 196.3076
" />
<path d="M194.2437 196.3076
L194.2437 196.0219
" />
<path d="M194.2437 196.0219
L194.1723 195.8790
" />
<path d="M194.1723 195.8790
L194.1009 195.8076
" />
<path d="M194.1009 195.8076
L193.9580 195.7362
" />
<path d="M194.8866 196.4505
L194.9580 196.5219
" />
<path d="M194.9580 196.5219
L194.8866 196.5933
" />
<path d="M194.8866 196.5933
L194.8152 196.5219
" />
<path d="M194.8152 196.5219
L194.8866 196.4505
" />
<path d="M194.8866 196.4505
L194.8866 196.5933
" />
<path d="M195.8866 195.0933
L196.0295 195.0933
" />
<path d="M196.0295 195.0933
L196.1723 195.1648
" />
<path d="M196.1723 195.1648
L196.2437 195.2362
" />
<path d="M196.2437 195.2362
L196.3152 195.3790
" />
<path d="M196.3152 195.3790
L196.3866 195.6648
" />
<path d="M196.3866 195.6648
L196.3866 196.0219
" />
<path d="M196.3866 196.0219
L196.3152 196.3076
" />
<path d="M196.3152 196.3076
L196.2437 196.4505
" />
<path d="M196.2437 196.4505
L196.1723 196.5219
" />
<path d="M196.1723 196.5219
L196.0295 196.5933
" />
<path d="M196.0295 196.5933
L195.8866 196.5933
" />
<path d="M195.8866 196.5933
L195.7437 196.5219
" />
<path d="M195.7437 196.5219
L195.6723 196.4505
" />
<path d="M195.6723 196.4505
L195.6009 196.3076
" />
<path d="M195.6009 196.3076
L195.5295 196.0219
" />
<path d="M195.5295 196.0219
L195.5295 195.6648
" />
<path d="M195.5295 195.6648
L195.6009 195.3790
" />
<path d="M195.6009 195.3790
L195.6723 195.2362
" />
<path d="M195.6723 195.2362
L195.7437 195.1648
" />
<path d="M195.7437 195.1648
L195.8866 195.0933
" />
<path d="M197.0295 196.4505
L197.1009 196.5219
" />
<path d="M197.1009 196.5219
L197.0295 196.5933
" />
<path d="M197.0295 196.5933
L196.9580 196.5219
" />
<path d="M196.9580 196.5219
L197.0295 196.4505
" />
<path d="M197.0295 196.4505
L197.0295 196.5933
" />
<path d="M197.6009 195.0933
L198.6009 195.0933
" />
<path d="M198.6009 195.0933
L197.9580 196.5933
" />
</g></g>
<g style="fill:none; 
stroke:#000000; stroke-width:0.1500; stroke-opacity:1; 
stroke-linecap:round; stroke-linejoin:round;">
<path d="M177.0022 191.5072
L285.0022 191.5072
" />
</g>
<g style="fill:none; 
stroke:#000000; stroke-width:0.3000; stroke-opacity:1; 
stroke-linecap:round; stroke-linejoin:round;">
<text x="263.0022" y="193.8572"
textLength="6.3857" font-size="2.0000" lengthAdjust="spacingAndGlyphs"
text-anchor="start" opacity="0" stroke-opacity="0">Rev: </text>
<g class="stroked-text"><desc>Rev: </desc>
<path d="M264.4139 193.7855
L263.9139 193.0712
" />
<path d="M263.5567 193.7855
L263.5567 192.2855
" />
<path d="M263.5567 192.2855
L264.1281 192.2855
" />
<path d="M264.1281 192.2855
L264.2710 192.3570
" />
<path d="M264.2710 192.3570
L264.3424 192.4284
" />
<path d="M264.3424 192.4284
L264.4139 192.5712
" />
<path d="M264.4139 192.5712
L264.4139 192.7855
" />
<path d="M264.4139 192.7855
L264.3424 192.9284
" />
<path d="M264.3424 192.9284
L264.2710 192.9998
" />
<path d="M264.2710 192.9998
L264.1281 193.0712
" />
<path d="M264.1281 193.0712
L263.5567 193.0712
" />
<path d="M265.6281 193.7141
L265.4853 193.7855
" />
<path d="M265.4853 193.7855
L265.1996 193.7855
" />
<path d="M265.1996 193.7855
L265.0567 193.7141
" />
<path d="M265.0567 193.7141
L264.9853 193.5712
" />
<path d="M264.9853 193.5712
L264.9853 192.9998
" />
<path d="M264.9853 192.9998
L265.0567 192.8570
" />
<path d="M265.0567 192.8570
L265.1996 192.7855
" />
<path d="M265.1996 192.7855
L265.4853 192.7855
" />
<path d="M265.4853 192.7855
L265.6281 192.8570
" />
<path d="M265.6281 192.8570
L265.6996 192.9998
" />
<path d="M265.6996 192.9998
L265.6996 193.1427
" />
<path d="M265.6996 193.1427
L264.9853 193.2855
" />
<path d="M266.1996 192.7855
L266.5567 193.7855
" />
<path d="M266.5567 193.7855
L266.9139 192.7855
" />
<path d="M267.4853 193.6427
L267.5567 193.7141
" />
<path d="M267.5567 193.7141
L267.4853 193.7855
" />
<path d="M267.4853 193.7855
L267.4139 193.7141
" />
<path d="M267.4139 193.7141
L267.4853 193.6427
" />
<path d="M267.4853 193.6427
L267.4853 193.7855
" />
<path d="M267.4853 192.8570
L267.5567 192.9284
" />
<path d="M267.5567 192.9284
L267.4853 192.9998
" />
<path d="M267.4853 192.9998
L267.4139 192.9284
" />
<path d="M267.4139 192.9284
L267.4853 192.8570
" />
<path d="M267.4853 192.8570
L267.4853 192.9998
" />
</g></g>
<g style="fill:none; 
stroke:#000000; stroke-width:0.1500; stroke-opacity:1; 
stroke-linecap:round; stroke-linejoin:round;">
<text x="178.0022" y="193.8572"
textLength="9.3643" font-size="2.0000" lengthAdjust="spacingAndGlyphs"
text-anchor="start" opacity="0" stroke-opacity="0">Size: A4</text>
<g class="stroked-text"><desc>Size: A4</desc>
<path d="M178.3866 193.7219
L178.6009 193.7933
" />
<path d="M178.6009 193.7933
L178.9580 193.7933
" />
<path d="M178.9580 193.7933
L179.1009 193.7219
" />
<path d="M179.1009 193.7219
L179.1723 193.6505
" />
<path d="M179.1723 193.6505
L179.2437 193.5076
" />
<path d="M179.2437 193.5076
L179.2437 193.3648
" />
<path d="M179.2437 193.3648
L179.1723 193.2219
" />
<path d="M179.1723 193.2219
L179.1009 193.1505
" />
<path d="M179.1009 193.1505
L178.9580 193.0790
" />
<path d="M178.9580 193.0790
L178.6723 193.0076
" />
<path d="M178.6723 193.0076
L178.5295 192.9362
" />
<path d="M178.5295 192.9362
L178.4580 192.8648
" />
<path d="M178.4580 192.8648
L178.3866 192.7219
" />
<path d="M178.3866 192.7219
L178.3866 192.5790
" />
<path d="M178.3866 192.5790
L178.4580 192.4362
" />
<path d="M178.4580 192.4362
L178.5295 192.3648
" />
<path d="M178.5295 192.3648
L178.6723 192.2933
" />
<path d="M178.6723 192.2933
L179.0295 192.2933
" />
<path d="M179.0295 192.2933
L179.2437 192.3648
" />
<path d="M179.8866 193.7933
L179.8866 192.7933
" />
<path d="M179.8866 192.2933
L179.8152 192.3648
" />
<path d="M179.8152 192.3648
L179.8866 192.4362
" />
<path d="M179.8866 192.4362
L179.9580 192.3648
" />
<path d="M179.9580 192.3648
L179.8866 192.2933
" />
<path d="M179.8866 192.2933
L179.8866 192.4362
" />
<path d="M180.4580 192.7933
L181.2437 192.7933
" />
<path d="M181.2437 192.7933
L180.4580 193.7933
" />
<path d="M180.4580 193.7933
L181.2437 193.7933
" />
<path d="M182.3866 193.7219
L182.2437 193.7933
" />
<path d="M182.2437 193.7933
L181.9580 193.7933
" />
<path d="M181.9580 193.7933
L181.8152 193.7219
" />
<path d="M181.8152 193.7219
L181.7437 193.5790
" />
<path d="M181.7437 193.5790
L181.7437 193.0076
" />
<path d="M181.7437 193.0076
L181.8152 192.8648
" />
<path d="M181.8152 192.8648
L181.9580 192.7933
" />
<path d="M181.9580 192.7933
L182.2437 192.7933
" />
<path d="M182.2437 192.7933
L182.3866 192.8648
" />
<path d="M182.3866 192.8648
L182.4580 193.0076
" />
<path d="M182.4580 193.0076
L182.4580 193.1505
" />
<path d="M182.4580 193.1505
L181.7437 193.2933
" />
<path d="M183.1009 193.6505
L183.1723 193.7219
" />
<path d="M183.1723 193.7219
L183.1009 193.7933
" />
<path d="M183.1009 193.7933
L183.0295 193.7219
" />
<path d="M183.0295 193.7219
L183.1009 193.6505
" />
<path d="M183.1009 193.6505
L183.1009 193.7933
" />
<path d="M183.1009 192.8648
L183.1723 192.9362
" />
<path d="M183.1723 192.9362
L183.1009 193.0076
" />
<path d="M183.1009 193.0076
L183.0295 192.9362
" />
<path d="M183.0295 192.9362
L183.1009 192.8648
" />
<path d="M183.1009 192.8648
L183.1009 193.0076
" />
<path d="M184.8866 193.3648
L185.6009 193.3648
" />
<path d="M184.7437 193.7933
L185.2437 192.2933
" />
<path d="M185.2437 192.2933
L185.7437 193.7933
" />
<path d="M186.8866 192.7933
L186.8866 193.7933
" />
<path d="M186.5295 192.2219
L186.1723 193.2933
" />
<path d="M186.1723 193.2933
L187.1009 193.2933
" />
</g></g>
<g style="fill:none; 
stroke:#000000; stroke-width:0.1500; stroke-opacity:1; 
stroke-linecap:round; stroke-linejoin:round;">
<text x="263.0022" y="196.6572"
textLength="8.5071" font-size="2.0000" lengthAdjust="spacingAndGlyphs"
text-anchor="start" opacity="0" stroke-opacity="0">Id: 1/1</text>
<g class="stroked-text"><desc>Id: 1/1</desc>
<path d="M263.4580 196.5933
L263.4580 195.0933
" />
<path d="M264.8152 196.5933
L264.8152 195.0933
" />
<path d="M264.8152 196.5219
L264.6723 196.5933
" />
<path d="M264.6723 196.5933
L264.3866 196.5933
" />
<path d="M264.3866 196.5933
L264.2437 196.5219
" />
<path d="M264.2437 196.5219
L264.1723 196.4505
" />
<path d="M264.1723 196.4505
L264.1009 196.3076
" />
<path d="M264.1009 196.3076
L264.1009 195.8790
" />
<path d="M264.1009 195.8790
L264.1723 195.7362
" />
<path d="M264.1723 195.7362
L264.2437 195.6648
" />
<path d="M264.2437 195.6648
L264.3866 195.5933
" />
<path d="M264.3866 195.5933
L264.6723 195.5933
" />
<path d="M264.6723 195.5933
L264.8152 195.6648
" />
<path d="M265.5295 196.4505
L265.6009 196.5219
" />
<path d="M265.6009 196.5219
L265.5295 196.5933
" />
<path d="M265.5295 196.5933
L265.4580 196.5219
" />
<path d="M265.4580 196.5219
L265.5295 196.4505
" />
<path d="M265.5295 196.4505
L265.5295 196.5933
" />
<path d="M265.5295 195.6648
L265.6009 195.7362
" />
<path d="M265.6009 195.7362
L265.5295 195.8076
" />
<path d="M265.5295 195.8076
L265.4580 195.7362
" />
<path d="M265.4580 195.7362
L265.5295 195.6648
" />
<path d="M265.5295 195.6648
L265.5295 195.8076
" />
<path d="M268.1723 196.5933
L267.3152 196.5933
" />
<path d="M267.7437 196.5933
L267.7437 195.0933
" />
<path d="M267.7437 195.0933
L267.6009 195.3076
" />
<path d="M267.6009 195.3076
L267.4580 195.4505
" />
<path d="M267.4580 195.4505
L267.3152 195.5219
" />
<path d="M269.8866 195.0219
L268.6009 196.9505
" />
<path d="M271.1723 196.5933
L270.3152 196.5933
" />
<path d="M270.7437 196.5933
L270.7437 195.0933
" />
<path d="M270.7437 195.0933
L270.6009 195.3076
" />
<path d="M270.6009 195.3076
L270.4580 195.4505
" />
<path d="M270.4580 195.4505
L270.3152 195.5219
" />
</g></g>
<g style="fill:none; 
stroke:#000000; stroke-width:0.1500; stroke-opacity:1; 
stroke-linecap:round; stroke-linejoin:round;">
<path d="M177.0022 187.5072
L285.0022 187.5072
" />
</g>
<g style="fill:none; 
stroke:#000000; stroke-width:0.4000; stroke-opacity:1; 
stroke-linecap:round; stroke-linejoin:round;">
<text x="178.0022" y="190.3072"
textLength="9.6571" font-size="2.6667" lengthAdjust="spacingAndGlyphs"
text-anchor="start" opacity="0" stroke-opacity="0">Title: </text>
<g class="stroked-text"><desc>Title: </desc>
<path d="M178.6939 188.2116
L179.8368 188.2116
" />
<path d="M179.0154 190.2116
L179.2654 188.2116
" />
<path d="M180.2535 190.2116
L180.4201 188.8783
" />
<path d="M180.5035 188.2116
L180.3963 188.3069
" />
<path d="M180.3963 188.3069
L180.4796 188.4021
" />
<path d="M180.4796 188.4021
L180.5868 188.3069
" />
<path d="M180.5868 188.3069
L180.5035 188.2116
" />
<path d="M180.5035 188.2116
L180.4796 188.4021
" />
<path d="M181.0868 188.8783
L181.8487 188.8783
" />
<path d="M181.4558 188.2116
L181.2415 189.9259
" />
<path d="M181.2415 189.9259
L181.3130 190.1164
" />
<path d="M181.3130 190.1164
L181.4915 190.2116
" />
<path d="M181.4915 190.2116
L181.6820 190.2116
" />
<path d="M182.6344 190.2116
L182.4558 190.1164
" />
<path d="M182.4558 190.1164
L182.3844 189.9259
" />
<path d="M182.3844 189.9259
L182.5987 188.2116
" />
<path d="M184.1701 190.1164
L183.9677 190.2116
" />
<path d="M183.9677 190.2116
L183.5868 190.2116
" />
<path d="M183.5868 190.2116
L183.4082 190.1164
" />
<path d="M183.4082 190.1164
L183.3368 189.9259
" />
<path d="M183.3368 189.9259
L183.4320 189.1640
" />
<path d="M183.4320 189.1640
L183.5511 188.9735
" />
<path d="M183.5511 188.9735
L183.7535 188.8783
" />
<path d="M183.7535 188.8783
L184.1344 188.8783
" />
<path d="M184.1344 188.8783
L184.3130 188.9735
" />
<path d="M184.3130 188.9735
L184.3844 189.1640
" />
<path d="M184.3844 189.1640
L184.3606 189.3545
" />
<path d="M184.3606 189.3545
L183.3844 189.5450
" />
<path d="M185.1344 190.0212
L185.2177 190.1164
" />
<path d="M185.2177 190.1164
L185.1106 190.2116
" />
<path d="M185.1106 190.2116
L185.0273 190.1164
" />
<path d="M185.0273 190.1164
L185.1344 190.0212
" />
<path d="M185.1344 190.0212
L185.1106 190.2116
" />
<path d="M185.2654 188.9735
L185.3487 189.0688
" />
<path d="M185.3487 189.0688
L185.2415 189.1640
" />
<path d="M185.2415 189.1640
L185.1582 189.0688
" />
<path d="M185.1582 189.0688
L185.2654 188.9735
" />
<path d="M185.2654 188.9735
L185.2415 189.1640
" />
</g></g>
<g style="fill:none; 
stroke:#000000; stroke-width:0.1500; stroke-opacity:1; 
stroke-linecap:round; stroke-linejoin:round;">
<text x="178.0022" y="186.4572"
textLength="28.8643" font-size="2.0000" lengthAdjust="spacingAndGlyphs"
text-anchor="start" opacity="0" stroke-opacity="0">File: macropad.kicad_pcb</text>
<g class="stroked-text"><desc>File: macropad.kicad_pcb</desc>
<path d="M178.9580 185.6076
L178.4580 185.6076
" />
<path d="M178.4580 186.3933
L178.4580 184.8933
" />
<path d="M178.4580 184.8933
L179.1723 184.8933
" />
<path d="M179.7437 186.3933
L179.7437 185.3933
" />
<path d="M179.7437 184.8933
L179.6723 184.9648
" />
<path d="M179.6723 184.9648
L179.7437 185.0362
" />
<path d="M179.7437 185.0362
L179.8152 184.9648
" />
<path d="M179.8152 184.9648
L179.7437 184.8933
" />
<path d="M179.7437 184.8933
L179.7437 185.0362
" />
<path d="M180.6723 186.3933
L180.5295 186.3219
" />
<path d="M180.5295 186.3219
L180.4580 186.1790
" />
<path d="M180.4580 186.1790
L180.4580 184.8933
" />
<path d="M181.8152 186.3219
L181.6723 186.3933
" />
<path d="M181.6723 186.3933
L181.3866 186.3933
" />
<path d="M181.3866 186.3933
L181.2437 186.3219
" />
<path d="M181.2437 186.3219
L181.1723 186.1790
" />
<path d="M181.1723 186.1790
L181.1723 185.6076
" />
<path d="M181.1723 185.6076
L181.2437 185.4648
" />
<path d="M181.2437 185.4648
L181.3866 185.3933
" />
<path d="M181.3866 185.3933
L181.6723 185.3933
" />
<path d="M181.6723 185.3933
L181.8152 185.4648
" />
<path d="M181.8152 185.4648
L181.8866 185.6076
" />
<path d="M181.8866 185.6076
L181.8866 185.7505
" />
<path d="M181.8866 185.7505
L181.1723 185.8933
" />
<path d="M182.5295 186.2505
L182.6009 186.3219
" />
<path d="M182.6009 186.3219
L182.5295 186.3933
" />
<path d="M182.5295 186.3933
L182.4580 186.3219
" />
<path d="M182.4580 186.3219
L182.5295 186.2505
" />
<path d="M182.5295 186.2505
L182.5295 186.3933
" />
<path d="M182.5295 185.4648
L182.6009 185.5362
" />
<path d="M182.6009 185.5362
L182.5295 185.6076
" />
<path d="M182.5295 185.6076
L182.4580 185.5362
" />
<path d="M182.4580 185.5362
L182.5295 185.4648
" />
<path d="M182.5295 185.4648
L182.5295 185.6076
" />
<path d="M184.3866 186.3933
L184.3866 185.3933
" />
<path d="M184.3866 185.5362
L184.4580 185.4648
" />
<path d="M184.4580 185.4648
L184.6009 185.3933
" />
<path d="M184.6009 185.3933
L184.8152 185.3933
" />
<path d="M184.8152 185.3933
L184.9580 185.4648
" />
<path d="M184.9580 185.4648
L185.0295 185.6076
" />
<path d="M185.0295 185.6076
L185.0295 186.3933
" />
<path d="M185.0295 185.6076
L185.1009 185.4648
" />
<path d="M185.1009 185.4648
L185.2437 185.3933
" />
<path d="M185.2437 185.3933
L185.4580 185.3933
" />
<path d="M185.4580 185.3933
L185.6009 185.4648
" />
<path d="M185.6009 185.4648
L185.6723 185.6076
" />
<path d="M185.6723 185.6076
L185.6723 186.3933
" />
<path d="M187.0295 186.3933
L187.0295 185.6076
" />
<path d="M187.0295 185.6076
L186.9580 185.4648
" />
<path d="M186.9580 185.4648
L186.8152 185.3933
" />
<path d="M186.8152 185.3933
L186.5295 185.3933
" />
<path d="M186.5295 185.3933
L186.3866 185.4648
" />
<path d="M187.0295 186.3219
L186.8866 186.3933
" />
<path d="M186.8866 186.3933
L186.5295 186.3933
" />
<path d="M186.5295 186.3933
L186.3866 186.3219
" />
<path d="M186.3866 186.3219
L186.3152 186.1790
" />
<path d="M186.3152 186.1790
L186.3152 186.0362
" />
<path d="M186.3152 186.0362
L186.3866 185.8933
" />
<path d="M186.3866 185.8933
L186.5295 185.8219
" />
<path d="M186.5295 185.8219
L186.8866 185.8219
" />
<path d="M186.8866 185.8219
L187.0295 185.7505
" />
<path d="M188.3866 186.3219
L188.2437 186.3933
" />
<path d="M188.2437 186.3933
L187.9580 186.3933
" />
<path d="M187.9580 186.3933
L187.8152 186.3219
" />
<path d="M187.8152 186.3219
L187.7437 186.2505
" />
<path d="M187.7437 186.2505
L187.6723 186.1076
" />
<path d="M187.6723 186.1076
L187.6723 185.6790
" />
<path d="M187.6723 185.6790
L187.7437 185.5362
" />
<path d="M187.7437 185.5362
L187.8152 185.4648
" />
<path d="M187.8152 185.4648
L187.9580 185.3933
" />
<path d="M187.9580 185.3933
L188.2437 185.3933
" />
<path d="M188.2437 185.3933
L188.3866 185.4648
" />
<path d="M189.0295 186.3933
L189.0295 185.3933
" />
<path d="M189.0295 185.6790
L189.1009 185.5362
" />
<path d="M189.1009 185.5362
L189.1723 185.4648
" />
<path d="M189.1723 185.4648
L189.3152 185.3933
" />
<path d="M189.3152 185.3933
L189.4580 185.3933
" />
<path d="M190.1723 186.3933
L190.0295 186.3219
" />
<path d="M190.0295 186.3219
L189.9580 186.2505
" />
<path d="M189.9580 186.2505
L189.8866 186.1076
" />
<path d="M189.8866 186.1076
L189.8866 185.6790
" />
<path d="M189.8866 185.6790
L189.9580 185.5362
" />
<path d="M189.9580 185.5362
L190.0295 185.4648
" />
<path d="M190.0295 185.4648
L190.1723 185.3933
" />
<path d="M190.1723 185.3933
L190.3866 185.3933
" />
<path d="M190.3866 185.3933
L190.5295 185.4648
" />
<path d="M190.5295 185.4648
L190.6009 185.5362
" />
<path d="M190.6009 185.5362
L190.6723 185.6790
" />
<path d="M190.6723 185.6790
L190.6723 186.1076
" />
<path d="M190.6723 186.1076
L190.6009 186.2505
" />
<path d="M190.6009 186.2505
L190.5295 186.3219
" />
<path d="M190.5295 186.3219
L190.3866 186.3933
" />
<path d="M190.3866 186.3933
L190.1723 186.3933
" />
<path d="M191.3152 185.3933
L191.3152 186.8933
" />
<path d="M191.3152 185.4648
L191.4580 185.3933
" />
<path d="M191.4580 185.3933
L191.7437 185.3933
" />
<path d="M191.7437 185.3933
L191.8866 185.4648
" />
<path d="M191.8866 185.4648
L191.9580 185.5362
" />
<path d="M191.9580 185.5362
L192.0295 185.6790
" />
<path d="M192.0295 185.6790
L192.0295 186.1076
" />
<path d="M192.0295 186.1076
L191.9580 186.2505
" />
<path d="M191.9580 186.2505
L191.8866 186.3219
" />
<path d="M191.8866 186.3219
L191.7437 186.3933
" />
<path d="M191.7437 186.3933
L191.4580 186.3933
" />
<path d="M191.4580 186.3933
L191.3152 186.3219
" />
<path d="M193.3152 186.3933
L193.3152 185.6076
" />
<path d="M193.3152 185.6076
L193.2437 185.4648
" />
<path d="M193.2437 185.4648
L193.1009 185.3933
" />
<path d="M193.1009 185.3933
L192.8152 185.3933
" />
<path d="M192.8152 185.3933
L192.6723 185.4648
" />
<path d="M193.3152 186.3219
L193.1723 186.3933
" />
<path d="M193.1723 186.3933
L192.8152 186.3933
" />
<path d="M192.8152 186.3933
L192.6723 186.3219
" />
<path d="M192.6723 186.3219
L192.6009 186.1790
" />
<path d="M192.6009 186.1790
L192.6009 186.0362
" />
<path d="M192.6009 186.0362
L192.6723 185.8933
" />
<path d="M192.6723 185.8933
L192.8152 185.8219
" />
<path d="M192.8152 185.8219
L193.1723 185.8219
" />
<path d="M193.1723 185.8219
L193.3152 185.7505
" />
<path d="M194.6723 186.3933
L194.6723 184.8933
" />
<path d="M194.6723 186.3219
L194.5295 186.3933
" />
<path d="M194.5295 186.3933
L194.2437 186.3933
" />
<path d="M194.2437 186.3933
L194.1009 186.3219
" />
<path d="M194.1009 186.3219
L194.0295 186.2505
" />
<path d="M194.0295 186.2505
L193.9580 186.1076
" />
<path d="M193.9580 186.1076
L193.9580 185.6790
" />
<path d="M193.9580 185.6790
L194.0295 185.5362
" />
<path d="M194.0295 185.5362
L194.1009 185.4648
" />
<path d="M194.1009 185.4648
L194.2437 185.3933
" />
<path d="M194.2437 185.3933
L194.5295 185.3933
" />
<path d="M194.5295 185.3933
L194.6723 185.4648
" />
<path d="M195.3866 186.2505
L195.4580 186.3219
" />
<path d="M195.4580 186.3219
L195.3866 186.3933
" />
<path d="M195.3866 186.3933
L195.3152 186.3219
" />
<path d="M195.3152 186.3219
L195.3866 186.2505
" />
<path d="M195.3866 186.2505
L195.3866 186.3933
" />
<path d="M196.1009 186.3933
L196.1009 184.8933
" />
<path d="M196.2437 185.8219
L196.6723 186.3933
" />
<path d="M196.6723 185.3933
L196.1009 185.9648
" />
<path d="M197.3152 186.3933
L197.3152 185.3933
" />
<path d="M197.3152 184.8933
L197.2437 184.9648
" />
<path d="M197.2437 184.9648
L197.3152 185.0362
" />
<path d="M197.3152 185.0362
L197.3866 184.9648
" />
<path d="M197.3866 184.9648
L197.3152 184.8933
" />
<path d="M197.3152 184.8933
L197.3152 185.0362
" />
<path d="M198.6723 186.3219
L198.5295 186.3933
" />
<path d="M198.5295 186.3933
L198.2437 186.3933
" />
<path d="M198.2437 186.3933
L198.1009 186.3219
" />
<path d="M198.1009 186.3219
L198.0295 186.2505
" />
<path d="M198.0295 186.2505
L197.9580 186.1076
" />
<path d="M197.9580 186.1076
L197.9580 185.6790
" />
<path d="M197.9580 185.6790
L198.0295 185.5362
" />
<path d="M198.0295 185.5362
L198.1009 185.4648
" />
<path d="M198.1009 185.4648
L198.2437 185.3933
" />
<path d="M198.2437 185.3933
L198.5295 185.3933
" />
<path d="M198.5295 185.3933
L198.6723 185.4648
" />
<path d="M199.9580 186.3933
L199.9580 185.6076
" />
<path d="M199.9580 185.6076
L199.8866 185.4648
" />
<path d="M199.8866 185.4648
L199.7437 185.3933
" />
<path d="M199.7437 185.3933
L199.4580 185.3933
" />
<path d="M199.4580 185.3933
L199.3152 185.4648
" />
<path d="M199.9580 186.3219
L199.8152 186.3933
" />
<path d="M199.8152 186.3933
L199.4580 186.3933
" />
<path d="M199.4580 186.3933
L199.3152 186.3219
" />
<path d="M199.3152 186.3219
L199.2437 186.1790
" />
<path d="M199.2437 186.1790
L199.2437 186.0362
" />
<path d="M199.2437 186.0362
L199.3152 185.8933
" />
<path d="M199.3152 185.8933
L199.4580 185.8219
" />
<path d="M199.4580 185.8219
L199.8152 185.8219
" />
<path d="M199.8152 185.8219
L199.9580 185.7505
" />
<path d="M201.3152 186.3933
L201.3152 184.8933
" />
<path d="M201.3152 186.3219
L201.1723 186.3933
" />
<path d="M201.1723 186.3933
L200.8866 186.3933
" />
<path d="M200.8866 186.3933
L200.7437 186.3219
" />
<path d="M200.7437 186.3219
L200.6723 186.2505
" />
<path d="M200.6723 186.2505
L200.6009 186.1076
" />
<path d="M200.6009 186.1076
L200.6009 185.6790
" />
<path d="M200.6009 185.6790
L200.6723 185.5362
" />
<path d="M200.6723 185.5362
L200.7437 185.4648
" />
<path d="M200.7437 185.4648
L200.8866 185.3933
" />
<path d="M200.8866 185.3933
L201.1723 185.3933
" />
<path d="M201.1723 185.3933
L201.3152 185.4648
" />
<path d="M201.6723 186.5362
L202.8152 186.5362
" />
<path d="M203.1723 185.3933
L203.1723 186.8933
" />
<path d="M203.1723 185.4648
L203.3152 185.3933
" />
<path d="M203.3152 185.3933
L203.6009 185.3933
" />
<path d="M203.6009 185.3933
L203.7437 185.4648
" />
<path d="M203.7437 185.4648
L203.8152 185.5362
" />
<path d="M203.8152 185.5362
L203.8866 185.6790
" />
<path d="M203.8866 185.6790
L203.8866 186.1076
" />
<path d="M203.8866 186.1076
L203.8152 186.2505
" />
<path d="M203.8152 186.2505
L203.7437 186.3219
" />
<path d="M203.7437 186.3219
L203.6009 186.3933
" />
<path d="M203.6009 186.3933
L203.3152 186.3933
" />
<path d="M203.3152 186.3933
L203.1723 186.3219
" />
<path d="M205.1723 186.3219
L205.0295 186.3933
" />
<path d="M205.0295 186.3933
L204.7437 186.3933
" />
<path d="M204.7437 186.3933
L204.6009 186.3219
" />
<path d="M204.6009 186.3219
L204.5295 186.2505
" />
<path d="M204.5295 186.2505
L204.4580 186.1076
" />
<path d="M204.4580 186.1076
L204.4580 185.6790
" />
<path d="M204.4580 185.6790
L204.5295 185.5362
" />
<path d="M204.5295 185.5362
L204.6009 185.4648
" />
<path d="M204.6009 185.4648
L204.7437 185.3933
" />
<path d="M204.7437 185.3933
L205.0295 185.3933
" />
<path d="M205.0295 185.3933
L205.1723 185.4648
" />
<path d="M205.8152 186.3933
L205.8152 184.8933
" />
<path d="M205.8152 185.4648
L205.9580 185.3933
" />
<path d="M205.9580 185.3933
L206.2437 185.3933
" />
<path d="M206.2437 185.3933
L206.3866 185.4648
" />
<path d="M206.3866 185.4648
L206.4580 185.5362
" />
<path d="M206.4580 185.5362
L206.5295 185.6790
" />
<path d="M206.5295 185.6790
L206.5295 186.1076
" />
<path d="M206.5295 186.1076
L206.4580 186.2505
" />
<path d="M206.4580 186.2505
L206.3866 186.3219
" />
<path d="M206.3866 186.3219
L206.2437 186.3933
" />
<path d="M206.2437 186.3933
L205.9580 186.3933
" />
<path d="M205.9580 186.3933
L205.8152 186.3219
" />
</g></g>
<g style="fill:none; 
stroke:#000000; stroke-width:0.1500; stroke-opacity:1; 
stroke-linecap:round; stroke-linejoin:round;">
<path d="M177.0022 181.5072
L285.0022 181.5072
" />
</g>
<g style="fill:none; 
stroke:#000000; stroke-width:0.1500; stroke-opacity:1; 
stroke-linecap:round; stroke-linejoin:round;">
<text x="178.0022" y="183.7572"
textLength="8.2214" font-size="2.0000" lengthAdjust="spacingAndGlyphs"
text-anchor="start" opacity="0" stroke-opacity="0">Sheet: </text>
<g class="stroked-text"><desc>Sheet: </desc>
<path d="M178.3866 183.6219
L178.6009 183.6933
" />
<path d="M178.6009 183.6933
L178.9580 183.6933
" />
<path d="M178.9580 183.6933
L179.1009 183.6219
" />
<path d="M179.1009 183.6219
L179.1723 183.5505
" />
<path d="M179.1723 183.5505
L179.2437 183.4076
" />
<path d="M179.2437 183.4076
L179.2437 183.2648
" />
<path d="M179.2437 183.2648
L179.1723 183.1219
" />
<path d="M179.1723 183.1219
L179.1009 183.0505
" />
<path d="M179.1009 183.0505
L178.9580 182.9790
" />
<path d="M178.9580 182.9790
L178.6723 182.9076
" />
<path d="M178.6723 182.9076
L178.5295 182.8362
" />
<path d="M178.5295 182.8362
L178.4580 182.7648
" />
<path d="M178.4580 182.7648
L178.3866 182.6219
" />
<path d="M178.3866 182.6219
L178.3866 182.4790
" />
<path d="M178.3866 182.4790
L178.4580 182.3362
" />
<path d="M178.4580 182.3362
L178.5295 182.2648
" />
<path d="M178.5295 182.2648
L178.6723 182.1933
" />
<path d="M178.6723 182.1933
L179.0295 182.1933
" />
<path d="M179.0295 182.1933
L179.2437 182.2648
" />
<path d="M179.8866 183.6933
L179.8866 182.1933
" />
<path d="M180.5295 183.6933
L180.5295 182.9076
" />
<path d="M180.5295 182.9076
L180.4580 182.7648
" />
<path d="M180.4580 182.7648
L180.3152 182.6933
" />
<path d="M180.3152 182.6933
L180.1009 182.6933
" />
<path d="M180.1009 182.6933
L179.9580 182.7648
" />
<path d="M179.9580 182.7648
L179.8866 182.8362
" />
<path d="M181.8152 183.6219
L181.6723 183.6933
" />
<path d="M181.6723 183.6933
L181.3866 183.6933
" />
<path d="M181.3866 183.6933
L181.2437 183.6219
" />
<path d="M181.2437 183.6219
L181.1723 183.4790
" />
<path d="M181.1723 183.4790
L181.1723 182.9076
" />
<path d="M181.1723 182.9076
L181.2437 182.7648
" />
<path d="M181.2437 182.7648
L181.3866 182.6933
" />
<path d="M181.3866 182.6933
L181.6723 182.6933
" />
<path d="M181.6723 182.6933
L181.8152 182.7648
" />
<path d="M181.8152 182.7648
L181.8866 182.9076
" />
<path d="M181.8866 182.9076
L181.8866 183.0505
" />
<path d="M181.8866 183.0505
L181.1723 183.1933
" />
<path d="M183.1009 183.6219
L182.9580 183.6933
" />
<path d="M182.9580 183.6933
L182.6723 183.6933
" />
<path d="M182.6723 183.6933
L182.5295 183.6219
" />
<path d="M182.5295 183.6219
L182.4580 183.4790
" />
<path d="M182.4580 183.4790
L182.4580 182.9076
" />
<path d="M182.4580 182.9076
L182.5295 182.7648
" />
<path d="M182.5295 182.7648
L182.6723 182.6933
" />
<path d="M182.6723 182.6933
L182.9580 182.6933
" />
<path d="M182.9580 182.6933
L183.1009 182.7648
" />
<path d="M183.1009 182.7648
L183.1723 182.9076
" />
<path d="M183.1723 182.9076
L183.1723 183.0505
" />
<path d="M183.1723 183.0505
L182.4580 183.1933
" />
<path d="M183.6009 182.6933
L184.1723 182.6933
" />
<path d="M183.8152 182.1933
L183.8152 183.4790
" />
<path d="M183.8152 183.4790
L183.8866 183.6219
" />
<path d="M183.8866 183.6219
L184.0295 183.6933
" />
<path d="M184.0295 183.6933
L184.1723 183.6933
" />
<path d="M184.6723 183.5505
L184.7437 183.6219
" />
<path d="M184.7437 183.6219
L184.6723 183.6933
" />
<path d="M184.6723 183.6933
L184.6009 183.6219
" />
<path d="M184.6009 183.6219
L184.6723 183.5505
" />
<path d="M184.6723 183.5505
L184.6723 183.6933
" />
<path d="M184.6723 182.7648
L184.7437 182.8362
" />
<path d="M184.7437 182.8362
L184.6723 182.9076
" />
<path d="M184.6723 182.9076
L184.6009 182.8362
" />
<path d="M184.6009 182.8362
L184.6723 182.7648
" />
<path d="M184.6723 182.7648
L184.6723 182.9076
" />
</g></g>
<g style="fill:none; 
stroke:#000000; stroke-width:0.3000; stroke-opacity:1; 
stroke-linecap:round; stroke-linejoin:round;">
<text x="178.0022" y="180.7572"
textLength="0.9000" font-size="2.0000" lengthAdjust="spacingAndGlyphs"
text-anchor="start" opacity="0" stroke-opacity="0"></text>
<g class="stroked-text"><desc></desc>
</g></g>
<g style="fill:none; 
stroke:#000000; stroke-width:0.1500; stroke-opacity:1; 
stroke-linecap:round; stroke-linejoin:round;">
<text x="178.0022" y="177.7572"
textLength="0.4500" font-size="2.0000" lengthAdjust="spacingAndGlyphs"
text-anchor="start" opacity="0" stroke-opacity="0"></text>
<g class="stroked-text"><desc></desc>
</g></g>
<g style="fill:none; 
stroke:#000000; stroke-width:0.1500; stroke-opacity:1; 
stroke-linecap:round; stroke-linejoin:round;">
<text x="178.0022" y="174.7572"
textLength="0.4500" font-size="2.0000" lengthAdjust="spacingAndGlyphs"
text-anchor="start" opacity="0" stroke-opacity="0"></text>
<g class="stroked-text"><desc></desc>
</g></g>
<g style="fill:none; 
stroke:#000000; stroke-width:0.1500; stroke-opacity:1; 
stroke-linecap:round; stroke-linejoin:round;">
<text x="178.0022" y="171.7572"
textLength="0.4500" font-size="2.0000" lengthAdjust="spacingAndGlyphs"
text-anchor="start" opacity="0" stroke-opacity="0"></text>
<g class="stroked-text"><desc></desc>
</g></g>
<g style="fill:none; 
stroke:#000000; stroke-width:0.1500; stroke-opacity:1; 
stroke-linecap:round; stroke-linejoin:round;">
<text x="178.0022" y="168.7572"
textLength="0.4500" font-size="2.0000" lengthAdjust="spacingAndGlyphs"
text-anchor="start" opacity="0" stroke-opacity="0"></text>
<g class="stroked-text"><desc></desc>
</g></g>
<g style="fill:none; 
stroke:#000000; stroke-width:0.1500; stroke-opacity:1; 
stroke-linecap:round; stroke-linejoin:round;">
<path d="M197.0022 191.5072
L197.0022 194.5072
" />
</g>
<g style="fill:none; 
stroke:#000000; stroke-width:0.1500; stroke-opacity:1; 
stroke-linecap:round; stroke-linejoin:round;">
<path d="M261.0022 191.5072
L261.0022 198.0072
" />
</g>
<g style="fill:none; 
stroke:#008484; stroke-width:0.1500; stroke-opacity:1; 
stroke-linecap:round; stroke-linejoin:round;">
<text x="265.9800" y="97.8350"
textLength="2.2024" font-size="1.3333" lengthAdjust="spacingAndGlyphs"
text-anchor="middle" opacity="0" stroke-opacity="0">D6</text>
<g class="stroked-text"><desc>D6</desc>
<path d="M265.2419 97.7898
L265.2419 96.7898
" />
<path d="M265.2419 96.7898
L265.4800 96.7898
" />
<path d="M265.4800 96.7898
L265.6229 96.8374
" />
<path d="M265.6229 96.8374
L265.7181 96.9327
" />
<path d="M265.7181 96.9327
L265.7657 97.0279
" />
<path d="M265.7657 97.0279
L265.8133 97.2184
" />
<path d="M265.8133 97.2184
L265.8133 97.3612
" />
<path d="M265.8133 97.3612
L265.7657 97.5517
" />
<path d="M265.7657 97.5517
L265.7181 97.6470
" />
<path d="M265.7181 97.6470
L265.6229 97.7422
" />
<path d="M265.6229 97.7422
L265.4800 97.7898
" />
<path d="M265.4800 97.7898
L265.2419 97.7898
" />
<path d="M266.6705 96.7898
L266.4800 96.7898
" />
<path d="M266.4800 96.7898
L266.3848 96.8374
" />
<path d="M266.3848 96.8374
L266.3371 96.8851
" />
<path d="M266.3371 96.8851
L266.2419 97.0279
" />
<path d="M266.2419 97.0279
L266.1943 97.2184
" />
<path d="M266.1943 97.2184
L266.1943 97.5993
" />
<path d="M266.1943 97.5993
L266.2419 97.6946
" />
<path d="M266.2419 97.6946
L266.2895 97.7422
" />
<path d="M266.2895 97.7422
L266.3848 97.7898
" />
<path d="M266.3848 97.7898
L266.5752 97.7898
" />
<path d="M266.5752 97.7898
L266.6705 97.7422
" />
<path d="M266.6705 97.7422
L266.7181 97.6946
" />
<path d="M266.7181 97.6946
L266.7657 97.5993
" />
<path d="M266.7657 97.5993
L266.7657 97.3612
" />
<path d="M266.7657 97.3612
L266.7181 97.2660
" />
<path d="M266.7181 97.2660
L266.6705 97.2184
" />
<path d="M266.6705 97.2184
L266.5752 97.1708
" />
<path d="M266.5752 97.1708
L266.3848 97.1708
" />
<path d="M266.3848 97.1708
L266.2895 97.2184
" />
<path d="M266.2895 97.2184
L266.2419 97.2660
" />
<path d="M266.2419 97.2660
L266.1943 97.3612
" />
</g><text x="262.7800" y="99.6100"
textLength="1.0519" font-size="1.0667" lengthAdjust="spacingAndGlyphs"
text-anchor="middle" opacity="0" stroke-opacity="0">1</text>
<g class="stroked-text"><desc>1</desc>
<path d="M263.0086 99.5723
L262.5514 99.5723
" />
<path d="M262.7800 99.5723
L262.7800 98.7723
" />
<path d="M262.7800 98.7723
L262.7038 98.8866
" />
<path d="M262.7038 98.8866
L262.6276 98.9628
" />
<path d="M262.6276 98.9628
L262.5514 99.0009
" />
</g><g transform="rotate(-73.825000 257.1900 117.2200)">
<text x="257.1900" y="117.7200"
textLength="2.2024" font-size="1.3333" lengthAdjust="spacingAndGlyphs"
text-anchor="middle" opacity="0" stroke-opacity="0">D5</text>
</g>
<g class="stroked-text"><desc>D5</desc>
<path d="M257.4212 118.0556
L256.4608 117.7770
" />
<path d="M256.4608 117.7770
L256.5271 117.5483
" />
<path d="M256.5271 117.5483
L256.6126 117.4244
" />
<path d="M256.6126 117.4244
L256.7306 117.3595
" />
<path d="M256.7306 117.3595
L256.8354 117.3403
" />
<path d="M256.8354 117.3403
L257.0316 117.3476
" />
<path d="M257.0316 117.3476
L257.1688 117.3874
" />
<path d="M257.1688 117.3874
L257.3384 117.4862
" />
<path d="M257.3384 117.4862
L257.4167 117.5584
" />
<path d="M257.4167 117.5584
L257.4816 117.6764
" />
<path d="M257.4816 117.6764
L257.4875 117.8269
" />
<path d="M257.4875 117.8269
L257.4212 118.0556
" />
<path d="M256.8720 116.3592
L256.7394 116.8166
" />
<path d="M256.7394 116.8166
L257.1834 116.9950
" />
<path d="M257.1834 116.9950
L257.1510 116.9360
" />
<path d="M257.1510 116.9360
L257.1318 116.8312
" />
<path d="M257.1318 116.8312
L257.1981 116.6026
" />
<path d="M257.1981 116.6026
L257.2704 116.5244
" />
<path d="M257.2704 116.5244
L257.3294 116.4919
" />
<path d="M257.3294 116.4919
L257.4341 116.4727
" />
<path d="M257.4341 116.4727
L257.6628 116.5390
" />
<path d="M257.6628 116.5390
L257.7410 116.6113
" />
<path d="M257.7410 116.6113
L257.7734 116.6703
" />
<path d="M257.7734 116.6703
L257.7926 116.7750
" />
<path d="M257.7926 116.7750
L257.7263 117.0037
" />
<path d="M257.7263 117.0037
L257.6540 117.0819
" />
<path d="M257.6540 117.0819
L257.5950 117.1144
" />
</g><g transform="rotate(-253.825000 256.7641 111.5617)">
<text x="256.7641" y="111.9617"
textLength="1.0519" font-size="1.0667" lengthAdjust="spacingAndGlyphs"
text-anchor="middle" opacity="0" stroke-opacity="0">1</text>
</g>
<g class="stroked-text"><desc>1</desc>
<path d="M256.3525 111.6803
L256.4798 111.2413
" />
<path d="M256.4162 111.4608
L257.1845 111.6837
" />
<path d="M257.1845 111.6837
L257.0960 111.5787
" />
<path d="M257.0960 111.5787
L257.0440 111.4843
" />
<path d="M257.0440 111.4843
L257.0287 111.4005
" />
</g><g transform="rotate(38.447000 240.4400 57.7700)">
<text x="240.4400" y="58.2700"
textLength="2.2024" font-size="1.3333" lengthAdjust="spacingAndGlyphs"
text-anchor="middle" opacity="0" stroke-opacity="0">D4</text>
</g>
<g class="stroked-text"><desc>D4</desc>
<path d="M239.5791 57.6673
L240.2009 56.8841
" />
<path d="M240.2009 56.8841
L240.3874 57.0321
" />
<path d="M240.3874 57.0321
L240.4697 57.1582
" />
<path d="M240.4697 57.1582
L240.4850 57.2921
" />
<path d="M240.4850 57.2921
L240.4631 57.3963
" />
<path d="M240.4631 57.3963
L240.3820 57.5750
" />
<path d="M240.3820 57.5750
L240.2931 57.6869
" />
<path d="M240.2931 57.6869
L240.1374 57.8065
" />
<path d="M240.1374 57.8065
L240.0409 57.8515
" />
<path d="M240.0409 57.8515
L239.9071 57.8668
" />
<path d="M239.9071 57.8668
L239.7656 57.8153
" />
<path d="M239.7656 57.8153
L239.5791 57.6673
" />
<path d="M241.1125 58.0334
L240.6980 58.5555
" />
<path d="M241.1629 57.5870
L240.5323 57.9984
" />
<path d="M240.5323 57.9984
L241.0171 58.3833
" />
</g><g transform="rotate(-321.553000 235.2079 55.9025)">
<text x="235.2079" y="56.3025"
textLength="1.0519" font-size="1.0667" lengthAdjust="spacingAndGlyphs"
text-anchor="middle" opacity="0" stroke-opacity="0">1</text>
</g>
<g class="stroked-text"><desc>1</desc>
<path d="M235.1616 56.3284
L234.8036 56.0441
" />
<path d="M234.9826 56.1862
L235.4800 55.5597
" />
<path d="M235.4800 55.5597
L235.3493 55.6018
" />
<path d="M235.3493 55.6018
L235.2423 55.6141
" />
<path d="M235.2423 55.6141
L235.1589 55.5966
" />
</g><g transform="rotate(11.297000 217.2500 45.9200)">
<text x="217.2500" y="46.4200"
textLength="2.2024" font-size="1.3333" lengthAdjust="spacingAndGlyphs"
text-anchor="middle" opacity="0" stroke-opacity="0">D3</text>
</g>
<g class="stroked-text"><desc>D3</desc>
<path d="M216.4371 46.2214
L216.6330 45.2408
" />
<path d="M216.6330 45.2408
L216.8665 45.2874
" />
<path d="M216.8665 45.2874
L216.9972 45.3621
" />
<path d="M216.9972 45.3621
L217.0720 45.4742
" />
<path d="M217.0720 45.4742
L217.1000 45.5769
" />
<path d="M217.1000 45.5769
L217.1094 45.7730
" />
<path d="M217.1094 45.7730
L217.0814 45.9131
" />
<path d="M217.0814 45.9131
L216.9974 46.0905
" />
<path d="M216.9974 46.0905
L216.9321 46.1746
" />
<path d="M216.9321 46.1746
L216.8200 46.2493
" />
<path d="M216.8200 46.2493
L216.6706 46.2681
" />
<path d="M216.6706 46.2681
L216.4371 46.2214
" />
<path d="M217.5202 45.4180
L218.1273 45.5393
" />
<path d="M218.1273 45.5393
L217.7258 45.8476
" />
<path d="M217.7258 45.8476
L217.8659 45.8756
" />
<path d="M217.8659 45.8756
L217.9499 45.9409
" />
<path d="M217.9499 45.9409
L217.9873 45.9969
" />
<path d="M217.9873 45.9969
L218.0153 46.0997
" />
<path d="M218.0153 46.0997
L217.9687 46.3331
" />
<path d="M217.9687 46.3331
L217.9034 46.4172
" />
<path d="M217.9034 46.4172
L217.8473 46.4546
" />
<path d="M217.8473 46.4546
L217.7446 46.4826
" />
<path d="M217.7446 46.4826
L217.4644 46.4266
" />
<path d="M217.4644 46.4266
L217.3804 46.3613
" />
<path d="M217.3804 46.3613
L217.3430 46.3053
" />
</g><g transform="rotate(-348.703000 211.7569 46.7135)">
<text x="211.7569" y="47.1135"
textLength="1.0519" font-size="1.0667" lengthAdjust="spacingAndGlyphs"
text-anchor="middle" opacity="0" stroke-opacity="0">1</text>
</g>
<g class="stroked-text"><desc>1</desc>
<path d="M211.9100 47.1136
L211.4618 47.0240
" />
<path d="M211.6859 47.0688
L211.8426 46.2843
" />
<path d="M211.8426 46.2843
L211.7455 46.3814
" />
<path d="M211.7455 46.3814
L211.6559 46.4412
" />
<path d="M211.6559 46.4412
L211.5737 46.4636
" />
</g><g transform="rotate(-13.055000 193.8300 45.4100)">
<text x="193.8300" y="45.9100"
textLength="2.2024" font-size="1.3333" lengthAdjust="spacingAndGlyphs"
text-anchor="middle" opacity="0" stroke-opacity="0">D2</text>
</g>
<g class="stroked-text"><desc>D2</desc>
<path d="M193.2137 46.0198
L192.9878 45.0456
" />
<path d="M192.9878 45.0456
L193.2198 44.9919
" />
<path d="M193.2198 44.9919
L193.3697 45.0060
" />
<path d="M193.3697 45.0060
L193.4840 45.0772
" />
<path d="M193.4840 45.0772
L193.5519 45.1593
" />
<path d="M193.5519 45.1593
L193.6413 45.3341
" />
<path d="M193.6413 45.3341
L193.6736 45.4732
" />
<path d="M193.6736 45.4732
L193.6702 45.6695
" />
<path d="M193.6702 45.6695
L193.6453 45.7731
" />
<path d="M193.6453 45.7731
L193.5741 45.8873
" />
<path d="M193.5741 45.8873
L193.4457 45.9660
" />
<path d="M193.4457 45.9660
L193.2137 46.0198
" />
<path d="M193.9371 44.9233
L193.9727 44.8661
" />
<path d="M193.9727 44.8661
L194.0548 44.7982
" />
<path d="M194.0548 44.7982
L194.2867 44.7445
" />
<path d="M194.2867 44.7445
L194.3902 44.7693
" />
<path d="M194.3902 44.7693
L194.4474 44.8050
" />
<path d="M194.4474 44.8050
L194.5153 44.8870
" />
<path d="M194.5153 44.8870
L194.5368 44.9798
" />
<path d="M194.5368 44.9798
L194.5227 45.1297
" />
<path d="M194.5227 45.1297
L194.0951 45.8154
" />
<path d="M194.0951 45.8154
L194.6981 45.6756
" />
</g><g transform="rotate(-13.055000 189.2311 48.3566)">
<text x="189.2311" y="48.7566"
textLength="1.0519" font-size="1.0667" lengthAdjust="spacingAndGlyphs"
text-anchor="middle" opacity="0" stroke-opacity="0">1</text>
</g>
<g class="stroked-text"><desc>1</desc>
<path d="M189.5356 48.6579
L189.0903 48.7612
" />
<path d="M189.3129 48.7095
L189.1322 47.9302
" />
<path d="M189.1322 47.9302
L189.0838 48.0588
" />
<path d="M189.0838 48.0588
L189.0268 48.1502
" />
<path d="M189.0268 48.1502
L188.9612 48.2045
" />
</g><g transform="rotate(-37.370000 172.4300 54.6000)">
<text x="172.4300" y="55.1000"
textLength="2.2024" font-size="1.3333" lengthAdjust="spacingAndGlyphs"
text-anchor="middle" opacity="0" stroke-opacity="0">D1</text>
</g>
<g class="stroked-text"><desc>D1</desc>
<path d="M172.1195 55.4095
L171.5125 54.6147
" />
<path d="M171.5125 54.6147
L171.7017 54.4702
" />
<path d="M171.7017 54.4702
L171.8442 54.4213
" />
<path d="M171.8442 54.4213
L171.9777 54.4392
" />
<path d="M171.9777 54.4392
L172.0733 54.4860
" />
<path d="M172.0733 54.4860
L172.2268 54.6085
" />
<path d="M172.2268 54.6085
L172.3135 54.7220
" />
<path d="M172.3135 54.7220
L172.3912 54.9023
" />
<path d="M172.3912 54.9023
L172.4112 55.0069
" />
<path d="M172.4112 55.0069
L172.3933 55.1404
" />
<path d="M172.3933 55.1404
L172.3087 55.2649
" />
<path d="M172.3087 55.2649
L172.1195 55.4095
" />
<path d="M173.3305 54.4846
L172.8764 54.8314
" />
<path d="M173.1034 54.6580
L172.4965 53.8632
" />
<path d="M172.4965 53.8632
L172.5075 54.0346
" />
<path d="M172.5075 54.0346
L172.4896 54.1681
" />
<path d="M172.4896 54.1681
L172.4428 54.2637
" />
</g><g transform="rotate(-37.370000 169.4258 59.2086)">
<text x="169.4258" y="59.6086"
textLength="1.0519" font-size="1.0667" lengthAdjust="spacingAndGlyphs"
text-anchor="middle" opacity="0" stroke-opacity="0">1</text>
</g>
<g class="stroked-text"><desc>1</desc>
<path d="M169.8273 59.3578
L169.4640 59.6353
" />
<path d="M169.6457 59.4965
L169.1601 58.8608
" />
<path d="M169.1601 58.8608
L169.1689 58.9978
" />
<path d="M169.1689 58.9978
L169.1546 59.1046
" />
<path d="M169.1546 59.1046
L169.1172 59.1811
" />
</g><g transform="rotate(11.297000 217.2425 35.5886)">
<text x="217.2425" y="36.0886"
textLength="3.2976" font-size="1.3333" lengthAdjust="spacingAndGlyphs"
text-anchor="middle" opacity="0" stroke-opacity="0">SW3</text>
</g>
<g class="stroked-text"><desc>SW3</desc>
<path d="M215.8552 35.7267
L215.9860 35.8014
" />
<path d="M215.9860 35.8014
L216.2195 35.8480
" />
<path d="M216.2195 35.8480
L216.3222 35.8200
" />
<path d="M216.3222 35.8200
L216.3782 35.7826
" />
<path d="M216.3782 35.7826
L216.4435 35.6985
" />
<path d="M216.4435 35.6985
L216.4622 35.6051
" />
<path d="M216.4622 35.6051
L216.4342 35.5024
" />
<path d="M216.4342 35.5024
L216.3968 35.4464
" />
<path d="M216.3968 35.4464
L216.3127 35.3810
" />
<path d="M216.3127 35.3810
L216.1353 35.2970
" />
<path d="M216.1353 35.2970
L216.0512 35.2317
" />
<path d="M216.0512 35.2317
L216.0138 35.1756
" />
<path d="M216.0138 35.1756
L215.9858 35.0729
" />
<path d="M215.9858 35.0729
L216.0045 34.9795
" />
<path d="M216.0045 34.9795
L216.0698 34.8955
" />
<path d="M216.0698 34.8955
L216.1258 34.8581
" />
<path d="M216.1258 34.8581
L216.2286 34.8301
" />
<path d="M216.2286 34.8301
L216.4620 34.8767
" />
<path d="M216.4620 34.8767
L216.5928 34.9514
" />
<path d="M216.9290 34.9700
L216.9666 35.9973
" />
<path d="M216.9666 35.9973
L217.2933 35.3341
" />
<path d="M217.2933 35.3341
L217.3402 36.0719
" />
<path d="M217.3402 36.0719
L217.7695 35.1379
" />
<path d="M218.0497 35.1939
L218.6568 35.3151
" />
<path d="M218.6568 35.3151
L218.2553 35.6234
" />
<path d="M218.2553 35.6234
L218.3954 35.6514
" />
<path d="M218.3954 35.6514
L218.4794 35.7167
" />
<path d="M218.4794 35.7167
L218.5168 35.7728
" />
<path d="M218.5168 35.7728
L218.5448 35.8755
" />
<path d="M218.5448 35.8755
L218.4982 36.1090
" />
<path d="M218.4982 36.1090
L218.4328 36.1930
" />
<path d="M218.4328 36.1930
L218.3768 36.2304
" />
<path d="M218.3768 36.2304
L218.2741 36.2584
" />
<path d="M218.2741 36.2584
L217.9939 36.2025
" />
<path d="M217.9939 36.2025
L217.9098 36.1371
" />
<path d="M217.9098 36.1371
L217.8725 36.0811
" />
</g><g transform="rotate(-73.825000 267.3823 117.9735)">
<text x="267.3823" y="118.4735"
textLength="3.2976" font-size="1.3333" lengthAdjust="spacingAndGlyphs"
text-anchor="middle" opacity="0" stroke-opacity="0">SW5</text>
</g>
<g class="stroked-text"><desc>SW5</desc>
<path d="M267.4020 119.3675
L267.4875 119.2435
" />
<path d="M267.4875 119.2435
L267.5538 119.0149
" />
<path d="M267.5538 119.0149
L267.5346 118.9101
" />
<path d="M267.5346 118.9101
L267.5021 118.8511
" />
<path d="M267.5021 118.8511
L267.4239 118.7789
" />
<path d="M267.4239 118.7789
L267.3325 118.7523
" />
<path d="M267.3325 118.7523
L267.2277 118.7715
" />
<path d="M267.2277 118.7715
L267.1687 118.8040
" />
<path d="M267.1687 118.8040
L267.0965 118.8822
" />
<path d="M267.0965 118.8822
L266.9977 119.0519
" />
<path d="M266.9977 119.0519
L266.9254 119.1301
" />
<path d="M266.9254 119.1301
L266.8664 119.1625
" />
<path d="M266.8664 119.1625
L266.7617 119.1817
" />
<path d="M266.7617 119.1817
L266.6702 119.1552
" />
<path d="M266.6702 119.1552
L266.5920 119.0830
" />
<path d="M266.5920 119.0830
L266.5595 119.0240
" />
<path d="M266.5595 119.0240
L266.5403 118.9192
" />
<path d="M266.5403 118.9192
L266.6067 118.6905
" />
<path d="M266.6067 118.6905
L266.6922 118.5666
" />
<path d="M266.7393 118.2332
L267.7661 118.2831
" />
<path d="M267.7661 118.2831
L267.1331 117.9012
" />
<path d="M267.1331 117.9012
L267.8722 117.9172
" />
<path d="M267.8722 117.9172
L266.9781 117.4100
" />
<path d="M267.2169 116.5868
L267.0842 117.0441
" />
<path d="M267.0842 117.0441
L267.5283 117.2225
" />
<path d="M267.5283 117.2225
L267.4958 117.1635
" />
<path d="M267.4958 117.1635
L267.4766 117.0588
" />
<path d="M267.4766 117.0588
L267.5429 116.8301
" />
<path d="M267.5429 116.8301
L267.6152 116.7519
" />
<path d="M267.6152 116.7519
L267.6742 116.7194
" />
<path d="M267.6742 116.7194
L267.7789 116.7002
" />
<path d="M267.7789 116.7002
L268.0076 116.7666
" />
<path d="M268.0076 116.7666
L268.0858 116.8388
" />
<path d="M268.0858 116.8388
L268.1183 116.8978
" />
<path d="M268.1183 116.8978
L268.1375 117.0026
" />
<path d="M268.1375 117.0026
L268.0712 117.2312
" />
<path d="M268.0712 117.2312
L267.9989 117.3094
" />
<path d="M267.9989 117.3094
L267.9399 117.3419
" />
</g><g transform="rotate(-15.180000 254.6435 82.4308)">
<text x="254.6435" y="82.9308"
textLength="3.7262" font-size="1.3333" lengthAdjust="spacingAndGlyphs"
text-anchor="middle" opacity="0" stroke-opacity="0">Brd1</text>
</g>
<g class="stroked-text"><desc>Brd1</desc>
<path d="M253.4995 82.6697
L253.6498 82.6783
" />
<path d="M253.6498 82.6783
L253.7082 82.7117
" />
<path d="M253.7082 82.7117
L253.7791 82.7912
" />
<path d="M253.7791 82.7912
L253.8165 82.9291
" />
<path d="M253.8165 82.9291
L253.7955 83.0335
" />
<path d="M253.7955 83.0335
L253.7620 83.0919
" />
<path d="M253.7620 83.0919
L253.6826 83.1628
" />
<path d="M253.6826 83.1628
L253.3149 83.2625
" />
<path d="M253.3149 83.2625
L253.0531 82.2974
" />
<path d="M253.0531 82.2974
L253.3748 82.2101
" />
<path d="M253.3748 82.2101
L253.4791 82.2312
" />
<path d="M253.4791 82.2312
L253.5376 82.2646
" />
<path d="M253.5376 82.2646
L253.6085 82.3441
" />
<path d="M253.6085 82.3441
L253.6334 82.4360
" />
<path d="M253.6334 82.4360
L253.6124 82.5404
" />
<path d="M253.6124 82.5404
L253.5789 82.5988
" />
<path d="M253.5789 82.5988
L253.4995 82.6697
" />
<path d="M253.4995 82.6697
L253.1777 82.7570
" />
<path d="M254.2800 83.0007
L254.1054 82.3573
" />
<path d="M254.1553 82.5411
L254.1763 82.4367
" />
<path d="M254.1763 82.4367
L254.2098 82.3783
" />
<path d="M254.2098 82.3783
L254.2893 82.3074
" />
<path d="M254.2893 82.3074
L254.3812 82.2825
" />
<path d="M255.2911 82.7264
L255.0292 81.7612
" />
<path d="M255.2786 82.6804
L255.1992 82.7513
" />
<path d="M255.1992 82.7513
L255.0153 82.8012
" />
<path d="M255.0153 82.8012
L254.9110 82.7801
" />
<path d="M254.9110 82.7801
L254.8525 82.7467
" />
<path d="M254.8525 82.7467
L254.7816 82.6672
" />
<path d="M254.7816 82.6672
L254.7068 82.3915
" />
<path d="M254.7068 82.3915
L254.7278 82.2871
" />
<path d="M254.7278 82.2871
L254.7613 82.2287
" />
<path d="M254.7613 82.2287
L254.8408 82.1578
" />
<path d="M254.8408 82.1578
L255.0246 82.1079
" />
<path d="M255.0246 82.1079
L255.1290 82.1289
" />
<path d="M256.2562 82.4645
L255.7047 82.6141
" />
<path d="M255.9804 82.5393
L255.7186 81.5742
" />
<path d="M255.7186 81.5742
L255.6641 81.7370
" />
<path d="M255.6641 81.7370
L255.5971 81.8539
" />
<path d="M255.5971 81.8539
L255.5177 81.9248
" />
</g><g transform="rotate(-13.055000 189.6414 35.9595)">
<text x="189.6414" y="36.4595"
textLength="3.2976" font-size="1.3333" lengthAdjust="spacingAndGlyphs"
text-anchor="middle" opacity="0" stroke-opacity="0">SW2</text>
</g>
<g class="stroked-text"><desc>SW2</desc>
<path d="M188.4345 36.6574
L188.5844 36.6715
" />
<path d="M188.5844 36.6715
L188.8163 36.6177
" />
<path d="M188.8163 36.6177
L188.8984 36.5498
" />
<path d="M188.8984 36.5498
L188.9340 36.4927
" />
<path d="M188.9340 36.4927
L188.9589 36.3891
" />
<path d="M188.9589 36.3891
L188.9374 36.2964
" />
<path d="M188.9374 36.2964
L188.8695 36.2143
" />
<path d="M188.8695 36.2143
L188.8123 36.1787
" />
<path d="M188.8123 36.1787
L188.7088 36.1538
" />
<path d="M188.7088 36.1538
L188.5125 36.1505
" />
<path d="M188.5125 36.1505
L188.4089 36.1256
" />
<path d="M188.4089 36.1256
L188.3518 36.0900
" />
<path d="M188.3518 36.0900
L188.2839 36.0079
" />
<path d="M188.2839 36.0079
L188.2624 35.9152
" />
<path d="M188.2624 35.9152
L188.2873 35.8116
" />
<path d="M188.2873 35.8116
L188.3229 35.7545
" />
<path d="M188.3229 35.7545
L188.4049 35.6866
" />
<path d="M188.4049 35.6866
L188.6368 35.6328
" />
<path d="M188.6368 35.6328
L188.7868 35.6469
" />
<path d="M189.1007 35.5252
L189.5586 36.4456
" />
<path d="M189.5586 36.4456
L189.5828 35.7068
" />
<path d="M189.5828 35.7068
L189.9297 36.3596
" />
<path d="M189.9297 36.3596
L189.9357 35.3316
" />
<path d="M190.2819 35.3491
L190.3176 35.2920
" />
<path d="M190.3176 35.2920
L190.3996 35.2240
" />
<path d="M190.3996 35.2240
L190.6315 35.1703
" />
<path d="M190.6315 35.1703
L190.7351 35.1951
" />
<path d="M190.7351 35.1951
L190.7922 35.2308
" />
<path d="M190.7922 35.2308
L190.8601 35.3128
" />
<path d="M190.8601 35.3128
L190.8816 35.4056
" />
<path d="M190.8816 35.4056
L190.8675 35.5555
" />
<path d="M190.8675 35.5555
L190.4399 36.2412
" />
<path d="M190.4399 36.2412
L191.0430 36.1014
" />
</g><g transform="rotate(-37.370000 164.6951 47.7423)">
<text x="164.6951" y="48.2423"
textLength="3.2976" font-size="1.3333" lengthAdjust="spacingAndGlyphs"
text-anchor="middle" opacity="0" stroke-opacity="0">SW1</text>
</g>
<g class="stroked-text"><desc>SW1</desc>
<path d="M163.8826 48.8752
L164.0251 48.8263
" />
<path d="M164.0251 48.8263
L164.2143 48.6818
" />
<path d="M164.2143 48.6818
L164.2611 48.5861
" />
<path d="M164.2611 48.5861
L164.2700 48.5194
" />
<path d="M164.2700 48.5194
L164.2500 48.4148
" />
<path d="M164.2500 48.4148
L164.1922 48.3391
" />
<path d="M164.1922 48.3391
L164.0966 48.2923
" />
<path d="M164.0966 48.2923
L164.0298 48.2834
" />
<path d="M164.0298 48.2834
L163.9252 48.3033
" />
<path d="M163.9252 48.3033
L163.7450 48.3811
" />
<path d="M163.7450 48.3811
L163.6404 48.4011
" />
<path d="M163.6404 48.4011
L163.5736 48.3921
" />
<path d="M163.5736 48.3921
L163.4780 48.3453
" />
<path d="M163.4780 48.3453
L163.4202 48.2697
" />
<path d="M163.4202 48.2697
L163.4002 48.1651
" />
<path d="M163.4002 48.1651
L163.4091 48.0983
" />
<path d="M163.4091 48.0983
L163.4559 48.0027
" />
<path d="M163.4559 48.0027
L163.6452 47.8582
" />
<path d="M163.6452 47.8582
L163.7876 47.8093
" />
<path d="M164.0236 47.5691
L164.8198 48.2193
" />
<path d="M164.8198 48.2193
L164.5376 47.5361
" />
<path d="M164.5376 47.5361
L165.1225 47.9881
" />
<path d="M165.1225 47.9881
L164.7048 47.0489
" />
<path d="M166.0308 47.2945
L165.5767 47.6413
" />
<path d="M165.8037 47.4679
L165.1968 46.6731
" />
<path d="M165.1968 46.6731
L165.2078 46.8445
" />
<path d="M165.2078 46.8445
L165.1899 46.9780
" />
<path d="M165.1899 46.9780
L165.1431 47.0736
" />
</g><g transform="rotate(38.447000 245.1656 48.5065)">
<text x="245.1656" y="49.0065"
textLength="3.2976" font-size="1.3333" lengthAdjust="spacingAndGlyphs"
text-anchor="middle" opacity="0" stroke-opacity="0">SW4</text>
</g>
<g class="stroked-text"><desc>SW4</desc>
<path d="M243.8682 47.9964
L243.9504 48.1225
" />
<path d="M243.9504 48.1225
L244.1369 48.2706
" />
<path d="M244.1369 48.2706
L244.2411 48.2925
" />
<path d="M244.2411 48.2925
L244.3080 48.2848
" />
<path d="M244.3080 48.2848
L244.4045 48.2398
" />
<path d="M244.4045 48.2398
L244.4637 48.1652
" />
<path d="M244.4637 48.1652
L244.4857 48.0610
" />
<path d="M244.4857 48.0610
L244.4780 47.9941
" />
<path d="M244.4780 47.9941
L244.4330 47.8976
" />
<path d="M244.4330 47.8976
L244.3134 47.7419
" />
<path d="M244.3134 47.7419
L244.2685 47.6454
" />
<path d="M244.2685 47.6454
L244.2608 47.5785
" />
<path d="M244.2608 47.5785
L244.2827 47.4743
" />
<path d="M244.2827 47.4743
L244.3419 47.3997
" />
<path d="M244.3419 47.3997
L244.4384 47.3547
" />
<path d="M244.4384 47.3547
L244.5053 47.3470
" />
<path d="M244.5053 47.3470
L244.6095 47.3689
" />
<path d="M244.6095 47.3689
L244.7960 47.5170
" />
<path d="M244.7960 47.5170
L244.8783 47.6431
" />
<path d="M245.1689 47.8131
L244.7336 48.7443
" />
<path d="M244.7336 48.7443
L245.3269 48.3033
" />
<path d="M245.3269 48.3033
L245.0320 48.9812
" />
<path d="M245.0320 48.9812
L245.8402 48.3460
" />
<path d="M246.2670 49.1105
L245.8525 49.6326
" />
<path d="M246.3174 48.6641
L245.6868 49.0754
" />
<path d="M245.6868 49.0754
L246.1716 49.4603
" />
</g></g>
<g style="fill:none; 
stroke:#008484; stroke-width:0.1200; stroke-opacity:1; 
stroke-linecap:round; stroke-linejoin:round;">
<path d="M263.1800 98.0850
L263.1800 102.0850
" />
<path d="M263.1800 98.0850
L268.7800 98.0850
" />
<path d="M263.1800 102.0850
L268.1800 102.0850
" />
<path d="M268.7800 101.4850
L268.1800 102.0850
" />
<path d="M268.7800 101.4850
L268.7800 98.0850
" />
<path d="M257.7332 112.2593
L253.8915 111.1450
" />
<path d="M257.7332 112.2593
L256.1732 117.6376
" />
<path d="M253.8915 111.1450
L252.4986 115.9471
" />
<path d="M252.9077 116.6905
L252.4986 115.9471
" />
<path d="M252.9077 116.6905
L256.1732 117.6376
" />
<path d="M236.2207 55.2701
L233.7335 58.4029
" />
<path d="M236.2207 55.2701
L240.6065 58.7521
" />
<path d="M233.7335 58.4029
L237.6494 61.5118
" />
<path d="M238.4924 61.4150
L237.6494 61.5118
" />
<path d="M238.4924 61.4150
L240.6065 58.7521
" />
<path d="M212.3695 45.6887
L211.5859 49.6112
" />
<path d="M212.3695 45.6887
L217.8610 46.7857
" />
<path d="M211.5859 49.6112
L216.4890 50.5906
" />
<path d="M217.1950 50.1198
L216.4890 50.5906
" />
<path d="M217.1950 50.1198
L217.8610 46.7857
" />
<path d="M189.3666 47.1703
L190.2702 51.0669
" />
<path d="M189.3666 47.1703
L194.8219 45.9054
" />
<path d="M190.2702 51.0669
L195.1410 49.9375
" />
<path d="M195.5899 49.2175
L195.1410 49.9375
" />
<path d="M195.5899 49.2175
L194.8219 45.9054
" />
<path d="M175.5750 57.3749
L173.5113 54.6728
" />
<path d="M175.5750 57.3749
L175.4623 58.2159
" />
<path d="M171.4887 61.2507
L175.4623 58.2159
" />
<path d="M169.0608 58.0718
L173.5113 54.6728
" />
<path d="M169.0608 58.0718
L171.4887 61.2507
" />
<path d="M210.2187 35.0920
L223.9180 37.8287
" />
<path d="M207.4820 48.7913
L210.2187 35.0920
" />
<path d="M223.9180 37.8287
L221.1813 51.5280
" />
<path d="M221.1813 51.5280
L207.4820 48.7913
" />
<path d="M268.4743 111.0173
L264.5827 124.4343
" />
<path d="M255.0573 107.1257
L268.4743 111.0173
" />
<path d="M264.5827 124.4343
L251.1657 120.5427
" />
<path d="M251.1657 120.5427
L255.0573 107.1257
" />
<path d="M238.4237 73.8237
L264.8677 66.6489
" />
<path d="M245.5723 100.1711
L238.4237 73.8237
" />
<path d="M239.6938 76.8932
L261.9878 70.8444
" />
<path d="M244.0406 92.9140
L239.6938 76.8932
" />
<path d="M246.9492 72.0172
L247.5810 74.3460
" />
<path d="M246.9492 72.0172
L256.3870 69.4566
" />
<path d="M256.3870 69.4566
L257.0188 71.7854
" />
<path d="M257.0188 71.7854
L247.5810 74.3460
" />
<path d="M261.9878 70.8444
L264.9661 70.0363
" />
<path d="M266.3346 86.8652
L244.0406 92.9140
" />
<path d="M266.3346 86.8652
L269.5646 86.0147
" />
<path d="M265.2081 69.9582
L264.9661 70.0363
" />
<path d="M269.5646 86.0147
L265.2081 69.9582
" />
<path d="M264.8677 66.6489
L272.0163 92.9963
" />
<path d="M272.0163 92.9963
L245.5723 100.1711
" />
<path d="M183.0377 38.4034
L196.6466 35.2477
" />
<path d="M186.1934 52.0123
L183.0377 38.4034
" />
<path d="M196.6466 35.2477
L199.8023 48.8566
" />
<path d="M199.8023 48.8566
L186.1934 52.0123
" />
<path d="M179.2651 55.3116
L168.1627 63.7908
" />
<path d="M170.7859 44.2092
L179.2651 55.3116
" />
<path d="M168.1627 63.7908
L159.6835 52.6884
" />
<path d="M159.6835 52.6884
L170.7859 44.2092
" />
<path d="M239.1423 44.8596
L250.0834 53.5460
" />
<path d="M230.4559 55.8007
L239.1423 44.8596
" />
<path d="M250.0834 53.5460
L241.3970 64.4871
" />
<path d="M241.3970 64.4871
L230.4559 55.8007
" />
</g>
<g style="fill:none; 
stroke:#C2C200; stroke-width:0.2000; stroke-opacity:1; 
stroke-linecap:round; stroke-linejoin:round;">
<path d="M246.8705 119.1310 A31.0001 31.0001 0.0 0 0 247.1686 110.3166" />
<path d="M247.1686 110.3166 A60.6303 60.6303 0.0 0 0 208.8671 60.3980" />
<path d="M208.8671 60.3980 A31.0000 31.0000 0.0 0 0 202.0344 58.6052" />
<path d="M202.0344 58.6052 A40.7749 40.7749 0.0 0 0 178.2306 62.3884" />
<path d="M178.2306 62.3884 A30.9999 30.9999 0.0 0 0 170.7574 67.5528" />
<path d="M156.6790 49.9972 A11.2614 11.2614 0.0 0 0 170.7574 67.5528" />
<path d="M268.0239 126.5951 A69.0000 69.0000 0.0 0 0 156.6790 49.9972" />
<path d="M246.8705 119.1310 A11.5757 11.5757 0.0 0 0 268.0239 126.5951" />
</g> 
</svg>
