%TF.GenerationSoftware,KiCad,Pcbnew,8.0.7*%
%TF.CreationDate,2026-02-28T13:34:10+00:00*%
%TF.ProjectId,macropad,6d616372-6f70-4616-942e-6b696361645f,rev?*%
%TF.SameCoordinates,Original*%
%TF.FileFunction,Legend,Top*%
%TF.FilePolarity,Positive*%
%FSLAX46Y46*%
G04 Gerber Fmt 4.6, Leading zero omitted, Abs format (unit mm)*
G04 Created by KiCad (PCBNEW 8.0.7) date 2026-02-28 13:34:10*
%MOMM*%
%LPD*%
G01*
G04 APERTURE LIST*
G04 Aperture macros list*
%AMRoundRect*
0 Rectangle with rounded corners*
0 $1 Rounding radius*
0 $2 $3 $4 $5 $6 $7 $8 $9 X,Y pos of 4 corners*
0 Add a 4 corners polygon primitive as box body*
4,1,4,$2,$3,$4,$5,$6,$7,$8,$9,$2,$3,0*
0 Add four circle primitives for the rounded corners*
1,1,$1+$1,$2,$3*
1,1,$1+$1,$4,$5*
1,1,$1+$1,$6,$7*
1,1,$1+$1,$8,$9*
0 Add four rect primitives between the rounded corners*
20,1,$1+$1,$2,$3,$4,$5,0*
20,1,$1+$1,$4,$5,$6,$7,0*
20,1,$1+$1,$6,$7,$8,$9,0*
20,1,$1+$1,$8,$9,$2,$3,0*%
%AMHorizOval*
0 Thick line with rounded ends*
0 $1 width*
0 $2 $3 position (X,Y) of the first rounded end (center of the circle)*
0 $4 $5 position (X,Y) of the second rounded end (center of the circle)*
0 Add line between two ends*
20,1,$1,$2,$3,$4,$5,0*
0 Add two circle primitives to create the rounded ends*
1,1,$1,$2,$3*
1,1,$1,$4,$5*%
G04 Aperture macros list end*
%ADD10C,0.100000*%
%ADD11C,0.150000*%
%ADD12C,0.120000*%
%ADD13C,6.076000*%
%ADD14C,1.776000*%
%ADD15C,4.076000*%
%ADD16C,2.276000*%
%ADD17HorizOval,1.676000X-0.052370X0.193022X0.052370X-0.193022X0*%
%ADD18RoundRect,0.038000X1.303854X-1.443941X0.328852X1.917513X-1.303854X1.443941X-0.328852X-1.917513X0*%
%ADD19HorizOval,1.776000X-0.264643X0.912395X0.264643X-0.912395X0*%
%ADD20HorizOval,1.776000X0.264643X-0.912395X-0.264643X0.912395X0*%
%ADD21HorizOval,1.776000X-0.278572X0.960415X0.278572X-0.960415X0*%
G04 APERTURE END LIST*
D10*
G36*
X247061632Y-102567362D02*
G01*
X247422135Y-102519002D01*
X247435736Y-102668158D01*
X247470383Y-102818668D01*
X247544736Y-102954638D01*
X247551828Y-102962302D01*
X247679683Y-103048029D01*
X247833877Y-103080687D01*
X247871297Y-103081737D01*
X248019314Y-103062298D01*
X248130683Y-103012861D01*
X248241165Y-102906672D01*
X248281625Y-102824549D01*
X248312400Y-102670676D01*
X248321656Y-102524085D01*
X248322658Y-102446461D01*
X248322658Y-100361849D01*
X248722728Y-100361849D01*
X248722728Y-102435471D01*
X248718345Y-102594282D01*
X248702603Y-102755689D01*
X248671208Y-102911653D01*
X248631137Y-103027515D01*
X248555441Y-103159813D01*
X248454289Y-103268560D01*
X248340244Y-103346985D01*
X248195502Y-103409560D01*
X248049643Y-103443907D01*
X247890189Y-103456787D01*
X247873496Y-103456894D01*
X247708368Y-103446200D01*
X247561121Y-103414118D01*
X247414736Y-103351264D01*
X247291706Y-103260474D01*
X247264598Y-103233412D01*
X247172778Y-103107703D01*
X247108344Y-102954792D01*
X247074429Y-102798680D01*
X247062047Y-102648293D01*
X247061632Y-102567362D01*
G37*
G36*
X249228311Y-102378318D02*
G01*
X249604933Y-102378318D01*
X249631884Y-102525877D01*
X249680244Y-102664930D01*
X249729497Y-102754207D01*
X249827049Y-102864085D01*
X249948654Y-102949196D01*
X250033579Y-102991612D01*
X250181281Y-103042923D01*
X250326224Y-103071088D01*
X250481327Y-103081649D01*
X250497397Y-103081737D01*
X250648246Y-103073685D01*
X250798393Y-103046534D01*
X250901130Y-103013593D01*
X251037612Y-102943649D01*
X251151002Y-102840014D01*
X251161981Y-102825282D01*
X251228874Y-102692848D01*
X251247711Y-102568094D01*
X251221513Y-102423426D01*
X251164912Y-102326294D01*
X251047319Y-102224843D01*
X250904826Y-102154959D01*
X250893070Y-102150439D01*
X250745630Y-102103751D01*
X250586601Y-102061370D01*
X250430694Y-102022716D01*
X250355247Y-102004626D01*
X250207934Y-101967618D01*
X250058209Y-101925353D01*
X249916288Y-101878252D01*
X249771995Y-101815582D01*
X249636376Y-101730590D01*
X249526732Y-101632784D01*
X249449595Y-101532749D01*
X249384851Y-101400034D01*
X249349989Y-101255778D01*
X249343349Y-101153196D01*
X249358674Y-100998568D01*
X249404649Y-100851040D01*
X249473042Y-100723084D01*
X249565764Y-100607121D01*
X249681812Y-100510192D01*
X249821188Y-100432297D01*
X249851863Y-100419002D01*
X249996756Y-100368705D01*
X250150344Y-100334869D01*
X250312625Y-100317494D01*
X250406538Y-100314954D01*
X250569708Y-100321640D01*
X250722894Y-100341699D01*
X250866096Y-100375129D01*
X250999316Y-100421933D01*
X251134182Y-100490048D01*
X251262009Y-100584359D01*
X251366652Y-100698275D01*
X251393524Y-100736273D01*
X251467555Y-100871241D01*
X251516542Y-101016942D01*
X251540484Y-101173377D01*
X251542267Y-101205952D01*
X251159050Y-101205952D01*
X251125362Y-101058748D01*
X251054916Y-100924923D01*
X250949490Y-100820537D01*
X250806992Y-100746281D01*
X250660520Y-100708452D01*
X250507746Y-100692149D01*
X250423391Y-100690111D01*
X250274106Y-100696422D01*
X250126507Y-100719091D01*
X249976527Y-100770611D01*
X249894361Y-100822002D01*
X249787144Y-100937638D01*
X249732807Y-101082455D01*
X249728764Y-101139274D01*
X249758073Y-101286369D01*
X249846001Y-101405254D01*
X249985070Y-101484011D01*
X250135829Y-101537317D01*
X250279373Y-101577717D01*
X250449036Y-101618478D01*
X250593847Y-101651952D01*
X250747926Y-101690420D01*
X250900532Y-101732956D01*
X251053772Y-101783935D01*
X251118018Y-101810453D01*
X251255441Y-101884030D01*
X251382437Y-101977882D01*
X251490893Y-102095831D01*
X251507096Y-102118932D01*
X251578850Y-102254142D01*
X251620818Y-102402858D01*
X251633126Y-102549776D01*
X251619602Y-102698182D01*
X251579030Y-102841150D01*
X251511410Y-102978680D01*
X251494640Y-103005533D01*
X251396738Y-103129954D01*
X251275222Y-103235770D01*
X251145669Y-103315098D01*
X251098234Y-103338192D01*
X250947641Y-103395572D01*
X250805217Y-103430812D01*
X250654733Y-103451214D01*
X250516448Y-103456894D01*
X250367263Y-103452463D01*
X250205065Y-103436094D01*
X250055630Y-103407664D01*
X249900475Y-103360403D01*
X249829148Y-103330865D01*
X249698081Y-103259882D01*
X249568367Y-103160976D01*
X249457432Y-103041901D01*
X249393907Y-102951311D01*
X249324481Y-102820428D01*
X249273740Y-102681301D01*
X249241683Y-102533931D01*
X249228311Y-102378318D01*
G37*
G36*
X253572658Y-102331423D02*
G01*
X253980788Y-102331423D01*
X253980788Y-102706580D01*
X253572658Y-102706580D01*
X253572658Y-103410000D01*
X253201898Y-103410000D01*
X253201898Y-102706580D01*
X251891046Y-102706580D01*
X251891046Y-102331423D01*
X252255945Y-102331423D01*
X253201898Y-102331423D01*
X253201898Y-101012512D01*
X252255945Y-102331423D01*
X251891046Y-102331423D01*
X253270041Y-100408743D01*
X253572658Y-100408743D01*
X253572658Y-102331423D01*
G37*
G36*
X254373531Y-100783900D02*
G01*
X254373531Y-100408743D01*
X256329183Y-100408743D01*
X256329183Y-100712093D01*
X256221103Y-100835578D01*
X256113383Y-100973025D01*
X256023892Y-101098229D01*
X255934652Y-101233129D01*
X255845662Y-101377725D01*
X255756922Y-101532016D01*
X255671667Y-101691853D01*
X255592673Y-101853086D01*
X255519941Y-102015714D01*
X255453469Y-102179737D01*
X255393259Y-102345155D01*
X255339310Y-102511969D01*
X255319483Y-102579085D01*
X255280551Y-102723942D01*
X255247286Y-102873848D01*
X255219689Y-103028803D01*
X255197759Y-103188807D01*
X255181495Y-103353860D01*
X255177334Y-103410000D01*
X254795582Y-103410000D01*
X254804283Y-103246800D01*
X254821507Y-103095640D01*
X254847748Y-102934074D01*
X254883005Y-102762100D01*
X254919273Y-102610839D01*
X254935533Y-102548311D01*
X254980281Y-102391422D01*
X255030716Y-102236286D01*
X255086841Y-102082903D01*
X255148654Y-101931273D01*
X255216156Y-101781397D01*
X255289347Y-101633273D01*
X255320216Y-101574515D01*
X255399295Y-101431564D01*
X255479913Y-101295806D01*
X255562070Y-101167238D01*
X255645765Y-101045862D01*
X255748229Y-100909704D01*
X255852909Y-100783900D01*
X254373531Y-100783900D01*
G37*
G36*
X257829489Y-100373451D02*
G01*
X257975435Y-100408257D01*
X258095792Y-100460034D01*
X258224660Y-100545935D01*
X258335394Y-100656360D01*
X258399141Y-100743600D01*
X258475192Y-100880156D01*
X258533810Y-101020977D01*
X258578001Y-101161299D01*
X258586720Y-101194228D01*
X258616533Y-101338439D01*
X258637827Y-101505821D01*
X258649473Y-101671290D01*
X258654265Y-101827241D01*
X258654863Y-101910104D01*
X258652198Y-102071791D01*
X258644202Y-102223460D01*
X258627569Y-102392240D01*
X258603260Y-102546593D01*
X258565198Y-102708441D01*
X258545687Y-102771793D01*
X258484321Y-102926261D01*
X258409399Y-103062137D01*
X258320922Y-103179419D01*
X258218890Y-103278108D01*
X258087437Y-103364533D01*
X257937900Y-103422673D01*
X257789797Y-103450609D01*
X257669344Y-103456894D01*
X257512173Y-103445843D01*
X257368192Y-103412690D01*
X257216884Y-103346077D01*
X257083527Y-103249380D01*
X256983510Y-103142554D01*
X256897385Y-103012773D01*
X256825858Y-102859738D01*
X256779147Y-102720565D01*
X256741778Y-102566509D01*
X256713751Y-102397569D01*
X256695066Y-102213746D01*
X256687184Y-102066111D01*
X256684556Y-101910104D01*
X256684568Y-101909371D01*
X257065575Y-101909371D01*
X257068300Y-102078403D01*
X257076475Y-102232688D01*
X257094356Y-102404808D01*
X257120753Y-102553886D01*
X257163669Y-102702367D01*
X257229236Y-102833660D01*
X257239965Y-102848729D01*
X257344492Y-102961365D01*
X257475725Y-103043282D01*
X257622843Y-103079689D01*
X257670076Y-103081737D01*
X257821574Y-103058839D01*
X257957329Y-102990146D01*
X258066049Y-102889167D01*
X258099455Y-102847264D01*
X258175751Y-102700718D01*
X258218667Y-102552341D01*
X258245064Y-102403505D01*
X258262945Y-102231772D01*
X258271120Y-102077899D01*
X258273845Y-101909371D01*
X258271120Y-101740020D01*
X258262945Y-101585505D01*
X258245064Y-101413228D01*
X258218667Y-101264135D01*
X258175751Y-101115826D01*
X258099455Y-100970013D01*
X257994638Y-100857378D01*
X257862403Y-100775461D01*
X257713568Y-100739054D01*
X257665680Y-100737006D01*
X257515943Y-100757041D01*
X257374538Y-100825363D01*
X257267176Y-100929547D01*
X257257550Y-100942170D01*
X257182747Y-101077861D01*
X257133254Y-101227990D01*
X257102320Y-101376947D01*
X257080761Y-101547585D01*
X257070262Y-101699707D01*
X257065763Y-101865704D01*
X257065575Y-101909371D01*
X256684568Y-101909371D01*
X256687240Y-101747380D01*
X256695290Y-101594888D01*
X256712034Y-101425404D01*
X256736506Y-101270655D01*
X256774824Y-101108738D01*
X256794466Y-101045484D01*
X256856427Y-100890787D01*
X256931669Y-100754958D01*
X257020192Y-100637996D01*
X257121995Y-100539902D01*
X257253275Y-100453831D01*
X257402290Y-100395929D01*
X257549637Y-100368108D01*
X257669344Y-100361849D01*
X257829489Y-100373451D01*
G37*
G36*
X260237991Y-100371982D02*
G01*
X260394120Y-100408378D01*
X260534037Y-100471244D01*
X260657742Y-100560579D01*
X260672065Y-100573607D01*
X260774601Y-100689607D01*
X260854331Y-100825849D01*
X260911255Y-100982332D01*
X260942355Y-101135860D01*
X260945373Y-101159057D01*
X260576810Y-101205952D01*
X260533774Y-101060975D01*
X260464040Y-100926411D01*
X260436859Y-100893077D01*
X260313864Y-100797971D01*
X260171291Y-100746760D01*
X260065366Y-100737006D01*
X259918485Y-100754397D01*
X259779478Y-100811627D01*
X259753956Y-100827864D01*
X259633022Y-100930492D01*
X259540450Y-101051361D01*
X259477718Y-101169316D01*
X259428844Y-101313230D01*
X259398150Y-101471030D01*
X259381135Y-101632171D01*
X259373862Y-101787427D01*
X259372937Y-101842693D01*
X259462539Y-101725228D01*
X259574490Y-101619818D01*
X259700467Y-101539344D01*
X259836039Y-101483026D01*
X259988676Y-101448250D01*
X260106399Y-101440425D01*
X260263347Y-101453538D01*
X260409777Y-101492878D01*
X260545688Y-101558445D01*
X260671080Y-101650237D01*
X260738011Y-101714466D01*
X260839651Y-101841716D01*
X260916327Y-101984324D01*
X260968039Y-102142290D01*
X260992494Y-102289912D01*
X260998862Y-102421549D01*
X260989125Y-102578749D01*
X260959913Y-102729690D01*
X260911227Y-102874371D01*
X260875764Y-102952044D01*
X260799630Y-103080664D01*
X260697907Y-103202365D01*
X260578151Y-103301742D01*
X260538709Y-103327201D01*
X260399333Y-103395594D01*
X260248651Y-103438656D01*
X260086664Y-103456388D01*
X260052909Y-103456894D01*
X259885229Y-103444864D01*
X259729501Y-103408774D01*
X259585726Y-103348625D01*
X259453904Y-103264415D01*
X259334034Y-103156146D01*
X259296734Y-103114710D01*
X259197377Y-102970806D01*
X259130283Y-102827076D01*
X259077465Y-102661700D01*
X259045488Y-102513815D01*
X259031630Y-102415687D01*
X259430823Y-102415687D01*
X259446391Y-102566755D01*
X259493093Y-102712213D01*
X259512156Y-102752742D01*
X259595804Y-102878565D01*
X259713130Y-102981004D01*
X259740034Y-102997473D01*
X259880480Y-103057956D01*
X260027044Y-103081408D01*
X260047048Y-103081737D01*
X260200873Y-103061217D01*
X260338940Y-102999657D01*
X260450781Y-102908080D01*
X260540039Y-102786923D01*
X260596239Y-102641436D01*
X260618554Y-102489697D01*
X260620041Y-102434738D01*
X260606826Y-102282438D01*
X260561145Y-102135921D01*
X260473209Y-102002356D01*
X260452979Y-101981179D01*
X260327907Y-101886899D01*
X260182402Y-101831754D01*
X260032393Y-101815582D01*
X259882756Y-101831754D01*
X259735346Y-101886899D01*
X259605945Y-101981179D01*
X259506242Y-102107235D01*
X259447925Y-102257707D01*
X259430823Y-102415687D01*
X259031630Y-102415687D01*
X259022647Y-102352077D01*
X259008943Y-102176485D01*
X259004375Y-101987041D01*
X259007221Y-101826526D01*
X259015761Y-101674435D01*
X259036002Y-101484750D01*
X259066365Y-101310040D01*
X259106848Y-101150305D01*
X259157452Y-101005545D01*
X259234940Y-100845654D01*
X259328241Y-100709162D01*
X259440907Y-100591130D01*
X259567328Y-100497518D01*
X259707505Y-100428327D01*
X259861438Y-100383556D01*
X260029127Y-100363205D01*
X260088080Y-100361849D01*
X260237991Y-100371982D01*
G37*
D11*
X215855208Y-35726676D02*
X215985969Y-35801357D01*
X215985969Y-35801357D02*
X216219451Y-35847999D01*
X216219451Y-35847999D02*
X216322172Y-35819959D01*
X216322172Y-35819959D02*
X216378197Y-35782591D01*
X216378197Y-35782591D02*
X216443550Y-35698527D01*
X216443550Y-35698527D02*
X216462206Y-35605134D01*
X216462206Y-35605134D02*
X216434167Y-35502413D01*
X216434167Y-35502413D02*
X216396799Y-35446388D01*
X216396799Y-35446388D02*
X216312734Y-35381035D01*
X216312734Y-35381035D02*
X216135277Y-35297025D01*
X216135277Y-35297025D02*
X216051212Y-35231672D01*
X216051212Y-35231672D02*
X216013844Y-35175647D01*
X216013844Y-35175647D02*
X215985804Y-35072926D01*
X215985804Y-35072926D02*
X216004461Y-34979533D01*
X216004461Y-34979533D02*
X216069814Y-34895469D01*
X216069814Y-34895469D02*
X216125839Y-34858101D01*
X216125839Y-34858101D02*
X216228560Y-34830061D01*
X216228560Y-34830061D02*
X216462042Y-34876702D01*
X216462042Y-34876702D02*
X216592803Y-34951384D01*
X216929006Y-34969986D02*
X216966594Y-35997252D01*
X216966594Y-35997252D02*
X217293304Y-35334119D01*
X217293304Y-35334119D02*
X217340165Y-36071879D01*
X217340165Y-36071879D02*
X217769542Y-35137895D01*
X218049720Y-35193865D02*
X218656774Y-35315134D01*
X218656774Y-35315134D02*
X218255272Y-35623407D01*
X218255272Y-35623407D02*
X218395362Y-35651392D01*
X218395362Y-35651392D02*
X218479426Y-35716745D01*
X218479426Y-35716745D02*
X218516794Y-35772770D01*
X218516794Y-35772770D02*
X218544834Y-35875491D01*
X218544834Y-35875491D02*
X218498192Y-36108973D01*
X218498192Y-36108973D02*
X218432839Y-36193037D01*
X218432839Y-36193037D02*
X218376815Y-36230405D01*
X218376815Y-36230405D02*
X218274093Y-36258445D01*
X218274093Y-36258445D02*
X217993915Y-36202475D01*
X217993915Y-36202475D02*
X217909850Y-36137122D01*
X217909850Y-36137122D02*
X217872482Y-36081097D01*
X267401961Y-119367463D02*
X267487491Y-119243526D01*
X267487491Y-119243526D02*
X267553818Y-119014856D01*
X267553818Y-119014856D02*
X267534615Y-118910123D01*
X267534615Y-118910123D02*
X267502146Y-118851123D01*
X267502146Y-118851123D02*
X267423943Y-118778859D01*
X267423943Y-118778859D02*
X267332475Y-118752328D01*
X267332475Y-118752328D02*
X267227742Y-118771531D01*
X267227742Y-118771531D02*
X267168742Y-118804000D01*
X267168742Y-118804000D02*
X267096477Y-118882203D01*
X267096477Y-118882203D02*
X266997682Y-119051874D01*
X266997682Y-119051874D02*
X266925417Y-119130076D01*
X266925417Y-119130076D02*
X266866418Y-119162545D01*
X266866418Y-119162545D02*
X266761684Y-119181749D01*
X266761684Y-119181749D02*
X266670216Y-119155218D01*
X266670216Y-119155218D02*
X266592014Y-119082953D01*
X266592014Y-119082953D02*
X266559545Y-119023954D01*
X266559545Y-119023954D02*
X266540341Y-118919220D01*
X266540341Y-118919220D02*
X266606668Y-118690550D01*
X266606668Y-118690550D02*
X266692198Y-118566613D01*
X266739321Y-118233209D02*
X267766063Y-118283111D01*
X267766063Y-118283111D02*
X267133114Y-117901195D01*
X267133114Y-117901195D02*
X267872186Y-117917239D01*
X267872186Y-117917239D02*
X266978098Y-117409996D01*
X267216874Y-116586783D02*
X267084220Y-117044124D01*
X267084220Y-117044124D02*
X267528295Y-117222511D01*
X267528295Y-117222511D02*
X267495827Y-117163512D01*
X267495827Y-117163512D02*
X267476623Y-117058778D01*
X267476623Y-117058778D02*
X267542950Y-116830108D01*
X267542950Y-116830108D02*
X267615215Y-116751905D01*
X267615215Y-116751905D02*
X267674214Y-116719437D01*
X267674214Y-116719437D02*
X267778948Y-116700233D01*
X267778948Y-116700233D02*
X268007618Y-116766560D01*
X268007618Y-116766560D02*
X268085821Y-116838825D01*
X268085821Y-116838825D02*
X268118289Y-116897824D01*
X268118289Y-116897824D02*
X268137493Y-117002557D01*
X268137493Y-117002557D02*
X268071166Y-117231228D01*
X268071166Y-117231228D02*
X267998901Y-117309431D01*
X267998901Y-117309431D02*
X267939902Y-117341899D01*
X253499452Y-82669709D02*
X253649794Y-82678259D01*
X253649794Y-82678259D02*
X253708221Y-82711747D01*
X253708221Y-82711747D02*
X253779116Y-82791193D01*
X253779116Y-82791193D02*
X253816524Y-82929065D01*
X253816524Y-82929065D02*
X253795505Y-83033450D01*
X253795505Y-83033450D02*
X253762016Y-83091876D01*
X253762016Y-83091876D02*
X253682570Y-83162772D01*
X253682570Y-83162772D02*
X253314910Y-83262525D01*
X253314910Y-83262525D02*
X253053058Y-82297417D01*
X253053058Y-82297417D02*
X253374761Y-82210133D01*
X253374761Y-82210133D02*
X253479145Y-82231153D01*
X253479145Y-82231153D02*
X253537571Y-82264641D01*
X253537571Y-82264641D02*
X253608467Y-82344087D01*
X253608467Y-82344087D02*
X253633406Y-82436002D01*
X253633406Y-82436002D02*
X253612386Y-82540386D01*
X253612386Y-82540386D02*
X253578898Y-82598813D01*
X253578898Y-82598813D02*
X253499452Y-82669709D01*
X253499452Y-82669709D02*
X253177749Y-82756993D01*
X254280018Y-83000673D02*
X254105450Y-82357268D01*
X254155327Y-82541098D02*
X254176346Y-82436714D01*
X254176346Y-82436714D02*
X254209834Y-82378287D01*
X254209834Y-82378287D02*
X254289280Y-82307391D01*
X254289280Y-82307391D02*
X254381195Y-82282453D01*
X255291084Y-82726352D02*
X255029232Y-81761244D01*
X255278615Y-82680394D02*
X255199169Y-82751290D01*
X255199169Y-82751290D02*
X255015339Y-82801166D01*
X255015339Y-82801166D02*
X254910955Y-82780147D01*
X254910955Y-82780147D02*
X254852528Y-82746659D01*
X254852528Y-82746659D02*
X254781632Y-82667213D01*
X254781632Y-82667213D02*
X254706817Y-82391468D01*
X254706817Y-82391468D02*
X254727836Y-82287084D01*
X254727836Y-82287084D02*
X254761325Y-82228657D01*
X254761325Y-82228657D02*
X254840771Y-82157761D01*
X254840771Y-82157761D02*
X255024601Y-82107885D01*
X255024601Y-82107885D02*
X255128985Y-82128904D01*
X256256192Y-82464499D02*
X255704702Y-82614129D01*
X255980447Y-82539314D02*
X255718595Y-81574206D01*
X255718595Y-81574206D02*
X255664087Y-81737017D01*
X255664087Y-81737017D02*
X255597110Y-81853870D01*
X255597110Y-81853870D02*
X255517664Y-81924766D01*
X188434480Y-36657370D02*
X188584402Y-36671489D01*
X188584402Y-36671489D02*
X188816343Y-36617707D01*
X188816343Y-36617707D02*
X188898363Y-36549806D01*
X188898363Y-36549806D02*
X188933995Y-36492661D01*
X188933995Y-36492661D02*
X188958870Y-36389128D01*
X188958870Y-36389128D02*
X188937357Y-36296351D01*
X188937357Y-36296351D02*
X188869456Y-36214331D01*
X188869456Y-36214331D02*
X188812311Y-36178699D01*
X188812311Y-36178699D02*
X188708778Y-36153824D01*
X188708778Y-36153824D02*
X188512469Y-36150462D01*
X188512469Y-36150462D02*
X188408935Y-36125587D01*
X188408935Y-36125587D02*
X188351791Y-36089955D01*
X188351791Y-36089955D02*
X188283889Y-36007935D01*
X188283889Y-36007935D02*
X188262377Y-35915158D01*
X188262377Y-35915158D02*
X188287252Y-35811625D01*
X188287252Y-35811625D02*
X188322884Y-35754480D01*
X188322884Y-35754480D02*
X188404904Y-35686579D01*
X188404904Y-35686579D02*
X188636845Y-35632797D01*
X188636845Y-35632797D02*
X188786766Y-35646915D01*
X189100728Y-35525232D02*
X189558555Y-36445603D01*
X189558555Y-36445603D02*
X189582761Y-35706753D01*
X189582761Y-35706753D02*
X189929662Y-36359551D01*
X189929662Y-36359551D02*
X189935717Y-35331615D01*
X190281947Y-35349096D02*
X190317579Y-35291951D01*
X190317579Y-35291951D02*
X190399599Y-35224050D01*
X190399599Y-35224050D02*
X190631541Y-35170268D01*
X190631541Y-35170268D02*
X190735074Y-35195143D01*
X190735074Y-35195143D02*
X190792218Y-35230775D01*
X190792218Y-35230775D02*
X190860120Y-35312795D01*
X190860120Y-35312795D02*
X190881633Y-35405571D01*
X190881633Y-35405571D02*
X190867514Y-35555493D01*
X190867514Y-35555493D02*
X190439932Y-36241230D01*
X190439932Y-36241230D02*
X191042980Y-36101395D01*
X163882615Y-48875170D02*
X164025051Y-48826306D01*
X164025051Y-48826306D02*
X164214273Y-48681792D01*
X164214273Y-48681792D02*
X164261059Y-48586142D01*
X164261059Y-48586142D02*
X164270000Y-48519394D01*
X164270000Y-48519394D02*
X164250039Y-48414803D01*
X164250039Y-48414803D02*
X164192233Y-48339114D01*
X164192233Y-48339114D02*
X164096583Y-48292328D01*
X164096583Y-48292328D02*
X164029836Y-48283386D01*
X164029836Y-48283386D02*
X163925244Y-48303348D01*
X163925244Y-48303348D02*
X163744964Y-48381115D01*
X163744964Y-48381115D02*
X163640372Y-48401076D01*
X163640372Y-48401076D02*
X163573625Y-48392134D01*
X163573625Y-48392134D02*
X163477975Y-48345348D01*
X163477975Y-48345348D02*
X163420169Y-48269660D01*
X163420169Y-48269660D02*
X163400208Y-48165068D01*
X163400208Y-48165068D02*
X163409149Y-48098321D01*
X163409149Y-48098321D02*
X163455935Y-48002670D01*
X163455935Y-48002670D02*
X163645157Y-47858156D01*
X163645157Y-47858156D02*
X163787593Y-47809292D01*
X164023601Y-47569128D02*
X164819783Y-48219346D01*
X164819783Y-48219346D02*
X164537618Y-47536069D01*
X164537618Y-47536069D02*
X165122538Y-47988123D01*
X165122538Y-47988123D02*
X164704801Y-47048876D01*
X166030804Y-47294455D02*
X165576671Y-47641289D01*
X165803738Y-47467872D02*
X165196778Y-46673140D01*
X165196778Y-46673140D02*
X165207798Y-46844478D01*
X165207798Y-46844478D02*
X165189914Y-46977973D01*
X165189914Y-46977973D02*
X165143129Y-47073623D01*
X243868165Y-47996399D02*
X243950439Y-48122521D01*
X243950439Y-48122521D02*
X244136912Y-48270566D01*
X244136912Y-48270566D02*
X244241110Y-48292490D01*
X244241110Y-48292490D02*
X244308013Y-48284805D01*
X244308013Y-48284805D02*
X244404526Y-48239825D01*
X244404526Y-48239825D02*
X244463744Y-48165236D01*
X244463744Y-48165236D02*
X244485668Y-48061038D01*
X244485668Y-48061038D02*
X244477982Y-47994134D01*
X244477982Y-47994134D02*
X244433002Y-47897622D01*
X244433002Y-47897622D02*
X244313433Y-47741891D01*
X244313433Y-47741891D02*
X244268454Y-47645378D01*
X244268454Y-47645378D02*
X244260768Y-47578475D01*
X244260768Y-47578475D02*
X244282692Y-47474277D01*
X244282692Y-47474277D02*
X244341910Y-47399688D01*
X244341910Y-47399688D02*
X244438423Y-47354708D01*
X244438423Y-47354708D02*
X244505326Y-47347023D01*
X244505326Y-47347023D02*
X244609524Y-47368946D01*
X244609524Y-47368946D02*
X244795996Y-47516992D01*
X244795996Y-47516992D02*
X244878271Y-47643113D01*
X245168941Y-47813082D02*
X244733623Y-48744311D01*
X244733623Y-48744311D02*
X245326937Y-48303331D01*
X245326937Y-48303331D02*
X245031979Y-48981184D01*
X245031979Y-48981184D02*
X245840241Y-48346046D01*
X246266984Y-49110461D02*
X245852457Y-49632583D01*
X246317384Y-48664060D02*
X245686776Y-49075431D01*
X245686776Y-49075431D02*
X246171604Y-49460349D01*
D12*
%TO.C,SW3*%
X207482010Y-48791340D02*
X210218660Y-35092010D01*
X210218660Y-35092010D02*
X223917990Y-37828660D01*
X221181340Y-51527990D02*
X207482010Y-48791340D01*
X223917990Y-37828660D02*
X221181340Y-51527990D01*
%TO.C,SW5*%
X251165673Y-120542675D02*
X255057325Y-107125673D01*
X255057325Y-107125673D02*
X268474327Y-111017325D01*
X264582675Y-124434327D02*
X251165673Y-120542675D01*
X268474327Y-111017325D02*
X264582675Y-124434327D01*
%TO.C,Brd1*%
X238423737Y-73823653D02*
X264867694Y-66648900D01*
X239693816Y-76893183D02*
X261987810Y-70844394D01*
X244040564Y-92913975D02*
X239693816Y-76893183D01*
X245572306Y-100171100D02*
X238423737Y-73823653D01*
X246949186Y-72017214D02*
X247581037Y-74346020D01*
X246949186Y-72017214D02*
X256386977Y-69456560D01*
X256386977Y-69456560D02*
X257018827Y-71785366D01*
X257018827Y-71785366D02*
X247581037Y-74346020D01*
X261987810Y-70844394D02*
X264966133Y-70036318D01*
X264867694Y-66648900D02*
X272016263Y-92996347D01*
X265208128Y-69958226D02*
X264966133Y-70036318D01*
X266334559Y-86865185D02*
X244040564Y-92913975D01*
X266334559Y-86865185D02*
X269564564Y-86014727D01*
X269564564Y-86014727D02*
X265208128Y-69958226D01*
X272016263Y-92996347D02*
X245572306Y-100171100D01*
%TO.C,SW2*%
X183037721Y-38403352D02*
X196646648Y-35247721D01*
X186193352Y-52012279D02*
X183037721Y-38403352D01*
X196646648Y-35247721D02*
X199802279Y-48856648D01*
X199802279Y-48856648D02*
X186193352Y-52012279D01*
%TO.C,SW1*%
X159683484Y-52688407D02*
X170785898Y-44209179D01*
X168162713Y-63790821D02*
X159683484Y-52688407D01*
X170785898Y-44209179D02*
X179265126Y-55311593D01*
X179265126Y-55311593D02*
X168162713Y-63790821D01*
%TO.C,SW4*%
X230455881Y-55800661D02*
X239142293Y-44859585D01*
X239142293Y-44859585D02*
X250083369Y-53545998D01*
X241396957Y-64487073D02*
X230455881Y-55800661D01*
X250083369Y-53545998D02*
X241396957Y-64487073D01*
%TD*%
%LPC*%
D13*
%TO.C,H1*%
X158330000Y-62400000D03*
%TD*%
%TO.C,H2*%
X256590000Y-127220000D03*
%TD*%
D14*
%TO.C,SW3*%
X210718426Y-42314854D03*
D15*
X215700000Y-43310000D03*
D14*
X220681575Y-44305145D03*
D16*
X219185933Y-38825998D03*
X212461392Y-40072853D03*
%TD*%
D14*
%TO.C,SW5*%
X261235146Y-110901090D03*
D15*
X259820000Y-115780000D03*
D14*
X258404854Y-120658910D03*
D16*
X263991337Y-119634601D03*
X263320815Y-112828391D03*
%TD*%
D17*
%TO.C,Brd1*%
X248307642Y-72903421D03*
X250759015Y-72238316D03*
X253210390Y-71573211D03*
X255661764Y-70908105D03*
%TD*%
D13*
%TO.C,H4*%
X231000000Y-40480000D03*
%TD*%
D14*
%TO.C,SW2*%
X186471299Y-44777502D03*
D15*
X191420000Y-43630000D03*
D14*
X196368701Y-42482499D03*
D16*
X192746848Y-38107548D03*
X187134723Y-42016276D03*
%TD*%
D14*
%TO.C,SW1*%
X165437064Y-57083356D03*
D15*
X169474305Y-54000000D03*
D14*
X173511547Y-50916644D03*
D16*
X168409570Y-48421081D03*
X164904696Y-54293896D03*
%TD*%
D14*
%TO.C,SW4*%
X236291052Y-51514634D03*
D15*
X240269625Y-54673329D03*
D14*
X244248198Y-57832025D03*
D16*
X245417607Y-52274104D03*
X238865043Y-50315021D03*
%TD*%
D13*
%TO.C,H3*%
X223790000Y-60770000D03*
%TD*%
D18*
%TO.C,U1*%
X269915706Y-90081603D03*
D19*
X267476251Y-90789176D03*
X265036796Y-91496749D03*
X262597341Y-92204322D03*
X260157886Y-92911895D03*
D20*
X257718431Y-93619468D03*
D19*
X255278976Y-94327041D03*
X250473608Y-77759877D03*
X252913063Y-77052304D03*
X255352518Y-76344731D03*
D21*
X257791973Y-75637158D03*
X260231428Y-74929585D03*
X262670883Y-74222012D03*
X265110338Y-73514439D03*
%TD*%
%LPD*%
M02*
