M48
; DRILL file {KiCad 8.0.7} date 2026-02-28T13:34:10+0000
; FORMAT={-:-/ absolute / inch / decimal}
; #@! TF.CreationDate,2026-02-28T13:34:10+00:00
; #@! TF.GenerationSoftware,Kicad,Pcbnew,8.0.7
; #@! TF.FileFunction,Plated,1,2,PTH
FMAT,2
INCH
; #@! TA.AperFunction,Plated,PTH,ViaDrill
T1C0.0118
; #@! TA.AperFunction,Plated,PTH,ComponentDrill
T2C0.0394
; #@! TA.AperFunction,Plated,PTH,ComponentDrill
T3C0.0591
; #@! TA.AperFunction,Plated,PTH,ComponentDrill
T4C0.1260
%
G90
G05
T1
X7.0606Y-2.2118
X7.3953Y-1.9185
X8.1538Y-2.0206
X8.3476Y-2.0181
X8.4783Y-2.3705
X8.5484Y-1.9503
X9.2795Y-1.6039
X9.5142Y-3.1071
X9.5197Y-2.7496
X9.9768Y-2.8972
X10.0701Y-3.115
T2
X9.7759Y-2.8702
X9.8721Y-3.0992
X9.8724Y-2.844
X9.9682Y-3.0714
X9.9689Y-2.8178
X10.0394Y-3.6759
X10.0642Y-3.0435
X10.0654Y-2.7917
X10.1354Y-3.648
X10.1603Y-3.0157
X10.2315Y-3.6201
X10.2563Y-2.9878
X10.3275Y-3.5923
X10.3523Y-2.9599
X10.4236Y-3.5644
X10.4484Y-2.9321
X10.5196Y-3.5366
X10.6156Y-3.5087
T3
X6.4923Y-2.1376
X6.6303Y-1.9063
X7.3675Y-1.6542
X7.5885Y-1.5003
X8.3646Y-1.5777
X8.6294Y-1.5286
X9.4041Y-1.9809
X9.6621Y-2.058
X10.367Y-4.4421
X10.3934Y-4.71
T4
X6.2335Y-2.4567
X8.8106Y-2.3925
X9.0945Y-1.5937
X10.102Y-5.0087
M30
