%TF.GenerationSoftware,KiCad,Pcbnew,8.0.7*%
%TF.CreationDate,2026-02-28T13:34:10+00:00*%
%TF.ProjectId,macropad,6d616372-6f70-4616-942e-6b696361645f,rev?*%
%TF.SameCoordinates,Original*%
%TF.FileFunction,Copper,L2,Bot*%
%TF.FilePolarity,Positive*%
%FSLAX46Y46*%
G04 Gerber Fmt 4.6, Leading zero omitted, Abs format (unit mm)*
G04 Created by KiCad (PCBNEW 8.0.7) date 2026-02-28 13:34:10*
%MOMM*%
%LPD*%
G01*
G04 APERTURE LIST*
G04 Aperture macros list*
%AMRoundRect*
0 Rectangle with rounded corners*
0 $1 Rounding radius*
0 $2 $3 $4 $5 $6 $7 $8 $9 X,Y pos of 4 corners*
0 Add a 4 corners polygon primitive as box body*
4,1,4,$2,$3,$4,$5,$6,$7,$8,$9,$2,$3,0*
0 Add four circle primitives for the rounded corners*
1,1,$1+$1,$2,$3*
1,1,$1+$1,$4,$5*
1,1,$1+$1,$6,$7*
1,1,$1+$1,$8,$9*
0 Add four rect primitives between the rounded corners*
20,1,$1+$1,$2,$3,$4,$5,0*
20,1,$1+$1,$4,$5,$6,$7,0*
20,1,$1+$1,$6,$7,$8,$9,0*
20,1,$1+$1,$8,$9,$2,$3,0*%
%AMHorizOval*
0 Thick line with rounded ends*
0 $1 width*
0 $2 $3 position (X,Y) of the first rounded end (center of the circle)*
0 $4 $5 position (X,Y) of the second rounded end (center of the circle)*
0 Add line between two ends*
20,1,$1,$2,$3,$4,$5,0*
0 Add two circle primitives to create the rounded ends*
1,1,$1,$2,$3*
1,1,$1,$4,$5*%
%AMRotRect*
0 Rectangle, with rotation*
0 The origin of the aperture is its center*
0 $1 length*
0 $2 width*
0 $3 Rotation angle, in degrees counterclockwise*
0 Add horizontal line*
21,1,$1,$2,0,0,$3*%
G04 Aperture macros list end*
%TA.AperFunction,SMDPad,CuDef*%
%ADD10RoundRect,0.082000X-0.718000X0.328000X-0.718000X-0.328000X0.718000X-0.328000X0.718000X0.328000X0*%
%TD*%
%TA.AperFunction,SMDPad,CuDef*%
%ADD11RoundRect,0.082000X0.515031X0.598207X-0.115001X0.780950X-0.515031X-0.598207X0.115001X-0.780950X0*%
%TD*%
%TA.AperFunction,SMDPad,CuDef*%
%ADD12RoundRect,0.082000X-0.358379X0.703330X-0.766273X0.189561X0.358379X-0.703330X0.766273X-0.189561X0*%
%TD*%
%TA.AperFunction,SMDPad,CuDef*%
%ADD13RoundRect,0.082000X-0.639835X0.462297X-0.768342X-0.180993X0.639835X-0.462297X0.768342X0.180993X0*%
%TD*%
%TA.AperFunction,SMDPad,CuDef*%
%ADD14RoundRect,0.082000X-0.773533X0.157336X-0.625352X-0.481709X0.773533X-0.157336X0.625352X0.481709X0*%
%TD*%
%TA.AperFunction,SMDPad,CuDef*%
%ADD15RoundRect,0.082000X-0.769701X-0.175125X-0.371535X-0.696469X0.769701X0.175125X0.371535X0.696469X0*%
%TD*%
%TA.AperFunction,ComponentPad*%
%ADD16C,6.000000*%
%TD*%
%TA.AperFunction,ComponentPad*%
%ADD17C,2.200000*%
%TD*%
%TA.AperFunction,ComponentPad*%
%ADD18HorizOval,1.600000X-0.052370X0.193022X0.052370X-0.193022X0*%
%TD*%
%TA.AperFunction,ComponentPad*%
%ADD19RotRect,3.500000X1.700000X106.175000*%
%TD*%
%TA.AperFunction,ComponentPad*%
%ADD20HorizOval,1.700000X-0.264643X0.912395X0.264643X-0.912395X0*%
%TD*%
%TA.AperFunction,ComponentPad*%
%ADD21HorizOval,1.700000X0.264643X-0.912395X-0.264643X0.912395X0*%
%TD*%
%TA.AperFunction,ComponentPad*%
%ADD22HorizOval,1.700000X-0.278572X0.960415X0.278572X-0.960415X0*%
%TD*%
%TA.AperFunction,ViaPad*%
%ADD23C,0.600000*%
%TD*%
%TA.AperFunction,Conductor*%
%ADD24C,0.200000*%
%TD*%
G04 APERTURE END LIST*
D10*
%TO.P,D6,1,DOUT*%
%TO.N,unconnected-(D6-DOUT-Pad1)*%
X262997500Y-100532500D03*
%TO.P,D6,2,VSS*%
%TO.N,GND*%
X262997500Y-102032500D03*
%TO.P,D6,4,VDD*%
%TO.N,+5V*%
X268197500Y-100532500D03*
%TO.P,D6,3,DIN*%
%TO.N,Net-(D5-DOUT)*%
X268197500Y-102032500D03*
%TD*%
D11*
%TO.P,D5,1,DOUT*%
%TO.N,Net-(D5-DOUT)*%
X256402541Y-112111849D03*
%TO.P,D5,2,VSS*%
%TO.N,GND*%
X254961918Y-111693991D03*
%TO.P,D5,4,VDD*%
%TO.N,+5V*%
X254953966Y-117106009D03*
%TO.P,D5,3,DIN*%
%TO.N,Net-(D4-DOUT)*%
X253513343Y-116688151D03*
%TD*%
D12*
%TO.P,D4,1,DOUT*%
%TO.N,Net-(D4-DOUT)*%
X235580130Y-56431914D03*
%TO.P,D4,2,VSS*%
%TO.N,GND*%
X234647445Y-57606690D03*
%TO.P,D4,4,VDD*%
%TO.N,+5V*%
X239652686Y-59665225D03*
%TO.P,D4,3,DIN*%
%TO.N,Net-(D3-DOUT)*%
X238720000Y-60840000D03*
%TD*%
D13*
%TO.P,D3,1,DOUT*%
%TO.N,Net-(D3-DOUT)*%
X212323842Y-47049062D03*
%TO.P,D3,2,VSS*%
%TO.N,GND*%
X212030000Y-48520000D03*
%TO.P,D3,4,VDD*%
%TO.N,+5V*%
X217423091Y-48067715D03*
%TO.P,D3,3,DIN*%
%TO.N,Net-(D2-DOUT)*%
X217129249Y-49538653D03*
%TD*%
D14*
%TO.P,D2,1,DOUT*%
%TO.N,Net-(D2-DOUT)*%
X189871750Y-48460202D03*
%TO.P,D2,2,VSS*%
%TO.N,GND*%
X190210579Y-49921432D03*
%TO.P,D2,4,VDD*%
%TO.N,+5V*%
X194937349Y-47285593D03*
%TO.P,D2,3,DIN*%
%TO.N,Net-(D1-DOUT)*%
X195276178Y-48746824D03*
%TD*%
D15*
%TO.P,D1,1,DOUT*%
%TO.N,Net-(D1-DOUT)*%
X170017378Y-59065211D03*
%TO.P,D1,2,VSS*%
%TO.N,GND*%
X170927817Y-60257309D03*
%TO.P,D1,4,VDD*%
%TO.N,+5V*%
X174149987Y-55909020D03*
%TO.P,D1,3,DIN*%
%TO.N,D1*%
X175060427Y-57101118D03*
%TD*%
D16*
%TO.P,H1,1*%
%TO.N,unconnected-(H1-Pad1)*%
X158330000Y-62400000D03*
%TD*%
%TO.P,H2,1*%
%TO.N,unconnected-(H2-Pad1)*%
X256590000Y-127220000D03*
%TD*%
D17*
%TO.P,SW3,1,1*%
%TO.N,D8*%
X219185933Y-38825998D03*
%TO.P,SW3,2,2*%
%TO.N,GND*%
X212461392Y-40072853D03*
%TD*%
%TO.P,SW5,1,1*%
%TO.N,D2*%
X263991337Y-119634601D03*
%TO.P,SW5,2,2*%
%TO.N,GND*%
X263320815Y-112828391D03*
%TD*%
D18*
%TO.P,Brd1,1,GND*%
%TO.N,GND*%
X248307642Y-72903421D03*
%TO.P,Brd1,2,VCC*%
%TO.N,+3.3V*%
X250759015Y-72238316D03*
%TO.P,Brd1,3,SCL*%
%TO.N,SCL*%
X253210390Y-71573211D03*
%TO.P,Brd1,4,SDA*%
%TO.N,SDA*%
X255661764Y-70908105D03*
%TD*%
D16*
%TO.P,H4,1*%
%TO.N,unconnected-(H4-Pad1)*%
X231000000Y-40480000D03*
%TD*%
D17*
%TO.P,SW2,1,1*%
%TO.N,D9*%
X192746848Y-38107548D03*
%TO.P,SW2,2,2*%
%TO.N,GND*%
X187134723Y-42016276D03*
%TD*%
%TO.P,SW1,1,1*%
%TO.N,D10*%
X168409570Y-48421081D03*
%TO.P,SW1,2,2*%
%TO.N,GND*%
X164904696Y-54293896D03*
%TD*%
%TO.P,SW4,1,1*%
%TO.N,D7*%
X245417607Y-52274104D03*
%TO.P,SW4,2,2*%
%TO.N,GND*%
X238865043Y-50315021D03*
%TD*%
D16*
%TO.P,H3,1*%
%TO.N,unconnected-(H3-Pad1)*%
X223790000Y-60770000D03*
%TD*%
D19*
%TO.P,U1,1,PA02_A0_D0*%
%TO.N,unconnected-(U1-PA02_A0_D0-Pad1)*%
X269915706Y-90081603D03*
D20*
%TO.P,U1,2,PA4_A1_D1*%
%TO.N,D1*%
X267476251Y-90789176D03*
%TO.P,U1,3,PA10_A2_D2*%
%TO.N,D2*%
X265036796Y-91496749D03*
%TO.P,U1,4,PA11_A3_D3*%
%TO.N,unconnected-(U1-PA11_A3_D3-Pad4)*%
X262597341Y-92204322D03*
%TO.P,U1,5,PA8_A4_D4_SDA*%
%TO.N,SDA*%
X260157886Y-92911895D03*
D21*
%TO.P,U1,6,PA9_A5_D5_SCL*%
%TO.N,SCL*%
X257718431Y-93619468D03*
D20*
%TO.P,U1,7,PB08_A6_D6_TX*%
%TO.N,unconnected-(U1-PB08_A6_D6_TX-Pad7)*%
X255278976Y-94327041D03*
%TO.P,U1,8,PB09_A7_D7_RX*%
%TO.N,D7*%
X250473608Y-77759877D03*
%TO.P,U1,9,PA7_A8_D8_SCK*%
%TO.N,D8*%
X252913063Y-77052304D03*
%TO.P,U1,10,PA5_A9_D9_MISO*%
%TO.N,D9*%
X255352518Y-76344731D03*
D22*
%TO.P,U1,11,PA6_A10_D10_MOSI*%
%TO.N,D10*%
X257791973Y-75637158D03*
%TO.P,U1,12,3V3*%
%TO.N,+3.3V*%
X260231428Y-74929585D03*
%TO.P,U1,13,GND*%
%TO.N,GND*%
X262670883Y-74222012D03*
%TO.P,U1,14,5V*%
%TO.N,+5V*%
X265110338Y-73514439D03*
%TD*%
D23*
%TO.N,Net-(D2-DOUT)*%
X187840000Y-48730000D03*
X207105735Y-51324265D03*
X212030000Y-51260000D03*
X217129249Y-49538653D03*
%TO.N,Net-(D4-DOUT)*%
X241660000Y-78920000D03*
X241800000Y-69840000D03*
%TO.N,SCL*%
X255780000Y-79120000D03*
X253410000Y-73590000D03*
%TO.N,D1*%
X215350000Y-60210000D03*
X179340000Y-56180000D03*
%TO.N,D10*%
X235700000Y-40740000D03*
%TD*%
D24*
%TO.N,Net-(D2-DOUT)*%
X188109798Y-48460202D02*
X187840000Y-48730000D01*
X211965735Y-51324265D02*
X212030000Y-51260000D01*
X207105735Y-51324265D02*
X211965735Y-51324265D01*
X189871750Y-48460202D02*
X188109798Y-48460202D01*
%TO.N,Net-(D3-DOUT)*%
X212323842Y-47049062D02*
X211508036Y-47049062D01*
X211508036Y-47049062D02*
X210879645Y-47677453D01*
X210879645Y-47677453D02*
X210879645Y-48859229D01*
X242400000Y-64520000D02*
X238720000Y-60840000D01*
X210879645Y-48859229D02*
X219490416Y-57470000D01*
X219490416Y-57470000D02*
X228581471Y-57470000D01*
X228581471Y-57470000D02*
X241551471Y-70440000D01*
X241551471Y-70440000D02*
X242170000Y-70440000D01*
X242400000Y-70210000D02*
X242400000Y-64520000D01*
X242170000Y-70440000D02*
X242400000Y-70210000D01*
%TO.N,Net-(D4-DOUT)*%
X241660000Y-78920000D02*
X247834995Y-85094995D01*
X235580130Y-56431914D02*
X234219736Y-56431914D01*
X252408766Y-115530163D02*
X252408766Y-115799819D01*
X233498113Y-57153537D02*
X233498113Y-61538113D01*
X233498113Y-61538113D02*
X241800000Y-69840000D01*
X247834995Y-85094995D02*
X247834995Y-110956392D01*
X234219736Y-56431914D02*
X233498113Y-57153537D01*
X247834995Y-110956392D02*
X252408766Y-115530163D01*
X252408766Y-115799819D02*
X253297098Y-116688151D01*
X253297098Y-116688151D02*
X253513343Y-116688151D01*
%TO.N,Net-(D5-DOUT)*%
X268197500Y-102032500D02*
X268197500Y-103082500D01*
X268197500Y-103082500D02*
X261578910Y-109701090D01*
X261578910Y-109701090D02*
X258813300Y-109701090D01*
X258813300Y-109701090D02*
X256402541Y-112111849D01*
%TO.N,+5V*%
X268197500Y-100532500D02*
X268197500Y-100222500D01*
X268197500Y-100222500D02*
X271519560Y-96900440D01*
X271519560Y-96900440D02*
X271519560Y-89014828D01*
X271519560Y-89014828D02*
X265388910Y-82884178D01*
X265388910Y-82884178D02*
X265388910Y-74474854D01*
X268197500Y-100532500D02*
X268997500Y-100532500D01*
X268997500Y-100532500D02*
X269297500Y-100832500D01*
X269297500Y-100832500D02*
X269297500Y-104535792D01*
X258846598Y-113430000D02*
X257010000Y-115266598D01*
X269297500Y-104535792D02*
X260403292Y-113430000D01*
X260403292Y-113430000D02*
X258846598Y-113430000D01*
X257010000Y-115266598D02*
X257010000Y-116220000D01*
X257010000Y-116220000D02*
X256123991Y-117106009D01*
X256123991Y-117106009D02*
X254953966Y-117106009D01*
%TO.N,SCL*%
X254331668Y-76953407D02*
X253881500Y-75401387D01*
X253410000Y-74929887D02*
X253410000Y-73590000D01*
X254331668Y-77671668D02*
X254331668Y-76953407D01*
X253881500Y-75401387D02*
X253410000Y-74929887D01*
X255780000Y-79120000D02*
X254331668Y-77671668D01*
%TO.N,D1*%
X266716098Y-89347180D02*
X267197679Y-89828761D01*
X175981545Y-56180000D02*
X179340000Y-56180000D01*
X219210000Y-64070000D02*
X234386350Y-64070000D01*
X175060427Y-57101118D02*
X175981545Y-56180000D01*
X215350000Y-60210000D02*
X219210000Y-64070000D01*
X234386350Y-64070000D02*
X259663530Y-89347180D01*
X259663530Y-89347180D02*
X266716098Y-89347180D01*
%TO.N,Net-(D1-DOUT)*%
X195276178Y-48746824D02*
X195276178Y-49805040D01*
X195276178Y-49805040D02*
X186431218Y-58650000D01*
X170356644Y-61336644D02*
X169730000Y-60710000D01*
X186431218Y-58650000D02*
X175820000Y-58650000D01*
X173133356Y-61336644D02*
X170356644Y-61336644D01*
X175820000Y-58650000D02*
X173133356Y-61336644D01*
X169730000Y-60710000D02*
X169730000Y-59352589D01*
X169730000Y-59352589D02*
X170017378Y-59065211D01*
%TO.N,+5V*%
X194937349Y-47285593D02*
X194937349Y-46864715D01*
X194937349Y-46864715D02*
X194163168Y-46090534D01*
X194163168Y-46090534D02*
X183968473Y-46090534D01*
X183968473Y-46090534D02*
X174149987Y-55909020D01*
X217423091Y-48067715D02*
X217423091Y-47071356D01*
X217423091Y-47071356D02*
X216101735Y-45750000D01*
X196472942Y-45750000D02*
X194937349Y-47285593D01*
X216101735Y-45750000D02*
X196472942Y-45750000D01*
X239652686Y-59665225D02*
X239652686Y-59372686D01*
X239652686Y-59372686D02*
X239974548Y-59050824D01*
X239974548Y-59050824D02*
X239974548Y-58082220D01*
X229960043Y-48067715D02*
X217423091Y-48067715D01*
X239974548Y-58082220D02*
X229960043Y-48067715D01*
X265388910Y-74474854D02*
X250579281Y-59665225D01*
X250579281Y-59665225D02*
X239652686Y-59665225D01*
%TO.N,+3.3V*%
X260510000Y-75890000D02*
X257567161Y-72947161D01*
X257567161Y-72947161D02*
X251467860Y-72947161D01*
X251467860Y-72947161D02*
X250759015Y-72238316D01*
%TO.N,D10*%
X193958219Y-36761780D02*
X193903987Y-36707548D01*
X235700000Y-40740000D02*
X235700000Y-40438437D01*
X235700000Y-40438437D02*
X232833162Y-37571599D01*
X232833162Y-37571599D02*
X232568148Y-37448551D01*
X232568148Y-37448551D02*
X232499615Y-37416731D01*
X232499615Y-37416731D02*
X230995604Y-36761780D01*
X230995604Y-36761780D02*
X193958219Y-36761780D01*
X193903987Y-36707548D02*
X180123103Y-36707548D01*
X180123103Y-36707548D02*
X168409570Y-48421081D01*
%TD*%
%TA.AperFunction,Conductor*%
%TO.N,GND*%
G36*
X204646931Y-30995081D02*
G01*
X206293941Y-31019717D01*
X206296804Y-31019794D01*
X207942759Y-31083922D01*
X207945656Y-31084070D01*
X209589642Y-31187655D01*
X209592504Y-31187871D01*
X211233530Y-31330854D01*
X211236338Y-31331133D01*
X212873437Y-31513427D01*
X212876284Y-31513778D01*
X214508565Y-31735286D01*
X214511414Y-31735708D01*
X216137903Y-31996295D01*
X216140743Y-31996786D01*
X217760493Y-32296302D01*
X217763319Y-32296859D01*
X218959097Y-32547776D01*
X219375390Y-32635129D01*
X219378293Y-32635775D01*
X219687881Y-32708530D01*
X220981774Y-33012605D01*
X220984541Y-33013290D01*
X222578590Y-33428484D01*
X222581362Y-33429242D01*
X224164919Y-33882524D01*
X224167762Y-33883374D01*
X225740017Y-34374511D01*
X225742810Y-34375421D01*
X226330772Y-34574685D01*
X227302778Y-34904104D01*
X227305583Y-34905092D01*
X228852469Y-35471052D01*
X228855249Y-35472108D01*
X229998814Y-35921885D01*
X230053997Y-35964741D01*
X230077249Y-36030628D01*
X230061190Y-36098627D01*
X230010916Y-36147149D01*
X229953428Y-36161280D01*
X194192049Y-36161280D01*
X194144352Y-36148496D01*
X194143282Y-36151082D01*
X194135773Y-36147971D01*
X194097590Y-36137740D01*
X193983044Y-36107047D01*
X193824930Y-36107047D01*
X193817334Y-36107047D01*
X193817318Y-36107048D01*
X180202160Y-36107048D01*
X180044045Y-36107048D01*
X179891318Y-36147971D01*
X179891317Y-36147971D01*
X179891315Y-36147972D01*
X179891312Y-36147973D01*
X179846222Y-36174007D01*
X179846221Y-36174008D01*
X179800304Y-36200518D01*
X179754388Y-36227027D01*
X179754385Y-36227029D01*
X179642581Y-36338834D01*
X169092626Y-46888788D01*
X169031303Y-46922273D01*
X168961611Y-46917289D01*
X168957493Y-46915668D01*
X168905683Y-46894208D01*
X168660721Y-46835398D01*
X168409570Y-46815632D01*
X168158418Y-46835398D01*
X167913459Y-46894207D01*
X167680710Y-46990614D01*
X167465916Y-47122241D01*
X167465913Y-47122242D01*
X167274346Y-47285857D01*
X167110731Y-47477424D01*
X167110730Y-47477427D01*
X166979103Y-47692221D01*
X166882696Y-47924970D01*
X166823887Y-48169929D01*
X166804121Y-48421081D01*
X166823887Y-48672232D01*
X166882696Y-48917191D01*
X166979103Y-49149940D01*
X167110730Y-49364734D01*
X167110731Y-49364737D01*
X167155410Y-49417049D01*
X167274346Y-49556305D01*
X167416882Y-49678042D01*
X167465913Y-49719919D01*
X167465916Y-49719920D01*
X167680710Y-49851547D01*
X167889121Y-49937873D01*
X167913459Y-49947954D01*
X168158422Y-50006764D01*
X168409570Y-50026530D01*
X168660718Y-50006764D01*
X168905681Y-49947954D01*
X169138429Y-49851547D01*
X169353229Y-49719917D01*
X169544794Y-49556305D01*
X169708406Y-49364740D01*
X169840036Y-49149940D01*
X169936443Y-48917192D01*
X169995253Y-48672229D01*
X170015019Y-48421081D01*
X169995253Y-48169933D01*
X169936443Y-47924970D01*
X169914980Y-47873154D01*
X169907512Y-47803688D01*
X169938786Y-47741209D01*
X169941833Y-47738051D01*
X180335519Y-37344367D01*
X180396842Y-37310882D01*
X180423200Y-37308048D01*
X191160063Y-37308048D01*
X191227102Y-37327733D01*
X191272857Y-37380537D01*
X191282801Y-37449695D01*
X191274624Y-37479500D01*
X191219975Y-37611433D01*
X191219975Y-37611435D01*
X191161165Y-37856396D01*
X191141399Y-38107548D01*
X191161165Y-38358699D01*
X191219974Y-38603658D01*
X191316381Y-38836407D01*
X191448008Y-39051201D01*
X191448009Y-39051204D01*
X191503452Y-39116119D01*
X191611624Y-39242772D01*
X191739133Y-39351675D01*
X191803191Y-39406386D01*
X191803194Y-39406387D01*
X192017988Y-39538014D01*
X192250737Y-39634421D01*
X192495700Y-39693231D01*
X192746848Y-39712997D01*
X192997996Y-39693231D01*
X193242959Y-39634421D01*
X193475707Y-39538014D01*
X193690507Y-39406384D01*
X193882072Y-39242772D01*
X194045684Y-39051207D01*
X194177314Y-38836407D01*
X194273721Y-38603659D01*
X194332531Y-38358696D01*
X194352297Y-38107548D01*
X194332531Y-37856400D01*
X194273721Y-37611437D01*
X194241534Y-37533732D01*
X194234066Y-37464264D01*
X194265341Y-37401784D01*
X194325430Y-37366132D01*
X194356096Y-37362280D01*
X218099210Y-37362280D01*
X218166249Y-37381965D01*
X218212004Y-37434769D01*
X218221948Y-37503927D01*
X218192923Y-37567483D01*
X218179746Y-37580565D01*
X218143601Y-37611437D01*
X218050709Y-37690774D01*
X217887094Y-37882341D01*
X217887093Y-37882344D01*
X217755466Y-38097138D01*
X217659059Y-38329887D01*
X217600250Y-38574846D01*
X217580484Y-38825998D01*
X217600250Y-39077149D01*
X217659059Y-39322108D01*
X217755466Y-39554857D01*
X217887093Y-39769651D01*
X217887094Y-39769654D01*
X217887097Y-39769657D01*
X218050709Y-39961222D01*
X218173715Y-40066279D01*
X218242276Y-40124836D01*
X218242279Y-40124837D01*
X218457073Y-40256464D01*
X218619940Y-40323925D01*
X218689822Y-40352871D01*
X218934785Y-40411681D01*
X219185933Y-40431447D01*
X219437081Y-40411681D01*
X219682044Y-40352871D01*
X219914792Y-40256464D01*
X220129592Y-40124834D01*
X220321157Y-39961222D01*
X220484769Y-39769657D01*
X220616399Y-39554857D01*
X220712806Y-39322109D01*
X220771616Y-39077146D01*
X220791382Y-38825998D01*
X220771616Y-38574850D01*
X220712806Y-38329887D01*
X220631872Y-38134494D01*
X220616399Y-38097138D01*
X220484772Y-37882344D01*
X220484771Y-37882341D01*
X220394075Y-37776150D01*
X220321157Y-37690774D01*
X220192123Y-37580568D01*
X220153931Y-37522063D01*
X220153432Y-37452196D01*
X220190786Y-37393149D01*
X220254133Y-37363671D01*
X220272656Y-37362280D01*
X228955057Y-37362280D01*
X229022096Y-37381965D01*
X229067851Y-37434769D01*
X229077795Y-37503927D01*
X229048770Y-37567483D01*
X229022592Y-37590275D01*
X228939635Y-37644147D01*
X228654498Y-37875047D01*
X228654490Y-37875054D01*
X228395054Y-38134490D01*
X228395047Y-38134498D01*
X228164147Y-38419635D01*
X227964320Y-38727343D01*
X227797746Y-39054260D01*
X227666260Y-39396793D01*
X227571294Y-39751209D01*
X227571294Y-39751211D01*
X227513898Y-40113594D01*
X227494696Y-40479999D01*
X227494696Y-40480000D01*
X227513898Y-40846405D01*
X227552404Y-41089522D01*
X227571295Y-41208794D01*
X227656121Y-41525369D01*
X227666260Y-41563206D01*
X227797746Y-41905739D01*
X227964320Y-42232656D01*
X228164147Y-42540364D01*
X228329783Y-42744907D01*
X228395051Y-42825506D01*
X228654494Y-43084949D01*
X228784226Y-43190004D01*
X228939635Y-43315852D01*
X229196252Y-43482500D01*
X229247348Y-43515682D01*
X229574264Y-43682255D01*
X229916801Y-43813742D01*
X230271206Y-43908705D01*
X230633596Y-43966102D01*
X230979734Y-43984241D01*
X230999999Y-43985304D01*
X231000000Y-43985304D01*
X231000001Y-43985304D01*
X231019203Y-43984297D01*
X231366404Y-43966102D01*
X231728794Y-43908705D01*
X232083199Y-43813742D01*
X232425736Y-43682255D01*
X232752652Y-43515682D01*
X233060366Y-43315851D01*
X233345506Y-43084949D01*
X233604949Y-42825506D01*
X233835851Y-42540366D01*
X234035682Y-42232652D01*
X234202255Y-41905736D01*
X234333742Y-41563199D01*
X234428705Y-41208794D01*
X234486102Y-40846404D01*
X234505304Y-40480000D01*
X234500805Y-40394157D01*
X234516954Y-40326181D01*
X234567291Y-40277725D01*
X234635834Y-40264176D01*
X234700822Y-40289834D01*
X234712316Y-40299988D01*
X234878324Y-40465996D01*
X234911809Y-40527319D01*
X234913863Y-40567560D01*
X234894435Y-40739995D01*
X234894435Y-40740003D01*
X234914630Y-40919249D01*
X234914631Y-40919254D01*
X234974211Y-41089523D01*
X235048481Y-41207722D01*
X235070184Y-41242262D01*
X235197738Y-41369816D01*
X235274435Y-41418008D01*
X235345445Y-41462627D01*
X235350478Y-41465789D01*
X235432141Y-41494364D01*
X235520745Y-41525368D01*
X235520750Y-41525369D01*
X235699996Y-41545565D01*
X235700000Y-41545565D01*
X235700004Y-41545565D01*
X235879249Y-41525369D01*
X235879252Y-41525368D01*
X235879255Y-41525368D01*
X236049522Y-41465789D01*
X236202262Y-41369816D01*
X236329816Y-41242262D01*
X236425789Y-41089522D01*
X236485368Y-40919255D01*
X236493576Y-40846405D01*
X236505565Y-40740003D01*
X236505565Y-40739996D01*
X236485369Y-40560750D01*
X236485368Y-40560745D01*
X236448512Y-40455416D01*
X236425789Y-40390478D01*
X236329816Y-40237738D01*
X236217635Y-40125557D01*
X236197929Y-40099876D01*
X236191939Y-40089500D01*
X236180520Y-40069721D01*
X236180518Y-40069719D01*
X236180517Y-40069717D01*
X236064397Y-39953597D01*
X236064374Y-39953576D01*
X234098313Y-37987515D01*
X234064828Y-37926192D01*
X234069812Y-37856500D01*
X234111684Y-37800567D01*
X234177148Y-37776150D01*
X234239558Y-37787999D01*
X234559234Y-37941115D01*
X234901815Y-38105201D01*
X234904481Y-38106518D01*
X236372499Y-38853451D01*
X236375116Y-38854821D01*
X237824870Y-39636786D01*
X237827398Y-39638189D01*
X239258024Y-40454720D01*
X239260501Y-40456174D01*
X240028464Y-40919254D01*
X240671023Y-41306716D01*
X240673552Y-41308282D01*
X242063303Y-42192427D01*
X242065792Y-42194053D01*
X243433902Y-43111247D01*
X243436353Y-43112933D01*
X244339024Y-43749993D01*
X244760496Y-44047447D01*
X244782092Y-44062688D01*
X244784499Y-44064430D01*
X246107103Y-45046209D01*
X246109403Y-45047960D01*
X247408053Y-46061152D01*
X247410359Y-46062995D01*
X247864558Y-46435219D01*
X248684360Y-47107061D01*
X248686638Y-47108974D01*
X249019768Y-47395606D01*
X249935211Y-48183273D01*
X249937393Y-48185196D01*
X250759449Y-48927554D01*
X251159886Y-49289169D01*
X251162069Y-49291189D01*
X252357665Y-50424097D01*
X252359799Y-50426168D01*
X253527902Y-51587445D01*
X253529986Y-51589567D01*
X254011142Y-52091422D01*
X254669934Y-52778555D01*
X254671906Y-52780662D01*
X255738905Y-53948377D01*
X255783007Y-53996642D01*
X255784982Y-53998857D01*
X255989135Y-54233333D01*
X256866570Y-55241099D01*
X256868496Y-55243365D01*
X257317306Y-55784516D01*
X257799920Y-56366426D01*
X257919994Y-56511204D01*
X257921861Y-56513511D01*
X258937976Y-57800284D01*
X258942642Y-57806192D01*
X258944445Y-57808532D01*
X259752295Y-58883605D01*
X259933944Y-59125340D01*
X259935702Y-59127739D01*
X260893334Y-60467897D01*
X260895033Y-60470337D01*
X261820219Y-61833029D01*
X261821860Y-61835509D01*
X262714123Y-63220035D01*
X262715704Y-63222554D01*
X263574512Y-64628091D01*
X263576032Y-64630648D01*
X264310556Y-65900246D01*
X264400853Y-66056320D01*
X264402312Y-66058912D01*
X265192729Y-67504003D01*
X265194125Y-67506629D01*
X265949668Y-68970276D01*
X265951000Y-68972935D01*
X266410337Y-69917693D01*
X266669304Y-70450334D01*
X266671207Y-70454247D01*
X266672471Y-70456929D01*
X267331098Y-71898514D01*
X267356935Y-71955064D01*
X267358132Y-71957768D01*
X267441600Y-72152698D01*
X268006517Y-73471999D01*
X268007654Y-73474747D01*
X268619486Y-75003961D01*
X268620558Y-75006735D01*
X269195565Y-76550253D01*
X269196570Y-76553052D01*
X269734391Y-78109902D01*
X269735328Y-78112725D01*
X270235656Y-79682026D01*
X270236525Y-79684870D01*
X270699067Y-81265695D01*
X270699868Y-81268559D01*
X271124372Y-82860048D01*
X271125104Y-82862931D01*
X271511312Y-84464115D01*
X271511975Y-84467014D01*
X271859679Y-86077038D01*
X271860272Y-86079953D01*
X272169265Y-87697862D01*
X272169787Y-87700789D01*
X272439879Y-89325568D01*
X272440332Y-89328508D01*
X272671387Y-90959354D01*
X272671769Y-90962303D01*
X272863646Y-92598222D01*
X272863957Y-92601180D01*
X273016545Y-94241216D01*
X273016785Y-94244180D01*
X273129997Y-95887402D01*
X273130166Y-95890371D01*
X273203938Y-97535873D01*
X273204035Y-97538846D01*
X273238322Y-99185597D01*
X273238348Y-99188571D01*
X273233131Y-100835673D01*
X273233086Y-100838646D01*
X273188370Y-102485148D01*
X273188254Y-102488120D01*
X273104062Y-104133122D01*
X273103874Y-104136090D01*
X272980261Y-105778520D01*
X272980003Y-105781483D01*
X272817026Y-107420564D01*
X272816696Y-107423520D01*
X272614462Y-109058190D01*
X272614061Y-109061137D01*
X272372685Y-110690459D01*
X272372214Y-110693395D01*
X272091832Y-112316465D01*
X272091291Y-112319390D01*
X271772062Y-113935277D01*
X271771451Y-113938187D01*
X271413557Y-115545976D01*
X271412876Y-115548871D01*
X271016523Y-117147625D01*
X271015772Y-117150503D01*
X270581207Y-118739234D01*
X270580388Y-118742093D01*
X270107840Y-120319968D01*
X270106953Y-120322806D01*
X269596699Y-121888895D01*
X269595744Y-121891712D01*
X269048066Y-123445149D01*
X269047043Y-123447942D01*
X268462284Y-124987752D01*
X268461195Y-124990519D01*
X267852306Y-126484863D01*
X267838541Y-126509914D01*
X267480836Y-127013144D01*
X267476546Y-127018827D01*
X267072665Y-127523021D01*
X267068057Y-127528447D01*
X266635898Y-128008637D01*
X266630991Y-128013784D01*
X266547993Y-128095985D01*
X266171996Y-128468369D01*
X266166796Y-128473231D01*
X265682457Y-128900732D01*
X265676985Y-128905289D01*
X265168913Y-129304283D01*
X265163190Y-129308517D01*
X264633072Y-129677683D01*
X264627115Y-129681583D01*
X264076660Y-130019728D01*
X264070489Y-130023279D01*
X263501549Y-130329267D01*
X263495185Y-130332458D01*
X262909600Y-130605298D01*
X262903062Y-130608118D01*
X262302802Y-130846891D01*
X262296114Y-130849331D01*
X261683146Y-131053258D01*
X261676329Y-131055311D01*
X261052655Y-131223725D01*
X261045730Y-131225383D01*
X260413424Y-131357722D01*
X260406417Y-131358980D01*
X259767555Y-131454812D01*
X259760486Y-131455666D01*
X259117162Y-131514675D01*
X259110056Y-131515121D01*
X258464430Y-131537108D01*
X258457311Y-131537146D01*
X257811471Y-131522043D01*
X257804361Y-131521672D01*
X257160466Y-131469527D01*
X257153389Y-131468749D01*
X256513540Y-131379735D01*
X256506519Y-131378552D01*
X255872833Y-131252960D01*
X255865892Y-131251376D01*
X255240458Y-131089621D01*
X255233619Y-131087641D01*
X254618505Y-130890259D01*
X254611791Y-130887890D01*
X254009023Y-130655532D01*
X254002456Y-130652782D01*
X253493582Y-130422255D01*
X253413992Y-130386199D01*
X253407608Y-130383083D01*
X252835425Y-130083172D01*
X252829231Y-130079695D01*
X252275185Y-129747427D01*
X252269194Y-129743596D01*
X252175358Y-129679725D01*
X251735166Y-129380100D01*
X251729400Y-129375929D01*
X251217106Y-128982376D01*
X251211586Y-128977878D01*
X250722721Y-128555569D01*
X250717469Y-128550762D01*
X250253642Y-128101086D01*
X250248675Y-128095985D01*
X249811432Y-127620443D01*
X249806766Y-127615066D01*
X249483326Y-127219999D01*
X253084696Y-127219999D01*
X253084696Y-127220000D01*
X253103898Y-127586405D01*
X253161294Y-127948788D01*
X253161294Y-127948790D01*
X253256260Y-128303206D01*
X253387746Y-128645739D01*
X253554320Y-128972656D01*
X253754147Y-129280364D01*
X253873454Y-129427695D01*
X253985051Y-129565506D01*
X254244494Y-129824949D01*
X254244498Y-129824952D01*
X254529635Y-130055852D01*
X254752379Y-130200503D01*
X254837348Y-130255682D01*
X255164264Y-130422255D01*
X255506801Y-130553742D01*
X255861206Y-130648705D01*
X256223596Y-130706102D01*
X256569734Y-130724241D01*
X256589999Y-130725304D01*
X256590000Y-130725304D01*
X256590001Y-130725304D01*
X256609203Y-130724297D01*
X256956404Y-130706102D01*
X257318794Y-130648705D01*
X257673199Y-130553742D01*
X258015736Y-130422255D01*
X258342652Y-130255682D01*
X258650366Y-130055851D01*
X258935506Y-129824949D01*
X259194949Y-129565506D01*
X259425851Y-129280366D01*
X259625682Y-128972652D01*
X259792255Y-128645736D01*
X259923742Y-128303199D01*
X260018705Y-127948794D01*
X260076102Y-127586404D01*
X260095304Y-127220000D01*
X260076102Y-126853596D01*
X260018705Y-126491206D01*
X259923742Y-126136801D01*
X259792255Y-125794264D01*
X259625682Y-125467348D01*
X259625679Y-125467343D01*
X259425852Y-125159635D01*
X259194952Y-124874498D01*
X259194949Y-124874494D01*
X258935506Y-124615051D01*
X258650366Y-124384149D01*
X258650364Y-124384147D01*
X258342656Y-124184320D01*
X258015739Y-124017746D01*
X257673206Y-123886260D01*
X257673199Y-123886258D01*
X257318794Y-123791295D01*
X257318790Y-123791294D01*
X257318789Y-123791294D01*
X256956405Y-123733898D01*
X256590001Y-123714696D01*
X256589999Y-123714696D01*
X256223594Y-123733898D01*
X255861211Y-123791294D01*
X255861209Y-123791294D01*
X255506793Y-123886260D01*
X255164260Y-124017746D01*
X254837343Y-124184320D01*
X254529635Y-124384147D01*
X254244498Y-124615047D01*
X254244490Y-124615054D01*
X253985054Y-124874490D01*
X253985047Y-124874498D01*
X253754147Y-125159635D01*
X253554320Y-125467343D01*
X253387746Y-125794260D01*
X253256260Y-126136793D01*
X253161294Y-126491209D01*
X253161294Y-126491211D01*
X253103898Y-126853594D01*
X253084696Y-127219999D01*
X249483326Y-127219999D01*
X249397536Y-127115210D01*
X249393203Y-127109597D01*
X249013306Y-126587039D01*
X249009291Y-126581167D01*
X248977321Y-126531420D01*
X248660047Y-126037720D01*
X248656374Y-126031627D01*
X248522428Y-125794264D01*
X248338871Y-125468988D01*
X248335555Y-125462694D01*
X248282042Y-125353683D01*
X248050881Y-124882787D01*
X248047939Y-124876332D01*
X248047164Y-124874494D01*
X247797014Y-124281031D01*
X247794438Y-124274394D01*
X247735137Y-124107543D01*
X247578093Y-123665678D01*
X247575913Y-123658938D01*
X247394853Y-123038781D01*
X247393057Y-123031898D01*
X247348589Y-122839062D01*
X247247899Y-122402413D01*
X247246499Y-122395432D01*
X247203916Y-122146186D01*
X247137702Y-121758622D01*
X247136714Y-121751630D01*
X247064643Y-121109604D01*
X247064055Y-121102552D01*
X247035202Y-120572299D01*
X257304354Y-120572299D01*
X257304354Y-120745521D01*
X257331452Y-120916611D01*
X257384981Y-121081355D01*
X257463622Y-121235698D01*
X257565440Y-121375838D01*
X257687926Y-121498324D01*
X257828066Y-121600142D01*
X257982409Y-121678783D01*
X258147153Y-121732312D01*
X258318243Y-121759410D01*
X258318244Y-121759410D01*
X258491464Y-121759410D01*
X258491465Y-121759410D01*
X258662555Y-121732312D01*
X258827299Y-121678783D01*
X258981642Y-121600142D01*
X259121782Y-121498324D01*
X259244268Y-121375838D01*
X259346086Y-121235698D01*
X259424727Y-121081355D01*
X259478256Y-120916611D01*
X259505354Y-120745521D01*
X259505354Y-120572299D01*
X259478256Y-120401209D01*
X259424727Y-120236465D01*
X259346086Y-120082122D01*
X259244268Y-119941982D01*
X259121782Y-119819496D01*
X258981642Y-119717678D01*
X258827299Y-119639037D01*
X258813647Y-119634601D01*
X262385888Y-119634601D01*
X262405654Y-119885752D01*
X262464463Y-120130711D01*
X262560870Y-120363460D01*
X262692497Y-120578254D01*
X262692498Y-120578257D01*
X262692501Y-120578260D01*
X262856113Y-120769825D01*
X263004403Y-120896476D01*
X263047680Y-120933439D01*
X263047683Y-120933440D01*
X263262477Y-121065067D01*
X263495226Y-121161474D01*
X263740189Y-121220284D01*
X263991337Y-121240050D01*
X264242485Y-121220284D01*
X264487448Y-121161474D01*
X264720196Y-121065067D01*
X264934996Y-120933437D01*
X265126561Y-120769825D01*
X265290173Y-120578260D01*
X265421803Y-120363460D01*
X265518210Y-120130712D01*
X265577020Y-119885749D01*
X265596786Y-119634601D01*
X265577020Y-119383453D01*
X265518210Y-119138490D01*
X265421803Y-118905742D01*
X265421803Y-118905741D01*
X265290176Y-118690947D01*
X265290175Y-118690944D01*
X265253212Y-118647667D01*
X265126561Y-118499377D01*
X264999908Y-118391205D01*
X264934993Y-118335762D01*
X264934990Y-118335761D01*
X264720196Y-118204134D01*
X264487447Y-118107727D01*
X264242488Y-118048918D01*
X263991337Y-118029152D01*
X263740185Y-118048918D01*
X263495226Y-118107727D01*
X263262477Y-118204134D01*
X263047683Y-118335761D01*
X263047680Y-118335762D01*
X262856113Y-118499377D01*
X262692498Y-118690944D01*
X262692497Y-118690947D01*
X262560870Y-118905741D01*
X262464463Y-119138490D01*
X262405654Y-119383449D01*
X262385888Y-119634601D01*
X258813647Y-119634601D01*
X258662555Y-119585508D01*
X258662553Y-119585507D01*
X258662552Y-119585507D01*
X258531125Y-119564691D01*
X258491465Y-119558410D01*
X258318243Y-119558410D01*
X258278582Y-119564691D01*
X258147156Y-119585507D01*
X258147153Y-119585508D01*
X257996062Y-119634601D01*
X257982406Y-119639038D01*
X257828065Y-119717678D01*
X257748110Y-119775769D01*
X257687926Y-119819496D01*
X257687924Y-119819498D01*
X257687923Y-119819498D01*
X257565442Y-119941979D01*
X257565442Y-119941980D01*
X257565440Y-119941982D01*
X257521713Y-120002166D01*
X257463622Y-120082121D01*
X257384982Y-120236462D01*
X257331451Y-120401212D01*
X257304354Y-120572299D01*
X247035202Y-120572299D01*
X247028951Y-120457428D01*
X247028770Y-120450374D01*
X247030749Y-119804345D01*
X247030975Y-119797233D01*
X247035793Y-119717678D01*
X247069412Y-119162556D01*
X247071112Y-119148279D01*
X247071901Y-119143859D01*
X247154828Y-118679029D01*
X247297657Y-117699670D01*
X247409356Y-116716275D01*
X247489813Y-115729831D01*
X247538945Y-114741332D01*
X247556704Y-113751773D01*
X247543072Y-112762147D01*
X247498068Y-111773566D01*
X247514683Y-111705707D01*
X247565351Y-111657598D01*
X247633986Y-111644520D01*
X247698796Y-111670624D01*
X247709620Y-111680252D01*
X251771946Y-115742578D01*
X251805431Y-115803901D01*
X251808265Y-115830259D01*
X251808265Y-115878873D01*
X251808264Y-115878873D01*
X251849190Y-116031608D01*
X251849191Y-116031609D01*
X251872550Y-116072067D01*
X251872551Y-116072068D01*
X251928243Y-116168531D01*
X251928247Y-116168536D01*
X252047115Y-116287404D01*
X252047121Y-116287409D01*
X252487078Y-116727366D01*
X252520563Y-116788689D01*
X252518489Y-116849589D01*
X252428235Y-117160756D01*
X252428234Y-117160761D01*
X252410909Y-117274309D01*
X252410909Y-117274314D01*
X252427806Y-117426747D01*
X252427808Y-117426754D01*
X252483579Y-117569620D01*
X252483583Y-117569628D01*
X252574435Y-117693192D01*
X252574436Y-117693193D01*
X252574437Y-117693194D01*
X252694177Y-117789039D01*
X252799378Y-117835164D01*
X253502741Y-118039177D01*
X253502746Y-118039177D01*
X253502747Y-118039178D01*
X253513041Y-118040748D01*
X253616297Y-118056504D01*
X253768738Y-118039606D01*
X253830678Y-118015425D01*
X253900284Y-118009383D01*
X253962109Y-118041933D01*
X253975668Y-118057476D01*
X254015060Y-118111052D01*
X254134800Y-118206897D01*
X254240001Y-118253022D01*
X254943364Y-118457035D01*
X254943369Y-118457035D01*
X254943370Y-118457036D01*
X254953664Y-118458606D01*
X255056920Y-118474362D01*
X255209361Y-118457464D01*
X255352235Y-118401689D01*
X255475804Y-118310834D01*
X255571649Y-118191094D01*
X255617774Y-118085893D01*
X255701869Y-117795964D01*
X255739449Y-117737064D01*
X255802909Y-117707830D01*
X255820960Y-117706509D01*
X256037322Y-117706509D01*
X256037338Y-117706510D01*
X256044934Y-117706510D01*
X256203045Y-117706510D01*
X256203048Y-117706510D01*
X256355776Y-117665586D01*
X256405895Y-117636648D01*
X256492707Y-117586529D01*
X256604511Y-117474725D01*
X256604511Y-117474723D01*
X256614719Y-117464516D01*
X256614721Y-117464513D01*
X257368506Y-116710728D01*
X257368511Y-116710724D01*
X257378714Y-116700520D01*
X257378716Y-116700520D01*
X257490520Y-116588716D01*
X257497864Y-116575996D01*
X257548430Y-116527779D01*
X257617037Y-116514555D01*
X257681902Y-116540522D01*
X257719813Y-116590541D01*
X257797254Y-116777500D01*
X257797258Y-116777510D01*
X257944761Y-117032993D01*
X258124352Y-117267040D01*
X258124358Y-117267047D01*
X258332952Y-117475641D01*
X258332959Y-117475647D01*
X258567006Y-117655238D01*
X258822489Y-117802741D01*
X258822490Y-117802741D01*
X258822493Y-117802743D01*
X259095048Y-117915639D01*
X259380007Y-117991993D01*
X259672494Y-118030500D01*
X259672501Y-118030500D01*
X259967499Y-118030500D01*
X259967506Y-118030500D01*
X260259993Y-117991993D01*
X260544952Y-117915639D01*
X260817507Y-117802743D01*
X261072994Y-117655238D01*
X261307042Y-117475646D01*
X261515646Y-117267042D01*
X261695238Y-117032994D01*
X261842743Y-116777507D01*
X261955639Y-116504952D01*
X262031993Y-116219993D01*
X262070500Y-115927506D01*
X262070500Y-115632494D01*
X262031993Y-115340007D01*
X261955639Y-115055048D01*
X261842743Y-114782493D01*
X261837920Y-114774140D01*
X261695238Y-114527006D01*
X261515647Y-114292959D01*
X261515641Y-114292952D01*
X261307047Y-114084358D01*
X261307040Y-114084352D01*
X261073002Y-113904768D01*
X261073000Y-113904767D01*
X261072994Y-113904762D01*
X261025772Y-113877498D01*
X260977558Y-113826931D01*
X260964336Y-113758324D01*
X260990304Y-113693459D01*
X261000076Y-113682449D01*
X261553400Y-113129125D01*
X261614719Y-113095643D01*
X261684411Y-113100627D01*
X261740344Y-113142499D01*
X261761651Y-113187861D01*
X261794418Y-113324345D01*
X261814218Y-113372147D01*
X262580409Y-112950495D01*
X262599637Y-113047158D01*
X262656174Y-113183649D01*
X262738252Y-113306488D01*
X262820722Y-113388958D01*
X262055238Y-113810222D01*
X262055237Y-113810222D01*
X262185942Y-113963258D01*
X262377447Y-114126819D01*
X262377452Y-114126822D01*
X262592183Y-114258410D01*
X262824858Y-114354787D01*
X263069742Y-114413578D01*
X263320815Y-114433338D01*
X263571886Y-114413578D01*
X263816774Y-114354785D01*
X263864571Y-114334986D01*
X263442919Y-113568796D01*
X263539582Y-113549569D01*
X263676073Y-113493032D01*
X263798912Y-113410954D01*
X263881382Y-113328483D01*
X264302646Y-114093966D01*
X264455679Y-113963266D01*
X264455684Y-113963260D01*
X264619243Y-113771758D01*
X264619246Y-113771753D01*
X264750834Y-113557022D01*
X264847211Y-113324347D01*
X264906002Y-113079463D01*
X264925762Y-112828391D01*
X264906002Y-112577319D01*
X264847209Y-112332428D01*
X264827410Y-112284633D01*
X264827409Y-112284633D01*
X264061220Y-112706284D01*
X264041993Y-112609624D01*
X263985456Y-112473133D01*
X263903378Y-112350294D01*
X263820906Y-112267822D01*
X264586390Y-111846558D01*
X264586391Y-111846558D01*
X264455687Y-111693523D01*
X264264182Y-111529962D01*
X264264177Y-111529959D01*
X264049446Y-111398371D01*
X263816771Y-111301994D01*
X263680286Y-111269228D01*
X263619694Y-111234438D01*
X263587530Y-111172411D01*
X263594006Y-111102842D01*
X263621548Y-111060977D01*
X269778020Y-104904508D01*
X269857077Y-104767576D01*
X269898001Y-104614849D01*
X269898001Y-104456734D01*
X269898001Y-104449139D01*
X269898000Y-104449121D01*
X269898000Y-100753445D01*
X269898000Y-100753443D01*
X269876890Y-100674659D01*
X269857077Y-100600715D01*
X269828139Y-100550595D01*
X269778020Y-100463784D01*
X269666216Y-100351980D01*
X269666215Y-100351979D01*
X269661885Y-100347649D01*
X269661874Y-100347639D01*
X269530407Y-100216172D01*
X269496922Y-100154849D01*
X269495152Y-100144697D01*
X269483007Y-100052437D01*
X269436742Y-99940745D01*
X269429273Y-99871276D01*
X269460548Y-99808796D01*
X269463594Y-99805639D01*
X271888273Y-97380961D01*
X271888276Y-97380960D01*
X272000080Y-97269156D01*
X272050199Y-97182344D01*
X272079137Y-97132225D01*
X272120060Y-96979498D01*
X272120060Y-96821383D01*
X272120060Y-88935771D01*
X272079137Y-88783044D01*
X272077690Y-88780537D01*
X272000084Y-88646118D01*
X272000081Y-88646114D01*
X272000080Y-88646112D01*
X271888276Y-88534308D01*
X271888275Y-88534307D01*
X271883945Y-88529977D01*
X271883934Y-88529967D01*
X266025729Y-82671762D01*
X265992244Y-82610439D01*
X265989410Y-82584081D01*
X265989410Y-75763573D01*
X266009095Y-75696534D01*
X266056016Y-75655429D01*
X266055355Y-75654269D01*
X266059577Y-75651862D01*
X266059583Y-75651860D01*
X266235450Y-75532453D01*
X266390472Y-75387005D01*
X266520834Y-75219096D01*
X266623323Y-75032861D01*
X266695416Y-74832886D01*
X266735340Y-74624096D01*
X266742110Y-74411630D01*
X266715559Y-74200722D01*
X266711620Y-74187143D01*
X266307001Y-72792163D01*
X266099198Y-72075733D01*
X266008773Y-71883351D01*
X266001247Y-71872267D01*
X265903289Y-71727992D01*
X265889365Y-71707484D01*
X265889362Y-71707481D01*
X265889361Y-71707479D01*
X265743920Y-71552465D01*
X265743919Y-71552464D01*
X265743917Y-71552462D01*
X265576008Y-71422100D01*
X265576006Y-71422099D01*
X265576005Y-71422098D01*
X265389770Y-71319609D01*
X265189796Y-71247517D01*
X265189797Y-71247517D01*
X264981015Y-71207595D01*
X264981010Y-71207594D01*
X264981008Y-71207594D01*
X264981005Y-71207593D01*
X264980998Y-71207593D01*
X264768549Y-71200824D01*
X264768541Y-71200824D01*
X264557626Y-71227376D01*
X264353484Y-71286589D01*
X264353472Y-71286593D01*
X264161091Y-71377017D01*
X263985227Y-71496424D01*
X263985221Y-71496428D01*
X263830204Y-71641871D01*
X263730653Y-71770097D01*
X263673992Y-71810979D01*
X263604224Y-71814738D01*
X263545026Y-71781735D01*
X251066871Y-59303580D01*
X251066869Y-59303577D01*
X250947998Y-59184706D01*
X250947997Y-59184705D01*
X250837319Y-59120805D01*
X250837317Y-59120804D01*
X250811066Y-59105648D01*
X250811065Y-59105647D01*
X250811064Y-59105647D01*
X250755162Y-59090668D01*
X250658338Y-59064724D01*
X250500224Y-59064724D01*
X250492628Y-59064724D01*
X250492612Y-59064725D01*
X244769445Y-59064725D01*
X244702406Y-59045040D01*
X244656651Y-58992236D01*
X244646707Y-58923078D01*
X244675732Y-58859522D01*
X244713150Y-58830240D01*
X244732500Y-58820380D01*
X244824986Y-58773257D01*
X244965126Y-58671439D01*
X245087612Y-58548953D01*
X245189430Y-58408813D01*
X245268071Y-58254470D01*
X245321600Y-58089726D01*
X245348698Y-57918636D01*
X245348698Y-57745414D01*
X245321600Y-57574324D01*
X245268071Y-57409580D01*
X245189430Y-57255237D01*
X245087612Y-57115097D01*
X244965126Y-56992611D01*
X244824986Y-56890793D01*
X244670643Y-56812152D01*
X244505899Y-56758623D01*
X244505897Y-56758622D01*
X244505896Y-56758622D01*
X244374469Y-56737806D01*
X244334809Y-56731525D01*
X244161587Y-56731525D01*
X244121926Y-56737806D01*
X243990500Y-56758622D01*
X243990497Y-56758623D01*
X243832946Y-56809815D01*
X243825750Y-56812153D01*
X243671409Y-56890793D01*
X243625941Y-56923828D01*
X243531270Y-56992611D01*
X243531268Y-56992613D01*
X243531267Y-56992613D01*
X243408786Y-57115094D01*
X243408786Y-57115095D01*
X243408784Y-57115097D01*
X243365057Y-57175281D01*
X243306966Y-57255236D01*
X243228326Y-57409577D01*
X243174795Y-57574327D01*
X243147698Y-57745414D01*
X243147698Y-57918635D01*
X243174524Y-58088013D01*
X243174796Y-58089726D01*
X243228325Y-58254470D01*
X243306966Y-58408813D01*
X243408784Y-58548953D01*
X243531270Y-58671439D01*
X243671410Y-58773257D01*
X243715363Y-58795652D01*
X243783246Y-58830240D01*
X243834042Y-58878214D01*
X243850837Y-58946035D01*
X243828300Y-59012170D01*
X243773585Y-59055622D01*
X243726951Y-59064725D01*
X240699048Y-59064725D01*
X240632009Y-59045040D01*
X240586254Y-58992236D01*
X240575048Y-58940725D01*
X240575048Y-58171280D01*
X240575049Y-58171267D01*
X240575049Y-58003165D01*
X240575049Y-58003163D01*
X240534125Y-57850435D01*
X240455068Y-57713504D01*
X239854447Y-57112883D01*
X239820962Y-57051560D01*
X239825946Y-56981868D01*
X239867818Y-56925935D01*
X239933282Y-56901518D01*
X239958309Y-56902262D01*
X240122119Y-56923829D01*
X240122126Y-56923829D01*
X240417124Y-56923829D01*
X240417131Y-56923829D01*
X240709618Y-56885322D01*
X240994577Y-56808968D01*
X241267132Y-56696072D01*
X241522619Y-56548567D01*
X241756667Y-56368975D01*
X241965271Y-56160371D01*
X242144863Y-55926323D01*
X242292368Y-55670836D01*
X242405264Y-55398281D01*
X242481618Y-55113322D01*
X242520125Y-54820835D01*
X242520125Y-54525823D01*
X242481618Y-54233336D01*
X242405264Y-53948377D01*
X242292368Y-53675822D01*
X242232970Y-53572942D01*
X242144863Y-53420335D01*
X241965272Y-53186288D01*
X241965266Y-53186281D01*
X241756672Y-52977687D01*
X241756665Y-52977681D01*
X241522618Y-52798090D01*
X241267135Y-52650587D01*
X241267125Y-52650583D01*
X240994586Y-52537693D01*
X240994579Y-52537691D01*
X240994577Y-52537690D01*
X240709618Y-52461336D01*
X240660738Y-52454900D01*
X240417138Y-52422829D01*
X240417131Y-52422829D01*
X240122119Y-52422829D01*
X240122111Y-52422829D01*
X239871180Y-52455866D01*
X239829632Y-52461336D01*
X239636997Y-52512952D01*
X239544673Y-52537690D01*
X239544663Y-52537693D01*
X239272124Y-52650583D01*
X239272114Y-52650587D01*
X239016631Y-52798090D01*
X238782584Y-52977681D01*
X238782577Y-52977687D01*
X238573983Y-53186281D01*
X238573977Y-53186288D01*
X238394386Y-53420335D01*
X238246883Y-53675818D01*
X238246879Y-53675828D01*
X238133989Y-53948367D01*
X238133986Y-53948377D01*
X238057633Y-54233333D01*
X238057631Y-54233344D01*
X238019125Y-54525815D01*
X238019125Y-54820828D01*
X238019126Y-54820845D01*
X238040690Y-54984640D01*
X238029924Y-55053675D01*
X237983544Y-55105931D01*
X237916275Y-55124816D01*
X237849475Y-55104335D01*
X237830070Y-55088506D01*
X234169587Y-51428023D01*
X235190552Y-51428023D01*
X235190552Y-51601245D01*
X235195672Y-51633572D01*
X235216054Y-51762262D01*
X235217650Y-51772335D01*
X235271179Y-51937079D01*
X235349820Y-52091422D01*
X235451638Y-52231562D01*
X235574124Y-52354048D01*
X235714264Y-52455866D01*
X235868607Y-52534507D01*
X236033351Y-52588036D01*
X236204441Y-52615134D01*
X236204442Y-52615134D01*
X236377662Y-52615134D01*
X236377663Y-52615134D01*
X236548753Y-52588036D01*
X236713497Y-52534507D01*
X236867840Y-52455866D01*
X237007980Y-52354048D01*
X237087924Y-52274104D01*
X243812158Y-52274104D01*
X243831924Y-52525255D01*
X243890733Y-52770214D01*
X243987140Y-53002963D01*
X244118767Y-53217757D01*
X244118768Y-53217760D01*
X244118771Y-53217763D01*
X244282383Y-53409328D01*
X244430673Y-53535979D01*
X244473950Y-53572942D01*
X244473953Y-53572943D01*
X244688747Y-53704570D01*
X244802680Y-53751762D01*
X244921496Y-53800977D01*
X245166459Y-53859787D01*
X245417607Y-53879553D01*
X245668755Y-53859787D01*
X245913718Y-53800977D01*
X246146466Y-53704570D01*
X246361266Y-53572940D01*
X246552831Y-53409328D01*
X246716443Y-53217763D01*
X246848073Y-53002963D01*
X246944480Y-52770215D01*
X247003290Y-52525252D01*
X247023056Y-52274104D01*
X247003290Y-52022956D01*
X246944480Y-51777993D01*
X246932678Y-51749500D01*
X246848073Y-51545244D01*
X246716446Y-51330450D01*
X246716445Y-51330447D01*
X246671418Y-51277727D01*
X246552831Y-51138880D01*
X246394035Y-51003255D01*
X246361263Y-50975265D01*
X246361260Y-50975264D01*
X246146466Y-50843637D01*
X245913717Y-50747230D01*
X245668758Y-50688421D01*
X245417607Y-50668655D01*
X245166455Y-50688421D01*
X244921496Y-50747230D01*
X244688747Y-50843637D01*
X244473953Y-50975264D01*
X244473950Y-50975265D01*
X244282383Y-51138880D01*
X244118768Y-51330447D01*
X244118767Y-51330450D01*
X243987140Y-51545244D01*
X243890733Y-51777993D01*
X243831924Y-52022952D01*
X243812158Y-52274104D01*
X237087924Y-52274104D01*
X237130466Y-52231562D01*
X237232284Y-52091422D01*
X237310925Y-51937079D01*
X237364454Y-51772335D01*
X237391552Y-51601245D01*
X237391552Y-51428023D01*
X237387491Y-51402386D01*
X237396444Y-51333098D01*
X237441439Y-51279645D01*
X237508190Y-51259004D01*
X237575504Y-51277727D01*
X237604254Y-51302459D01*
X237730173Y-51449890D01*
X237921675Y-51613449D01*
X237921680Y-51613452D01*
X238136411Y-51745040D01*
X238369086Y-51841417D01*
X238613977Y-51900209D01*
X238613976Y-51900209D01*
X238797149Y-51914624D01*
X238697409Y-51046370D01*
X238791174Y-51065021D01*
X238938912Y-51065021D01*
X239083810Y-51036199D01*
X239194274Y-50990442D01*
X239293879Y-51857530D01*
X239360997Y-51841417D01*
X239593674Y-51745040D01*
X239808405Y-51613452D01*
X239808410Y-51613449D01*
X239999912Y-51449890D01*
X240163471Y-51258388D01*
X240163474Y-51258383D01*
X240295062Y-51043652D01*
X240391439Y-50810977D01*
X240450231Y-50566087D01*
X240464646Y-50382913D01*
X239596392Y-50482652D01*
X239615043Y-50388890D01*
X239615043Y-50241152D01*
X239586221Y-50096254D01*
X239540463Y-49985787D01*
X240407552Y-49886183D01*
X240391440Y-49819068D01*
X240391439Y-49819066D01*
X240295062Y-49586389D01*
X240163474Y-49371658D01*
X240163471Y-49371653D01*
X239999912Y-49180151D01*
X239808410Y-49016592D01*
X239808405Y-49016589D01*
X239593674Y-48885001D01*
X239360999Y-48788624D01*
X239116115Y-48729834D01*
X238932935Y-48715416D01*
X239032674Y-49583671D01*
X238938912Y-49565021D01*
X238791174Y-49565021D01*
X238646276Y-49593843D01*
X238535809Y-49639600D01*
X238436205Y-48772511D01*
X238369082Y-48788626D01*
X238136415Y-48884999D01*
X238136412Y-48885001D01*
X237921680Y-49016589D01*
X237921675Y-49016592D01*
X237730173Y-49180151D01*
X237566614Y-49371653D01*
X237566611Y-49371658D01*
X237435023Y-49586389D01*
X237338646Y-49819064D01*
X237279856Y-50063948D01*
X237265438Y-50247127D01*
X238133693Y-50147387D01*
X238115043Y-50241152D01*
X238115043Y-50388890D01*
X238143865Y-50533788D01*
X238189621Y-50644252D01*
X237322531Y-50743857D01*
X237306058Y-50767407D01*
X237251500Y-50811056D01*
X237182005Y-50818281D01*
X237119636Y-50786786D01*
X237116770Y-50784010D01*
X237007982Y-50675222D01*
X237007980Y-50675220D01*
X236867840Y-50573402D01*
X236713497Y-50494761D01*
X236548753Y-50441232D01*
X236548751Y-50441231D01*
X236548750Y-50441231D01*
X236417323Y-50420415D01*
X236377663Y-50414134D01*
X236204441Y-50414134D01*
X236164780Y-50420415D01*
X236033354Y-50441231D01*
X235868604Y-50494762D01*
X235714263Y-50573402D01*
X235675458Y-50601596D01*
X235574124Y-50675220D01*
X235574122Y-50675222D01*
X235574121Y-50675222D01*
X235451640Y-50797703D01*
X235451640Y-50797704D01*
X235451638Y-50797706D01*
X235433986Y-50822002D01*
X235349820Y-50937845D01*
X235271180Y-51092186D01*
X235217649Y-51256936D01*
X235190552Y-51428023D01*
X234169587Y-51428023D01*
X230447633Y-47706070D01*
X230447631Y-47706067D01*
X230328760Y-47587196D01*
X230328759Y-47587195D01*
X230229669Y-47529986D01*
X230229668Y-47529985D01*
X230191826Y-47508137D01*
X230125111Y-47490261D01*
X230039100Y-47467214D01*
X229880986Y-47467214D01*
X229873390Y-47467214D01*
X229873374Y-47467215D01*
X218649566Y-47467215D01*
X218582527Y-47447530D01*
X218580590Y-47446260D01*
X218451722Y-47359999D01*
X218451723Y-47359999D01*
X218342982Y-47322988D01*
X218342981Y-47322987D01*
X218342979Y-47322987D01*
X218342974Y-47322986D01*
X218342970Y-47322985D01*
X218123301Y-47279102D01*
X218061416Y-47246666D01*
X218026892Y-47185922D01*
X218023592Y-47157505D01*
X218023592Y-46992300D01*
X218023592Y-46992299D01*
X217982668Y-46839572D01*
X217952277Y-46786932D01*
X217903615Y-46702646D01*
X217903609Y-46702638D01*
X217339208Y-46138237D01*
X216707933Y-45506963D01*
X216674449Y-45445641D01*
X216679433Y-45375949D01*
X216721305Y-45320016D01*
X216733615Y-45311896D01*
X216780493Y-45284831D01*
X216952994Y-45185238D01*
X217187042Y-45005646D01*
X217395646Y-44797042D01*
X217575238Y-44562994D01*
X217722743Y-44307507D01*
X217759597Y-44218534D01*
X219581075Y-44218534D01*
X219581075Y-44391756D01*
X219608173Y-44562846D01*
X219661702Y-44727590D01*
X219740343Y-44881933D01*
X219842161Y-45022073D01*
X219964647Y-45144559D01*
X220104787Y-45246377D01*
X220259130Y-45325018D01*
X220423874Y-45378547D01*
X220594964Y-45405645D01*
X220594965Y-45405645D01*
X220768185Y-45405645D01*
X220768186Y-45405645D01*
X220939276Y-45378547D01*
X221104020Y-45325018D01*
X221258363Y-45246377D01*
X221398503Y-45144559D01*
X221520989Y-45022073D01*
X221622807Y-44881933D01*
X221701448Y-44727590D01*
X221754977Y-44562846D01*
X221782075Y-44391756D01*
X221782075Y-44218534D01*
X221754977Y-44047444D01*
X221701448Y-43882700D01*
X221622807Y-43728357D01*
X221520989Y-43588217D01*
X221398503Y-43465731D01*
X221258363Y-43363913D01*
X221104020Y-43285272D01*
X220939276Y-43231743D01*
X220939274Y-43231742D01*
X220939273Y-43231742D01*
X220807846Y-43210926D01*
X220768186Y-43204645D01*
X220594964Y-43204645D01*
X220555303Y-43210926D01*
X220423877Y-43231742D01*
X220259127Y-43285273D01*
X220104786Y-43363913D01*
X220033985Y-43415354D01*
X219964647Y-43465731D01*
X219964645Y-43465733D01*
X219964644Y-43465733D01*
X219842163Y-43588214D01*
X219842163Y-43588215D01*
X219842161Y-43588217D01*
X219817858Y-43621667D01*
X219740343Y-43728356D01*
X219661703Y-43882697D01*
X219608172Y-44047447D01*
X219604601Y-44069995D01*
X219581075Y-44218534D01*
X217759597Y-44218534D01*
X217835639Y-44034952D01*
X217911993Y-43749993D01*
X217950500Y-43457506D01*
X217950500Y-43162494D01*
X217911993Y-42870007D01*
X217835639Y-42585048D01*
X217722743Y-42312493D01*
X217678027Y-42235043D01*
X217575238Y-42057006D01*
X217395647Y-41822959D01*
X217395641Y-41822952D01*
X217187047Y-41614358D01*
X217187040Y-41614352D01*
X216952993Y-41434761D01*
X216697510Y-41287258D01*
X216697500Y-41287254D01*
X216424961Y-41174364D01*
X216424954Y-41174362D01*
X216424952Y-41174361D01*
X216139993Y-41098007D01*
X216091113Y-41091571D01*
X215847513Y-41059500D01*
X215847506Y-41059500D01*
X215552494Y-41059500D01*
X215552486Y-41059500D01*
X215274085Y-41096153D01*
X215260007Y-41098007D01*
X215034601Y-41158404D01*
X214975048Y-41174361D01*
X214975038Y-41174364D01*
X214702499Y-41287254D01*
X214702489Y-41287258D01*
X214447006Y-41434761D01*
X214212959Y-41614352D01*
X214212952Y-41614358D01*
X214004358Y-41822952D01*
X214004352Y-41822959D01*
X213824761Y-42057006D01*
X213677258Y-42312489D01*
X213677254Y-42312499D01*
X213564364Y-42585038D01*
X213564361Y-42585048D01*
X213515802Y-42766276D01*
X213488008Y-42870004D01*
X213488006Y-42870015D01*
X213449500Y-43162486D01*
X213449500Y-43457513D01*
X213476001Y-43658803D01*
X213488007Y-43749993D01*
X213538407Y-43938088D01*
X213564361Y-44034951D01*
X213564364Y-44034961D01*
X213677254Y-44307500D01*
X213677258Y-44307510D01*
X213824761Y-44562993D01*
X214004352Y-44797040D01*
X214004358Y-44797047D01*
X214145130Y-44937819D01*
X214178615Y-44999142D01*
X214173631Y-45068834D01*
X214131759Y-45124767D01*
X214066295Y-45149184D01*
X214057449Y-45149500D01*
X196393882Y-45149500D01*
X196352961Y-45160464D01*
X196352961Y-45160465D01*
X196315693Y-45170451D01*
X196241156Y-45190423D01*
X196241151Y-45190426D01*
X196104232Y-45269475D01*
X196104224Y-45269481D01*
X195992420Y-45381286D01*
X195235468Y-46138237D01*
X195174145Y-46171722D01*
X195104453Y-46166738D01*
X195060106Y-46138237D01*
X194650758Y-45728889D01*
X194650756Y-45728886D01*
X194531885Y-45610015D01*
X194531884Y-45610014D01*
X194445072Y-45559894D01*
X194445072Y-45559893D01*
X194445068Y-45559892D01*
X194394953Y-45530957D01*
X194242225Y-45490033D01*
X194084111Y-45490033D01*
X194076515Y-45490033D01*
X194076499Y-45490034D01*
X193042017Y-45490034D01*
X192974978Y-45470349D01*
X192929223Y-45417545D01*
X192919279Y-45348387D01*
X192948304Y-45284831D01*
X192954336Y-45278353D01*
X193115641Y-45117047D01*
X193115646Y-45117042D01*
X193295238Y-44882994D01*
X193442743Y-44627507D01*
X193555639Y-44354952D01*
X193631993Y-44069993D01*
X193670500Y-43777506D01*
X193670500Y-43482494D01*
X193631993Y-43190007D01*
X193555639Y-42905048D01*
X193546052Y-42881904D01*
X193489306Y-42744907D01*
X193442743Y-42632493D01*
X193406148Y-42569109D01*
X193306139Y-42395888D01*
X195268201Y-42395888D01*
X195268201Y-42569109D01*
X195294839Y-42737301D01*
X195295299Y-42740200D01*
X195348828Y-42904944D01*
X195427469Y-43059287D01*
X195529287Y-43199427D01*
X195651773Y-43321913D01*
X195791913Y-43423731D01*
X195946256Y-43502372D01*
X196111000Y-43555901D01*
X196282090Y-43582999D01*
X196282091Y-43582999D01*
X196455311Y-43582999D01*
X196455312Y-43582999D01*
X196626402Y-43555901D01*
X196791146Y-43502372D01*
X196945489Y-43423731D01*
X197085629Y-43321913D01*
X197208115Y-43199427D01*
X197309933Y-43059287D01*
X197388574Y-42904944D01*
X197442103Y-42740200D01*
X197469201Y-42569110D01*
X197469201Y-42395888D01*
X197442649Y-42228243D01*
X209617926Y-42228243D01*
X209617926Y-42401464D01*
X209639925Y-42540366D01*
X209645024Y-42572555D01*
X209698553Y-42737299D01*
X209777194Y-42891642D01*
X209879012Y-43031782D01*
X210001498Y-43154268D01*
X210141638Y-43256086D01*
X210295981Y-43334727D01*
X210460725Y-43388256D01*
X210631815Y-43415354D01*
X210631816Y-43415354D01*
X210805036Y-43415354D01*
X210805037Y-43415354D01*
X210976127Y-43388256D01*
X211140871Y-43334727D01*
X211295214Y-43256086D01*
X211435354Y-43154268D01*
X211557840Y-43031782D01*
X211659658Y-42891642D01*
X211738299Y-42737299D01*
X211791828Y-42572555D01*
X211818926Y-42401465D01*
X211818926Y-42228243D01*
X211791828Y-42057153D01*
X211738299Y-41892409D01*
X211659658Y-41738066D01*
X211642177Y-41714006D01*
X211618698Y-41648200D01*
X211634523Y-41580146D01*
X211684629Y-41531451D01*
X211753107Y-41517576D01*
X211789949Y-41526560D01*
X211965435Y-41599249D01*
X212210319Y-41658040D01*
X212461392Y-41677800D01*
X212712464Y-41658040D01*
X212957342Y-41599250D01*
X213131001Y-41527318D01*
X212646384Y-40800749D01*
X212680159Y-40794031D01*
X212816650Y-40737494D01*
X212939489Y-40655416D01*
X213043955Y-40550950D01*
X213062387Y-40523363D01*
X213546944Y-41249843D01*
X213596256Y-41207727D01*
X213596261Y-41207722D01*
X213759820Y-41016220D01*
X213759823Y-41016215D01*
X213891411Y-40801484D01*
X213987788Y-40568809D01*
X214046579Y-40323925D01*
X214066339Y-40072853D01*
X214046579Y-39821780D01*
X213987789Y-39576901D01*
X213915856Y-39403242D01*
X213189287Y-39887858D01*
X213182570Y-39854086D01*
X213126033Y-39717595D01*
X213043955Y-39594756D01*
X212939489Y-39490290D01*
X212911900Y-39471856D01*
X213638382Y-38987300D01*
X213638382Y-38987299D01*
X213596267Y-38937988D01*
X213596261Y-38937983D01*
X213404759Y-38774424D01*
X213404754Y-38774421D01*
X213190023Y-38642833D01*
X212957348Y-38546456D01*
X212712464Y-38487665D01*
X212461392Y-38467905D01*
X212210319Y-38487665D01*
X211965433Y-38546457D01*
X211791781Y-38618386D01*
X211791781Y-38618387D01*
X212276398Y-39344957D01*
X212242625Y-39351675D01*
X212106134Y-39408212D01*
X211983295Y-39490290D01*
X211878829Y-39594756D01*
X211860396Y-39622342D01*
X211375838Y-38895861D01*
X211326522Y-38937982D01*
X211326509Y-38937995D01*
X211162968Y-39129478D01*
X211162960Y-39129490D01*
X211031372Y-39344221D01*
X210934995Y-39576896D01*
X210876204Y-39821780D01*
X210856444Y-40072853D01*
X210876204Y-40323925D01*
X210934994Y-40568804D01*
X211006926Y-40742462D01*
X211733495Y-40257844D01*
X211740214Y-40291620D01*
X211796751Y-40428111D01*
X211878829Y-40550950D01*
X211983295Y-40655416D01*
X212010879Y-40673847D01*
X211284400Y-41158404D01*
X211280423Y-41187075D01*
X211251713Y-41250773D01*
X211193122Y-41288838D01*
X211123253Y-41289184D01*
X211119281Y-41287966D01*
X211117090Y-41287254D01*
X210976127Y-41241452D01*
X210976125Y-41241451D01*
X210976124Y-41241451D01*
X210844697Y-41220635D01*
X210805037Y-41214354D01*
X210631815Y-41214354D01*
X210592154Y-41220635D01*
X210460728Y-41241451D01*
X210295978Y-41294982D01*
X210141637Y-41373622D01*
X210116044Y-41392217D01*
X210001498Y-41475440D01*
X210001496Y-41475442D01*
X210001495Y-41475442D01*
X209879014Y-41597923D01*
X209879014Y-41597924D01*
X209879012Y-41597926D01*
X209846202Y-41643085D01*
X209777194Y-41738065D01*
X209698554Y-41892406D01*
X209645023Y-42057156D01*
X209617926Y-42228243D01*
X197442649Y-42228243D01*
X197442103Y-42224798D01*
X197388574Y-42060054D01*
X197309933Y-41905711D01*
X197208115Y-41765571D01*
X197085629Y-41643085D01*
X196945489Y-41541267D01*
X196791146Y-41462626D01*
X196626402Y-41409097D01*
X196626400Y-41409096D01*
X196626399Y-41409096D01*
X196494972Y-41388280D01*
X196455312Y-41381999D01*
X196282090Y-41381999D01*
X196242429Y-41388280D01*
X196111003Y-41409096D01*
X195946253Y-41462627D01*
X195791912Y-41541267D01*
X195713933Y-41597923D01*
X195651773Y-41643085D01*
X195651771Y-41643087D01*
X195651770Y-41643087D01*
X195529289Y-41765568D01*
X195529289Y-41765569D01*
X195529287Y-41765571D01*
X195506083Y-41797509D01*
X195427469Y-41905710D01*
X195348829Y-42060051D01*
X195295298Y-42224801D01*
X195268201Y-42395888D01*
X193306139Y-42395888D01*
X193295238Y-42377006D01*
X193115647Y-42142959D01*
X193115641Y-42142952D01*
X192907047Y-41934358D01*
X192907040Y-41934352D01*
X192672993Y-41754761D01*
X192417510Y-41607258D01*
X192417500Y-41607254D01*
X192144961Y-41494364D01*
X192144954Y-41494362D01*
X192144952Y-41494361D01*
X191859993Y-41418007D01*
X191811113Y-41411571D01*
X191567513Y-41379500D01*
X191567506Y-41379500D01*
X191272494Y-41379500D01*
X191272486Y-41379500D01*
X190994085Y-41416153D01*
X190980007Y-41418007D01*
X190813482Y-41462627D01*
X190695048Y-41494361D01*
X190695038Y-41494364D01*
X190422499Y-41607254D01*
X190422489Y-41607258D01*
X190167006Y-41754761D01*
X189932959Y-41934352D01*
X189932952Y-41934358D01*
X189724358Y-42142952D01*
X189724352Y-42142959D01*
X189544761Y-42377006D01*
X189397258Y-42632489D01*
X189397254Y-42632499D01*
X189284364Y-42905038D01*
X189284361Y-42905048D01*
X189215378Y-43162500D01*
X189208008Y-43190004D01*
X189208006Y-43190015D01*
X189169500Y-43482486D01*
X189169500Y-43777513D01*
X189190641Y-43938088D01*
X189208007Y-44069993D01*
X189271649Y-44307510D01*
X189284361Y-44354951D01*
X189284364Y-44354961D01*
X189397254Y-44627500D01*
X189397258Y-44627510D01*
X189544761Y-44882993D01*
X189724352Y-45117040D01*
X189724358Y-45117047D01*
X189885664Y-45278353D01*
X189919149Y-45339676D01*
X189914165Y-45409368D01*
X189872293Y-45465301D01*
X189806829Y-45489718D01*
X189797983Y-45490034D01*
X187545716Y-45490034D01*
X187478677Y-45470349D01*
X187432922Y-45417545D01*
X187422978Y-45348387D01*
X187435231Y-45309740D01*
X187491169Y-45199952D01*
X187491172Y-45199947D01*
X187544701Y-45035203D01*
X187571799Y-44864113D01*
X187571799Y-44690891D01*
X187544701Y-44519801D01*
X187491172Y-44355057D01*
X187412531Y-44200714D01*
X187310713Y-44060574D01*
X187188227Y-43938088D01*
X187060849Y-43845542D01*
X187018184Y-43790211D01*
X187012205Y-43720598D01*
X187044811Y-43658803D01*
X187105650Y-43624446D01*
X187129870Y-43621667D01*
X187129866Y-43621606D01*
X187131583Y-43621470D01*
X187133735Y-43621224D01*
X187134720Y-43621224D01*
X187385795Y-43601463D01*
X187630679Y-43542672D01*
X187863354Y-43446295D01*
X188078085Y-43314707D01*
X188078090Y-43314704D01*
X188269592Y-43151145D01*
X188269598Y-43151140D01*
X188343500Y-43064609D01*
X187604950Y-42604097D01*
X187612820Y-42598839D01*
X187717286Y-42494373D01*
X187799364Y-42371534D01*
X187855901Y-42235043D01*
X187867174Y-42178368D01*
X188608056Y-42640334D01*
X188608056Y-42640333D01*
X188661120Y-42512227D01*
X188719910Y-42267348D01*
X188739670Y-42016276D01*
X188719910Y-41765203D01*
X188661119Y-41520319D01*
X188564742Y-41287644D01*
X188433154Y-41072913D01*
X188433151Y-41072908D01*
X188269592Y-40881406D01*
X188183056Y-40807497D01*
X187722543Y-41546047D01*
X187717286Y-41538179D01*
X187612820Y-41433713D01*
X187489981Y-41351635D01*
X187353490Y-41295098D01*
X187296813Y-41283824D01*
X187758781Y-40542940D01*
X187630681Y-40489880D01*
X187385795Y-40431088D01*
X187134723Y-40411328D01*
X186883650Y-40431088D01*
X186638766Y-40489879D01*
X186406091Y-40586256D01*
X186191360Y-40717844D01*
X186191355Y-40717847D01*
X185999853Y-40881406D01*
X185925944Y-40967942D01*
X186664495Y-41428454D01*
X186656626Y-41433713D01*
X186552160Y-41538179D01*
X186470082Y-41661018D01*
X186413545Y-41797509D01*
X186402271Y-41854183D01*
X185661387Y-41392216D01*
X185661387Y-41392217D01*
X185608327Y-41520316D01*
X185608327Y-41520318D01*
X185549535Y-41765203D01*
X185529775Y-42016276D01*
X185549535Y-42267348D01*
X185608326Y-42512232D01*
X185704703Y-42744907D01*
X185836291Y-42959638D01*
X185836294Y-42959643D01*
X185999853Y-43151145D01*
X185999858Y-43151151D01*
X186086388Y-43225053D01*
X186546900Y-42486501D01*
X186552160Y-42494373D01*
X186656626Y-42598839D01*
X186779465Y-42680917D01*
X186915956Y-42737454D01*
X186972629Y-42748727D01*
X186510663Y-43489610D01*
X186518850Y-43515142D01*
X186520574Y-43584991D01*
X186484261Y-43644683D01*
X186421441Y-43675267D01*
X186400771Y-43677002D01*
X186384688Y-43677002D01*
X186351522Y-43682255D01*
X186213601Y-43704099D01*
X186048851Y-43757630D01*
X185894510Y-43836270D01*
X185830610Y-43882697D01*
X185754371Y-43938088D01*
X185754369Y-43938090D01*
X185754368Y-43938090D01*
X185631887Y-44060571D01*
X185631887Y-44060572D01*
X185631885Y-44060574D01*
X185588158Y-44120758D01*
X185530067Y-44200713D01*
X185451427Y-44355054D01*
X185397896Y-44519804D01*
X185370799Y-44690891D01*
X185370799Y-44864113D01*
X185378976Y-44915741D01*
X185395817Y-45022075D01*
X185397897Y-45035203D01*
X185448332Y-45190426D01*
X185451428Y-45199952D01*
X185507367Y-45309740D01*
X185520263Y-45378409D01*
X185493986Y-45443149D01*
X185436880Y-45483406D01*
X185396882Y-45490034D01*
X184047530Y-45490034D01*
X183889416Y-45490034D01*
X183736688Y-45530957D01*
X183736687Y-45530957D01*
X183736685Y-45530958D01*
X183736682Y-45530959D01*
X183686569Y-45559893D01*
X183686568Y-45559894D01*
X183643162Y-45584954D01*
X183599758Y-45610013D01*
X183599755Y-45610015D01*
X183487951Y-45721820D01*
X174616026Y-54593744D01*
X174554703Y-54627229D01*
X174528067Y-54630063D01*
X174446158Y-54629879D01*
X174446157Y-54629879D01*
X174373561Y-54649154D01*
X174297914Y-54669239D01*
X174198314Y-54726442D01*
X172996390Y-55644386D01*
X172987626Y-55653111D01*
X172926225Y-55686453D01*
X172888629Y-55688690D01*
X172872166Y-55687153D01*
X172723940Y-55704918D01*
X172723935Y-55704918D01*
X172723934Y-55704919D01*
X172723933Y-55704919D01*
X172723929Y-55704920D01*
X172582776Y-55753523D01*
X172582773Y-55753525D01*
X172455030Y-55830788D01*
X172346433Y-55933241D01*
X172261873Y-56056275D01*
X172261872Y-56056277D01*
X172253271Y-56077125D01*
X172252901Y-56077823D01*
X172235486Y-56120218D01*
X172230894Y-56130131D01*
X172214193Y-56162375D01*
X172202485Y-56180799D01*
X172196190Y-56189009D01*
X172183738Y-56205247D01*
X172168980Y-56221334D01*
X172142090Y-56245902D01*
X172133782Y-56252851D01*
X172132923Y-56253508D01*
X172132850Y-56253564D01*
X172099685Y-56278890D01*
X172099662Y-56278910D01*
X171179234Y-56981868D01*
X170909576Y-57187814D01*
X170907084Y-57189717D01*
X170907083Y-57189718D01*
X170879740Y-57210600D01*
X170870775Y-57216841D01*
X170840089Y-57236255D01*
X170820688Y-57246256D01*
X170792164Y-57257909D01*
X170771302Y-57264355D01*
X170735826Y-57271973D01*
X170725060Y-57273793D01*
X170679576Y-57279436D01*
X170678733Y-57279625D01*
X170656407Y-57282428D01*
X170656401Y-57282429D01*
X170515456Y-57331615D01*
X170515452Y-57331617D01*
X170388028Y-57409412D01*
X170388026Y-57409414D01*
X170279865Y-57512314D01*
X170195817Y-57635705D01*
X170139668Y-57774025D01*
X170139666Y-57774031D01*
X170136814Y-57790328D01*
X170105865Y-57852970D01*
X170076435Y-57876471D01*
X170065707Y-57882633D01*
X170065706Y-57882633D01*
X168863782Y-58800577D01*
X168782375Y-58881613D01*
X168782374Y-58881614D01*
X168705385Y-59014270D01*
X168665353Y-59162322D01*
X168665005Y-59315700D01*
X168665006Y-59315707D01*
X168704363Y-59463935D01*
X168704365Y-59463942D01*
X168761569Y-59563543D01*
X168855699Y-59686793D01*
X169104047Y-60011971D01*
X169129093Y-60077196D01*
X169129500Y-60087233D01*
X169129500Y-60623330D01*
X169129499Y-60623348D01*
X169129499Y-60789054D01*
X169129498Y-60789054D01*
X169129499Y-60789057D01*
X169170423Y-60941785D01*
X169194034Y-60982680D01*
X169199358Y-60991900D01*
X169199359Y-60991904D01*
X169199360Y-60991904D01*
X169241977Y-61065721D01*
X169249479Y-61078714D01*
X169249481Y-61078717D01*
X169368349Y-61197585D01*
X169368355Y-61197590D01*
X169871783Y-61701018D01*
X169871793Y-61701029D01*
X169876123Y-61705359D01*
X169876124Y-61705360D01*
X169987928Y-61817164D01*
X169987930Y-61817165D01*
X169987934Y-61817168D01*
X170124853Y-61896217D01*
X170124860Y-61896221D01*
X170236663Y-61926178D01*
X170277586Y-61937144D01*
X170277587Y-61937144D01*
X173046687Y-61937144D01*
X173046703Y-61937145D01*
X173054299Y-61937145D01*
X173212410Y-61937145D01*
X173212413Y-61937145D01*
X173365141Y-61896221D01*
X173415260Y-61867283D01*
X173502072Y-61817164D01*
X173613876Y-61705360D01*
X173613876Y-61705358D01*
X173624084Y-61695151D01*
X173624085Y-61695148D01*
X176032416Y-59286819D01*
X176093739Y-59253334D01*
X176120097Y-59250500D01*
X185217828Y-59250500D01*
X185284867Y-59270185D01*
X185330622Y-59322989D01*
X185340566Y-59392147D01*
X185311541Y-59455703D01*
X185252763Y-59493477D01*
X185251814Y-59493752D01*
X184425115Y-59729353D01*
X183253309Y-60101661D01*
X182093240Y-60508940D01*
X180945887Y-60950846D01*
X179812313Y-61426970D01*
X178693537Y-61936884D01*
X178189866Y-62184977D01*
X178189844Y-62184980D01*
X177684688Y-62433770D01*
X176785194Y-62913931D01*
X175901876Y-63423219D01*
X175035671Y-63961092D01*
X175035660Y-63961099D01*
X174748554Y-64152652D01*
X174187466Y-64527001D01*
X173358242Y-65120291D01*
X172548840Y-65740358D01*
X171760107Y-66386556D01*
X170992915Y-67058171D01*
X170637508Y-67390442D01*
X170623349Y-67401854D01*
X170106562Y-67759198D01*
X170100445Y-67763167D01*
X169550836Y-68097238D01*
X169544496Y-68100841D01*
X168976186Y-68402034D01*
X168969645Y-68405258D01*
X168384611Y-68672523D01*
X168377891Y-68675357D01*
X167778165Y-68907766D01*
X167771291Y-68910200D01*
X167158927Y-69106958D01*
X167151922Y-69108983D01*
X166529080Y-69269396D01*
X166521968Y-69271007D01*
X165890733Y-69394537D01*
X165883538Y-69395726D01*
X165246171Y-69481929D01*
X165238919Y-69482694D01*
X164597562Y-69531285D01*
X164590277Y-69531622D01*
X163947178Y-69542427D01*
X163939886Y-69542335D01*
X163297256Y-69515316D01*
X163289983Y-69514795D01*
X162650075Y-69450050D01*
X162642844Y-69449103D01*
X162007841Y-69346852D01*
X162000679Y-69345482D01*
X161372762Y-69206075D01*
X161365692Y-69204285D01*
X160747094Y-69028218D01*
X160740142Y-69026017D01*
X160132929Y-68813878D01*
X160126118Y-68811271D01*
X159532445Y-68563813D01*
X159525800Y-68560811D01*
X158947695Y-68278881D01*
X158941237Y-68275493D01*
X158380696Y-67960061D01*
X158374449Y-67956299D01*
X157833444Y-67608479D01*
X157827428Y-67604357D01*
X157307774Y-67225311D01*
X157302012Y-67220842D01*
X156805558Y-66811922D01*
X156800068Y-66807122D01*
X156328516Y-66369730D01*
X156323317Y-66364616D01*
X155878277Y-65900246D01*
X155873388Y-65894835D01*
X155456417Y-65405108D01*
X155451855Y-65399419D01*
X155064400Y-64886038D01*
X155060180Y-64880091D01*
X154703563Y-64344805D01*
X154699700Y-64338619D01*
X154375174Y-63783307D01*
X154371682Y-63776906D01*
X154222468Y-63483199D01*
X154080356Y-63203470D01*
X154077263Y-63196913D01*
X153820132Y-62607303D01*
X153817429Y-62600572D01*
X153743664Y-62399999D01*
X154824696Y-62399999D01*
X154824696Y-62400000D01*
X154843898Y-62766405D01*
X154901294Y-63128788D01*
X154901294Y-63128790D01*
X154996260Y-63483206D01*
X155127746Y-63825739D01*
X155294320Y-64152656D01*
X155494147Y-64460364D01*
X155606459Y-64599057D01*
X155725051Y-64745506D01*
X155984494Y-65004949D01*
X155984498Y-65004952D01*
X156269635Y-65235852D01*
X156530268Y-65405108D01*
X156577348Y-65435682D01*
X156904264Y-65602255D01*
X157246801Y-65733742D01*
X157601206Y-65828705D01*
X157963596Y-65886102D01*
X158309734Y-65904241D01*
X158329999Y-65905304D01*
X158330000Y-65905304D01*
X158330001Y-65905304D01*
X158349203Y-65904297D01*
X158696404Y-65886102D01*
X159058794Y-65828705D01*
X159413199Y-65733742D01*
X159755736Y-65602255D01*
X160082652Y-65435682D01*
X160390366Y-65235851D01*
X160675506Y-65004949D01*
X160934949Y-64745506D01*
X161165851Y-64460366D01*
X161365682Y-64152652D01*
X161532255Y-63825736D01*
X161663742Y-63483199D01*
X161758705Y-63128794D01*
X161816102Y-62766404D01*
X161835304Y-62400000D01*
X161816102Y-62033596D01*
X161758705Y-61671206D01*
X161663742Y-61316801D01*
X161532255Y-60974264D01*
X161528030Y-60965973D01*
X161502057Y-60914998D01*
X161365682Y-60647348D01*
X161355026Y-60630939D01*
X161165852Y-60339635D01*
X161021021Y-60160784D01*
X160934949Y-60054494D01*
X160675506Y-59795051D01*
X160567682Y-59707737D01*
X160390364Y-59564147D01*
X160082656Y-59364320D01*
X159755739Y-59197746D01*
X159413206Y-59066260D01*
X159413199Y-59066258D01*
X159058794Y-58971295D01*
X159058790Y-58971294D01*
X159058789Y-58971294D01*
X158696405Y-58913898D01*
X158330001Y-58894696D01*
X158329999Y-58894696D01*
X157963594Y-58913898D01*
X157601211Y-58971294D01*
X157601209Y-58971294D01*
X157246793Y-59066260D01*
X156904260Y-59197746D01*
X156577343Y-59364320D01*
X156269635Y-59564147D01*
X155984498Y-59795047D01*
X155984490Y-59795054D01*
X155725054Y-60054490D01*
X155725047Y-60054498D01*
X155494147Y-60339635D01*
X155294320Y-60647343D01*
X155127746Y-60974260D01*
X154996260Y-61316793D01*
X154901294Y-61671209D01*
X154901294Y-61671211D01*
X154843898Y-62033594D01*
X154824696Y-62399999D01*
X153743664Y-62399999D01*
X153595408Y-61996881D01*
X153593108Y-61990010D01*
X153406954Y-61374297D01*
X153405055Y-61367275D01*
X153398620Y-61340374D01*
X153255428Y-60741731D01*
X153253941Y-60734592D01*
X153249971Y-60712262D01*
X153141341Y-60101316D01*
X153140285Y-60094159D01*
X153065104Y-59455340D01*
X153064466Y-59448085D01*
X153026969Y-58805967D01*
X153026759Y-58798729D01*
X153027073Y-58155505D01*
X153027291Y-58148225D01*
X153028715Y-58124246D01*
X153065414Y-57506146D01*
X153066055Y-57498930D01*
X153141859Y-56860187D01*
X153142930Y-56852984D01*
X153256145Y-56219831D01*
X153257637Y-56212705D01*
X153261500Y-56196626D01*
X153407881Y-55587280D01*
X153409775Y-55580303D01*
X153596530Y-54964771D01*
X153598850Y-54957866D01*
X153821457Y-54354400D01*
X153824159Y-54347690D01*
X153831228Y-54331523D01*
X163302709Y-54331523D01*
X163319509Y-54544968D01*
X163378299Y-54789852D01*
X163474676Y-55022527D01*
X163606264Y-55237258D01*
X163606267Y-55237263D01*
X163769826Y-55428765D01*
X163961328Y-55592324D01*
X163961333Y-55592327D01*
X164176064Y-55723915D01*
X164408739Y-55820292D01*
X164446761Y-55829420D01*
X164562690Y-54964026D01*
X164685929Y-55015074D01*
X164830827Y-55043896D01*
X164978565Y-55043896D01*
X165058589Y-55027978D01*
X164942323Y-55895881D01*
X164958861Y-55913348D01*
X164990659Y-55975562D01*
X164983773Y-56045092D01*
X164940390Y-56099861D01*
X164925114Y-56109086D01*
X164860278Y-56142122D01*
X164790206Y-56193033D01*
X164720136Y-56243942D01*
X164720134Y-56243944D01*
X164720133Y-56243944D01*
X164597652Y-56366425D01*
X164597652Y-56366426D01*
X164597650Y-56366428D01*
X164567913Y-56407358D01*
X164495832Y-56506567D01*
X164417192Y-56660908D01*
X164417191Y-56660910D01*
X164417191Y-56660911D01*
X164410254Y-56682262D01*
X164363661Y-56825658D01*
X164337219Y-56992611D01*
X164336564Y-56996745D01*
X164336564Y-57169967D01*
X164339692Y-57189716D01*
X164362166Y-57331615D01*
X164363662Y-57341057D01*
X164416127Y-57502527D01*
X164417192Y-57505803D01*
X164420510Y-57512315D01*
X164495832Y-57660144D01*
X164597650Y-57800284D01*
X164720136Y-57922770D01*
X164860276Y-58024588D01*
X165014619Y-58103229D01*
X165179363Y-58156758D01*
X165350453Y-58183856D01*
X165350454Y-58183856D01*
X165523674Y-58183856D01*
X165523675Y-58183856D01*
X165694765Y-58156758D01*
X165859509Y-58103229D01*
X166013852Y-58024588D01*
X166153992Y-57922770D01*
X166276478Y-57800284D01*
X166378296Y-57660144D01*
X166456937Y-57505801D01*
X166510466Y-57341057D01*
X166537564Y-57169967D01*
X166537564Y-56996745D01*
X166510466Y-56825655D01*
X166456937Y-56660911D01*
X166378296Y-56506568D01*
X166276478Y-56366428D01*
X166153992Y-56243942D01*
X166013852Y-56142124D01*
X165859509Y-56063483D01*
X165694765Y-56009954D01*
X165694763Y-56009953D01*
X165694761Y-56009953D01*
X165585033Y-55992574D01*
X165521898Y-55962645D01*
X165484967Y-55903333D01*
X165485965Y-55833471D01*
X165524575Y-55775238D01*
X165556978Y-55755540D01*
X165633327Y-55723915D01*
X165848058Y-55592327D01*
X165848063Y-55592324D01*
X166039565Y-55428765D01*
X166203124Y-55237263D01*
X166203127Y-55237258D01*
X166334715Y-55022527D01*
X166431092Y-54789850D01*
X166440220Y-54751829D01*
X165574827Y-54635899D01*
X165625874Y-54512663D01*
X165654696Y-54367765D01*
X165654696Y-54220027D01*
X165638777Y-54139999D01*
X166506680Y-54256266D01*
X166489884Y-54042829D01*
X166444187Y-53852486D01*
X167223805Y-53852486D01*
X167223805Y-54147513D01*
X167250156Y-54347663D01*
X167262312Y-54439993D01*
X167313241Y-54630063D01*
X167338666Y-54724951D01*
X167338669Y-54724961D01*
X167451559Y-54997500D01*
X167451563Y-54997510D01*
X167599066Y-55252993D01*
X167778657Y-55487040D01*
X167778663Y-55487047D01*
X167987257Y-55695641D01*
X167987264Y-55695647D01*
X168221311Y-55875238D01*
X168476794Y-56022741D01*
X168476795Y-56022741D01*
X168476798Y-56022743D01*
X168608088Y-56077125D01*
X168748261Y-56135187D01*
X168749353Y-56135639D01*
X169034312Y-56211993D01*
X169326799Y-56250500D01*
X169326806Y-56250500D01*
X169621804Y-56250500D01*
X169621811Y-56250500D01*
X169914298Y-56211993D01*
X170199257Y-56135639D01*
X170471812Y-56022743D01*
X170727299Y-55875238D01*
X170961347Y-55695646D01*
X171169951Y-55487042D01*
X171349543Y-55252994D01*
X171497048Y-54997507D01*
X171609944Y-54724952D01*
X171686298Y-54439993D01*
X171724805Y-54147506D01*
X171724805Y-53852494D01*
X171686298Y-53560007D01*
X171609944Y-53275048D01*
X171497048Y-53002493D01*
X171482726Y-52977687D01*
X171349543Y-52747006D01*
X171169952Y-52512959D01*
X171169946Y-52512952D01*
X170961352Y-52304358D01*
X170961345Y-52304352D01*
X170727298Y-52124761D01*
X170471815Y-51977258D01*
X170471805Y-51977254D01*
X170199266Y-51864364D01*
X170199259Y-51864362D01*
X170199257Y-51864361D01*
X169914298Y-51788007D01*
X169865418Y-51781571D01*
X169621818Y-51749500D01*
X169621811Y-51749500D01*
X169326799Y-51749500D01*
X169326791Y-51749500D01*
X169048390Y-51786153D01*
X169034312Y-51788007D01*
X168834982Y-51841417D01*
X168749353Y-51864361D01*
X168749343Y-51864364D01*
X168476804Y-51977254D01*
X168476794Y-51977258D01*
X168221311Y-52124761D01*
X167987264Y-52304352D01*
X167987257Y-52304358D01*
X167778663Y-52512952D01*
X167778657Y-52512959D01*
X167599066Y-52747006D01*
X167451563Y-53002489D01*
X167451559Y-53002499D01*
X167338669Y-53275038D01*
X167338666Y-53275048D01*
X167262313Y-53560004D01*
X167262311Y-53560015D01*
X167223805Y-53852486D01*
X166444187Y-53852486D01*
X166431092Y-53797939D01*
X166334715Y-53565264D01*
X166203127Y-53350533D01*
X166203124Y-53350528D01*
X166039565Y-53159026D01*
X165848063Y-52995467D01*
X165848058Y-52995464D01*
X165633326Y-52863876D01*
X165633323Y-52863874D01*
X165400654Y-52767500D01*
X165400648Y-52767499D01*
X165362629Y-52758370D01*
X165246699Y-53623764D01*
X165123463Y-53572718D01*
X164978565Y-53543896D01*
X164830827Y-53543896D01*
X164750799Y-53559814D01*
X164867067Y-52691909D01*
X164653623Y-52708709D01*
X164408739Y-52767499D01*
X164176064Y-52863876D01*
X163961333Y-52995464D01*
X163961328Y-52995467D01*
X163769826Y-53159026D01*
X163606267Y-53350528D01*
X163606264Y-53350533D01*
X163474676Y-53565265D01*
X163474674Y-53565268D01*
X163378301Y-53797936D01*
X163378297Y-53797947D01*
X163369170Y-53835960D01*
X163369171Y-53835961D01*
X164234565Y-53951890D01*
X164183518Y-54075129D01*
X164154696Y-54220027D01*
X164154696Y-54367765D01*
X164170614Y-54447790D01*
X163302709Y-54331523D01*
X153831228Y-54331523D01*
X154081868Y-53758323D01*
X154084956Y-53751792D01*
X154376858Y-53178609D01*
X154380333Y-53172252D01*
X154705431Y-52617208D01*
X154709283Y-52611053D01*
X155066436Y-52076092D01*
X155070626Y-52070199D01*
X155458618Y-51557147D01*
X155463180Y-51551472D01*
X155468493Y-51545245D01*
X155880627Y-51062155D01*
X155885516Y-51056755D01*
X155905255Y-51036199D01*
X156103225Y-50830033D01*
X172411047Y-50830033D01*
X172411047Y-51003254D01*
X172433499Y-51145015D01*
X172438145Y-51174345D01*
X172491674Y-51339089D01*
X172570315Y-51493432D01*
X172672133Y-51633572D01*
X172794619Y-51756058D01*
X172934759Y-51857876D01*
X173089102Y-51936517D01*
X173253846Y-51990046D01*
X173424936Y-52017144D01*
X173424937Y-52017144D01*
X173598157Y-52017144D01*
X173598158Y-52017144D01*
X173769248Y-51990046D01*
X173933992Y-51936517D01*
X174088335Y-51857876D01*
X174228475Y-51756058D01*
X174350961Y-51633572D01*
X174452779Y-51493432D01*
X174531420Y-51339089D01*
X174584949Y-51174345D01*
X174612047Y-51003255D01*
X174612047Y-50830033D01*
X174584949Y-50658943D01*
X174531420Y-50494199D01*
X174452779Y-50339856D01*
X174350961Y-50199716D01*
X174228475Y-50077230D01*
X174088335Y-49975412D01*
X173939582Y-49899619D01*
X173933994Y-49896772D01*
X173933993Y-49896771D01*
X173933992Y-49896771D01*
X173769248Y-49843242D01*
X173769246Y-49843241D01*
X173769245Y-49843241D01*
X173616619Y-49819068D01*
X173598158Y-49816144D01*
X173424936Y-49816144D01*
X173406475Y-49819068D01*
X173253849Y-49843241D01*
X173253846Y-49843242D01*
X173111077Y-49889631D01*
X173089099Y-49896772D01*
X172934758Y-49975412D01*
X172864403Y-50026529D01*
X172794619Y-50077230D01*
X172794617Y-50077232D01*
X172794616Y-50077232D01*
X172672135Y-50199713D01*
X172672135Y-50199714D01*
X172672133Y-50199716D01*
X172642028Y-50241152D01*
X172570315Y-50339855D01*
X172491675Y-50494196D01*
X172438144Y-50658946D01*
X172411047Y-50830033D01*
X156103225Y-50830033D01*
X156331011Y-50592816D01*
X156336191Y-50587728D01*
X156777317Y-50179357D01*
X156784901Y-50173503D01*
X156789046Y-50169527D01*
X156789049Y-50169526D01*
X156812326Y-50147198D01*
X156816620Y-50143271D01*
X156841962Y-50121159D01*
X156853128Y-50108869D01*
X158021225Y-49015087D01*
X158023411Y-49013089D01*
X158064534Y-48976393D01*
X159252418Y-47916391D01*
X159254646Y-47914452D01*
X159270910Y-47900625D01*
X160509584Y-46847558D01*
X160511792Y-46845726D01*
X161791960Y-45809231D01*
X161794253Y-45807419D01*
X163098979Y-44801872D01*
X163101275Y-44800146D01*
X164429719Y-43826196D01*
X164432038Y-43824538D01*
X165783490Y-42882704D01*
X165785801Y-42881134D01*
X167159467Y-41971972D01*
X167161850Y-41970435D01*
X168556889Y-41094501D01*
X168559348Y-41092998D01*
X169974977Y-40250781D01*
X169977462Y-40249342D01*
X171412876Y-39441322D01*
X171415407Y-39439937D01*
X172869861Y-38666533D01*
X172872352Y-38665248D01*
X174344871Y-37926980D01*
X174347435Y-37925733D01*
X175837221Y-37222999D01*
X175839864Y-37221791D01*
X177346138Y-36554961D01*
X177348704Y-36553862D01*
X178870528Y-35923350D01*
X178873188Y-35922286D01*
X180409657Y-35328469D01*
X180412296Y-35327484D01*
X181962604Y-34770671D01*
X181965300Y-34769739D01*
X183528505Y-34250270D01*
X183531206Y-34249409D01*
X185106382Y-33767589D01*
X185109196Y-33766766D01*
X186695423Y-33322876D01*
X186698251Y-33322121D01*
X188294770Y-32916376D01*
X188297492Y-32915719D01*
X189903242Y-32548388D01*
X189905996Y-32547792D01*
X191520189Y-32219055D01*
X191522942Y-32218530D01*
X193144440Y-31928622D01*
X193147281Y-31928148D01*
X194775289Y-31677206D01*
X194778215Y-31676792D01*
X196411621Y-31464987D01*
X196414544Y-31464642D01*
X198052690Y-31292056D01*
X198055586Y-31291787D01*
X199697363Y-31158540D01*
X199700284Y-31158338D01*
X201344856Y-31064500D01*
X201347686Y-31064374D01*
X202993994Y-31010004D01*
X202996841Y-31009944D01*
X204644017Y-30995073D01*
X204646931Y-30995081D01*
G37*
%TD.AperFunction*%
%TA.AperFunction,Conductor*%
G36*
X211053013Y-46370185D02*
G01*
X211098768Y-46422989D01*
X211108712Y-46492147D01*
X211107571Y-46498791D01*
X211089591Y-46588795D01*
X211057155Y-46650680D01*
X211055678Y-46652182D01*
X211027519Y-46680343D01*
X211027516Y-46680346D01*
X210399126Y-47308735D01*
X210399124Y-47308737D01*
X210384598Y-47333899D01*
X210366844Y-47364650D01*
X210320068Y-47445668D01*
X210279144Y-47598396D01*
X210279144Y-47598398D01*
X210279144Y-47766499D01*
X210279145Y-47766512D01*
X210279145Y-48772559D01*
X210279144Y-48772577D01*
X210279144Y-48938283D01*
X210279143Y-48938283D01*
X210320069Y-49091018D01*
X210320070Y-49091019D01*
X210346056Y-49136027D01*
X210346057Y-49136029D01*
X210399120Y-49227938D01*
X210399126Y-49227946D01*
X210517994Y-49346814D01*
X210518000Y-49346819D01*
X211585829Y-50414648D01*
X211619314Y-50475971D01*
X211614330Y-50545663D01*
X211572458Y-50601596D01*
X211564122Y-50607322D01*
X211527736Y-50630185D01*
X211470476Y-50687446D01*
X211409153Y-50720931D01*
X211382795Y-50723765D01*
X207688147Y-50723765D01*
X207621108Y-50704080D01*
X207610832Y-50696710D01*
X207607998Y-50694450D01*
X207607997Y-50694449D01*
X207536929Y-50649794D01*
X207455258Y-50598476D01*
X207284989Y-50538896D01*
X207284984Y-50538895D01*
X207105739Y-50518700D01*
X207105731Y-50518700D01*
X206926485Y-50538895D01*
X206926480Y-50538896D01*
X206756211Y-50598476D01*
X206603472Y-50694449D01*
X206475919Y-50822002D01*
X206379946Y-50974741D01*
X206320366Y-51145010D01*
X206320365Y-51145015D01*
X206300170Y-51324261D01*
X206300170Y-51324268D01*
X206320365Y-51503514D01*
X206320366Y-51503519D01*
X206379946Y-51673788D01*
X206451715Y-51788007D01*
X206475919Y-51826527D01*
X206603473Y-51954081D01*
X206756213Y-52050054D01*
X206830700Y-52076118D01*
X206926480Y-52109633D01*
X206926485Y-52109634D01*
X207105731Y-52129830D01*
X207105735Y-52129830D01*
X207105739Y-52129830D01*
X207284984Y-52109634D01*
X207284987Y-52109633D01*
X207284990Y-52109633D01*
X207455257Y-52050054D01*
X207607997Y-51954081D01*
X207608002Y-51954075D01*
X207610832Y-51951820D01*
X207613010Y-51950930D01*
X207613893Y-51950376D01*
X207613990Y-51950530D01*
X207675518Y-51925410D01*
X207688147Y-51924765D01*
X211547635Y-51924765D01*
X211613607Y-51943772D01*
X211680473Y-51985787D01*
X211680477Y-51985788D01*
X211680478Y-51985789D01*
X211786684Y-52022952D01*
X211850745Y-52045368D01*
X211850750Y-52045369D01*
X212029996Y-52065565D01*
X212030000Y-52065565D01*
X212030004Y-52065565D01*
X212209249Y-52045369D01*
X212209252Y-52045368D01*
X212209255Y-52045368D01*
X212379522Y-51985789D01*
X212532262Y-51889816D01*
X212659816Y-51762262D01*
X212682678Y-51725877D01*
X212735009Y-51679588D01*
X212804063Y-51668939D01*
X212867912Y-51697314D01*
X212875351Y-51704170D01*
X219005555Y-57834374D01*
X219005565Y-57834385D01*
X219121701Y-57950521D01*
X219153202Y-57968707D01*
X219184704Y-57986895D01*
X219258631Y-58029577D01*
X219411359Y-58070500D01*
X221239683Y-58070500D01*
X221306722Y-58090185D01*
X221352477Y-58142989D01*
X221362421Y-58212147D01*
X221333396Y-58275703D01*
X221327364Y-58282181D01*
X221185054Y-58424490D01*
X221185047Y-58424498D01*
X220954147Y-58709635D01*
X220754320Y-59017343D01*
X220587746Y-59344260D01*
X220456260Y-59686793D01*
X220361294Y-60041209D01*
X220361294Y-60041211D01*
X220303898Y-60403594D01*
X220284696Y-60769999D01*
X220284696Y-60770000D01*
X220303898Y-61136405D01*
X220328127Y-61289378D01*
X220361295Y-61498794D01*
X220450853Y-61833029D01*
X220456260Y-61853206D01*
X220587746Y-62195739D01*
X220754320Y-62522656D01*
X220954147Y-62830364D01*
X221185047Y-63115501D01*
X221185054Y-63115509D01*
X221327364Y-63257819D01*
X221360849Y-63319142D01*
X221355865Y-63388834D01*
X221313993Y-63444767D01*
X221248529Y-63469184D01*
X221239683Y-63469500D01*
X219510097Y-63469500D01*
X219443058Y-63449815D01*
X219422416Y-63433181D01*
X216180700Y-60191465D01*
X216147215Y-60130142D01*
X216145163Y-60117686D01*
X216135368Y-60030745D01*
X216075789Y-59860478D01*
X215979816Y-59707738D01*
X215852262Y-59580184D01*
X215699523Y-59484211D01*
X215529254Y-59424631D01*
X215529249Y-59424630D01*
X215350004Y-59404435D01*
X215349996Y-59404435D01*
X215170750Y-59424630D01*
X215170745Y-59424631D01*
X215000476Y-59484211D01*
X214847737Y-59580184D01*
X214720184Y-59707737D01*
X214624211Y-59860476D01*
X214564631Y-60030745D01*
X214564630Y-60030750D01*
X214544435Y-60209996D01*
X214544435Y-60210003D01*
X214564630Y-60389249D01*
X214564631Y-60389254D01*
X214624211Y-60559523D01*
X214685614Y-60657245D01*
X214720184Y-60712262D01*
X214847738Y-60839816D01*
X215000478Y-60935789D01*
X215170745Y-60995368D01*
X215257669Y-61005161D01*
X215322080Y-61032226D01*
X215331465Y-61040700D01*
X218725139Y-64434374D01*
X218725149Y-64434385D01*
X218729479Y-64438715D01*
X218729480Y-64438716D01*
X218841284Y-64550520D01*
X218841286Y-64550521D01*
X218841290Y-64550524D01*
X218942655Y-64609046D01*
X218978216Y-64629577D01*
X219090019Y-64659534D01*
X219130942Y-64670500D01*
X219130943Y-64670500D01*
X234086253Y-64670500D01*
X234153292Y-64690185D01*
X234173933Y-64706818D01*
X259294814Y-89827700D01*
X259294816Y-89827701D01*
X259294820Y-89827704D01*
X259342087Y-89854993D01*
X259431746Y-89906757D01*
X259584473Y-89947681D01*
X259584475Y-89947681D01*
X259750184Y-89947681D01*
X259750200Y-89947680D01*
X261504962Y-89947680D01*
X261572001Y-89967365D01*
X261617756Y-90020169D01*
X261627700Y-90089327D01*
X261598675Y-90152883D01*
X261574615Y-90174268D01*
X261486172Y-90234317D01*
X261486150Y-90234334D01*
X261331136Y-90379773D01*
X261200781Y-90547675D01*
X261200773Y-90547687D01*
X261098284Y-90733919D01*
X261026191Y-90933895D01*
X261024345Y-90943553D01*
X260992420Y-91005703D01*
X260931962Y-91040726D01*
X260862167Y-91037503D01*
X260812124Y-91005109D01*
X260805396Y-90997939D01*
X260805396Y-90997938D01*
X260637494Y-90867583D01*
X260637492Y-90867581D01*
X260637486Y-90867577D01*
X260555558Y-90822490D01*
X260451250Y-90765086D01*
X260251274Y-90692993D01*
X260251275Y-90692993D01*
X260042481Y-90653069D01*
X260042486Y-90653069D01*
X259830015Y-90646299D01*
X259619110Y-90672849D01*
X259414954Y-90732066D01*
X259414947Y-90732069D01*
X259222574Y-90822490D01*
X259222570Y-90822493D01*
X259046711Y-90941894D01*
X259046695Y-90941907D01*
X258891681Y-91087346D01*
X258761326Y-91255248D01*
X258761318Y-91255260D01*
X258658829Y-91441492D01*
X258586736Y-91641468D01*
X258584890Y-91651126D01*
X258552965Y-91713276D01*
X258492507Y-91748299D01*
X258422712Y-91745076D01*
X258372669Y-91712682D01*
X258365941Y-91705512D01*
X258365941Y-91705511D01*
X258198039Y-91575156D01*
X258198037Y-91575154D01*
X258198031Y-91575150D01*
X258116103Y-91530063D01*
X258011795Y-91472659D01*
X257811819Y-91400566D01*
X257811820Y-91400566D01*
X257603026Y-91360642D01*
X257603031Y-91360642D01*
X257390560Y-91353872D01*
X257179655Y-91380422D01*
X256975499Y-91439639D01*
X256975492Y-91439642D01*
X256783119Y-91530063D01*
X256783115Y-91530066D01*
X256607256Y-91649467D01*
X256607240Y-91649480D01*
X256452226Y-91794919D01*
X256321871Y-91962821D01*
X256321863Y-91962833D01*
X256219374Y-92149065D01*
X256147281Y-92349041D01*
X256145435Y-92358699D01*
X256113510Y-92420849D01*
X256053052Y-92455872D01*
X255983257Y-92452649D01*
X255933214Y-92420255D01*
X255926486Y-92413085D01*
X255926486Y-92413084D01*
X255758584Y-92282729D01*
X255758582Y-92282727D01*
X255758576Y-92282723D01*
X255680915Y-92239984D01*
X255572340Y-92180232D01*
X255372364Y-92108139D01*
X255372365Y-92108139D01*
X255163571Y-92068215D01*
X255163576Y-92068215D01*
X254951105Y-92061445D01*
X254740200Y-92087995D01*
X254536044Y-92147212D01*
X254536037Y-92147215D01*
X254343664Y-92237636D01*
X254343660Y-92237639D01*
X254167801Y-92357040D01*
X254167785Y-92357053D01*
X254012771Y-92502492D01*
X253882416Y-92670394D01*
X253882408Y-92670406D01*
X253779919Y-92856638D01*
X253707826Y-93056614D01*
X253667902Y-93265405D01*
X253661132Y-93477873D01*
X253687682Y-93688778D01*
X254260542Y-95663790D01*
X254276187Y-95717727D01*
X254366612Y-95910108D01*
X254366613Y-95910110D01*
X254366614Y-95910111D01*
X254486013Y-96085967D01*
X254486016Y-96085971D01*
X254486019Y-96085975D01*
X254486022Y-96085978D01*
X254486026Y-96085983D01*
X254631464Y-96240994D01*
X254631468Y-96240998D01*
X254799376Y-96371360D01*
X254985611Y-96473849D01*
X254985615Y-96473851D01*
X255077202Y-96506869D01*
X255185586Y-96545943D01*
X255394376Y-96585866D01*
X255606842Y-96592636D01*
X255606842Y-96592635D01*
X255606846Y-96592636D01*
X255817751Y-96566086D01*
X255887203Y-96545941D01*
X256021910Y-96506869D01*
X256214291Y-96416444D01*
X256390158Y-96297036D01*
X256545181Y-96151588D01*
X256675543Y-95983679D01*
X256778032Y-95797445D01*
X256850125Y-95597470D01*
X256851972Y-95587809D01*
X256883895Y-95525662D01*
X256944352Y-95490637D01*
X257014147Y-95493858D01*
X257064192Y-95526251D01*
X257070923Y-95533425D01*
X257238831Y-95663787D01*
X257336847Y-95717727D01*
X257425070Y-95766278D01*
X257511523Y-95797445D01*
X257625041Y-95838370D01*
X257833831Y-95878293D01*
X258046297Y-95885063D01*
X258046297Y-95885062D01*
X258046301Y-95885063D01*
X258257206Y-95858513D01*
X258326658Y-95838368D01*
X258461365Y-95799296D01*
X258653746Y-95708871D01*
X258829613Y-95589463D01*
X258984636Y-95444015D01*
X259114998Y-95276106D01*
X259217487Y-95089872D01*
X259289580Y-94889897D01*
X259291427Y-94880236D01*
X259323350Y-94818089D01*
X259383807Y-94783064D01*
X259453602Y-94786285D01*
X259503647Y-94818678D01*
X259510378Y-94825852D01*
X259678286Y-94956214D01*
X259864521Y-95058703D01*
X259864525Y-95058705D01*
X259950978Y-95089872D01*
X260064496Y-95130797D01*
X260273286Y-95170720D01*
X260485752Y-95177490D01*
X260485752Y-95177489D01*
X260485756Y-95177490D01*
X260696661Y-95150940D01*
X260766113Y-95130795D01*
X260900820Y-95091723D01*
X261093201Y-95001298D01*
X261269068Y-94881890D01*
X261424091Y-94736442D01*
X261554453Y-94568533D01*
X261656942Y-94382299D01*
X261729035Y-94182324D01*
X261730882Y-94172663D01*
X261762805Y-94110516D01*
X261823262Y-94075491D01*
X261893057Y-94078712D01*
X261943102Y-94111105D01*
X261949833Y-94118279D01*
X262117741Y-94248641D01*
X262303976Y-94351130D01*
X262303980Y-94351132D01*
X262390433Y-94382299D01*
X262503951Y-94423224D01*
X262712741Y-94463147D01*
X262925207Y-94469917D01*
X262925207Y-94469916D01*
X262925211Y-94469917D01*
X263136116Y-94443367D01*
X263205568Y-94423222D01*
X263340275Y-94384150D01*
X263532656Y-94293725D01*
X263708523Y-94174317D01*
X263863546Y-94028869D01*
X263993908Y-93860960D01*
X264096397Y-93674726D01*
X264168490Y-93474751D01*
X264170337Y-93465090D01*
X264202260Y-93402943D01*
X264262717Y-93367918D01*
X264332512Y-93371139D01*
X264382557Y-93403532D01*
X264389288Y-93410706D01*
X264557196Y-93541068D01*
X264743431Y-93643557D01*
X264743435Y-93643559D01*
X264829888Y-93674726D01*
X264943406Y-93715651D01*
X265152196Y-93755574D01*
X265364662Y-93762344D01*
X265364662Y-93762343D01*
X265364666Y-93762344D01*
X265575571Y-93735794D01*
X265645023Y-93715649D01*
X265779730Y-93676577D01*
X265972111Y-93586152D01*
X266147978Y-93466744D01*
X266303001Y-93321296D01*
X266433363Y-93153387D01*
X266535852Y-92967153D01*
X266607945Y-92767178D01*
X266609792Y-92757517D01*
X266641715Y-92695370D01*
X266702172Y-92660345D01*
X266771967Y-92663566D01*
X266822012Y-92695959D01*
X266828743Y-92703133D01*
X266996651Y-92833495D01*
X267182886Y-92935984D01*
X267182890Y-92935986D01*
X267269343Y-92967153D01*
X267382861Y-93008078D01*
X267591651Y-93048001D01*
X267804117Y-93054771D01*
X267804117Y-93054770D01*
X267804121Y-93054771D01*
X268015026Y-93028221D01*
X268084478Y-93008076D01*
X268219185Y-92969004D01*
X268411566Y-92878579D01*
X268587433Y-92759171D01*
X268742456Y-92613723D01*
X268872818Y-92445814D01*
X268959493Y-92288314D01*
X269009059Y-92239073D01*
X269077381Y-92224446D01*
X269142764Y-92249078D01*
X269167637Y-92274114D01*
X269228132Y-92355484D01*
X269314067Y-92420255D01*
X269343067Y-92442113D01*
X269477744Y-92492851D01*
X269477748Y-92492852D01*
X269556368Y-92498734D01*
X269621266Y-92503590D01*
X269680301Y-92493140D01*
X270760517Y-92179818D01*
X270830386Y-92180047D01*
X270889040Y-92218015D01*
X270917855Y-92281666D01*
X270919060Y-92298909D01*
X270919060Y-96600342D01*
X270899375Y-96667381D01*
X270882741Y-96688023D01*
X267985082Y-99585681D01*
X267923759Y-99619166D01*
X267897401Y-99622000D01*
X267441320Y-99622000D01*
X267429099Y-99623609D01*
X267360064Y-99612838D01*
X267328828Y-99591795D01*
X267318215Y-99582001D01*
X267316651Y-99580558D01*
X267215621Y-99520963D01*
X267188055Y-99504702D01*
X267117206Y-99481178D01*
X267046359Y-99457655D01*
X266897930Y-99441530D01*
X266897928Y-99441530D01*
X266897927Y-99441530D01*
X266749442Y-99457051D01*
X266749439Y-99457051D01*
X266749438Y-99457052D01*
X266716298Y-99467905D01*
X266607555Y-99503521D01*
X266607550Y-99503524D01*
X266588168Y-99514813D01*
X266587524Y-99515108D01*
X266547792Y-99538322D01*
X266538123Y-99543414D01*
X266505294Y-99558893D01*
X266484806Y-99566429D01*
X266455066Y-99574478D01*
X266433575Y-99578304D01*
X266397145Y-99581520D01*
X266386230Y-99582000D01*
X266354145Y-99581997D01*
X266352090Y-99581997D01*
X266352089Y-99581997D01*
X266340294Y-99581996D01*
X266340242Y-99582001D01*
X264855209Y-99582001D01*
X264855148Y-99581995D01*
X264842910Y-99581996D01*
X264839520Y-99581996D01*
X264808497Y-99581999D01*
X264797583Y-99581519D01*
X264761420Y-99578327D01*
X264739926Y-99574500D01*
X264710185Y-99566450D01*
X264689700Y-99558915D01*
X264657140Y-99543563D01*
X264647416Y-99538440D01*
X264608507Y-99515681D01*
X264608266Y-99515569D01*
X264607602Y-99515181D01*
X264606568Y-99514707D01*
X264587431Y-99503560D01*
X264539282Y-99487790D01*
X264445553Y-99457092D01*
X264445550Y-99457091D01*
X264445548Y-99457091D01*
X264297073Y-99441571D01*
X264297070Y-99441571D01*
X264297069Y-99441571D01*
X264267385Y-99444795D01*
X264148645Y-99457695D01*
X264006966Y-99504738D01*
X264006961Y-99504740D01*
X263878373Y-99580591D01*
X263878368Y-99580595D01*
X263866225Y-99591802D01*
X263803609Y-99622802D01*
X263765945Y-99623615D01*
X263753677Y-99622000D01*
X262241321Y-99622000D01*
X262127445Y-99636991D01*
X262127437Y-99636993D01*
X261985737Y-99695687D01*
X261864056Y-99789056D01*
X261770687Y-99910737D01*
X261711993Y-100052436D01*
X261711992Y-100052438D01*
X261697000Y-100166322D01*
X261697000Y-100898678D01*
X261711991Y-101012554D01*
X261711993Y-101012562D01*
X261770687Y-101154262D01*
X261811479Y-101207424D01*
X261836673Y-101272594D01*
X261822634Y-101341038D01*
X261811480Y-101358395D01*
X261771123Y-101410989D01*
X261771121Y-101410993D01*
X261712481Y-101552564D01*
X261712479Y-101552569D01*
X261697500Y-101666353D01*
X261697500Y-101782500D01*
X262873500Y-101782500D01*
X262940539Y-101802185D01*
X262986294Y-101854989D01*
X262997500Y-101906500D01*
X262997500Y-102032500D01*
X263123500Y-102032500D01*
X263190539Y-102052185D01*
X263236294Y-102104989D01*
X263247500Y-102156500D01*
X263247500Y-102942500D01*
X263753647Y-102942500D01*
X263765407Y-102940951D01*
X263834442Y-102951712D01*
X263865692Y-102972762D01*
X263876786Y-102983000D01*
X263878351Y-102984444D01*
X263940996Y-103021396D01*
X264006946Y-103060298D01*
X264148642Y-103107345D01*
X264297070Y-103123470D01*
X264445563Y-103107948D01*
X264587448Y-103061476D01*
X264606577Y-103050332D01*
X264607309Y-103049999D01*
X264617529Y-103044026D01*
X264647251Y-103026654D01*
X264656893Y-103021575D01*
X264689742Y-103006079D01*
X264710219Y-102998544D01*
X264739968Y-102990486D01*
X264761456Y-102986655D01*
X264789754Y-102984151D01*
X264797328Y-102983482D01*
X264808255Y-102983000D01*
X266340241Y-102983000D01*
X266340293Y-102983004D01*
X266352086Y-102983002D01*
X266352089Y-102983004D01*
X266386511Y-102983000D01*
X266397404Y-102983479D01*
X266433583Y-102986672D01*
X266455070Y-102990498D01*
X266484818Y-102998550D01*
X266505291Y-103006080D01*
X266537787Y-103021402D01*
X266547654Y-103026610D01*
X266587103Y-103049761D01*
X266588732Y-103050468D01*
X266607569Y-103061440D01*
X266749447Y-103107909D01*
X266897931Y-103123430D01*
X267007173Y-103111561D01*
X267075944Y-103123890D01*
X267127135Y-103171443D01*
X267144490Y-103239123D01*
X267122499Y-103305442D01*
X267108245Y-103322517D01*
X261366494Y-109064271D01*
X261305171Y-109097756D01*
X261278813Y-109100590D01*
X258892357Y-109100590D01*
X258734243Y-109100590D01*
X258581515Y-109141513D01*
X258581514Y-109141513D01*
X258581512Y-109141514D01*
X258581509Y-109141515D01*
X258531396Y-109170449D01*
X258531395Y-109170450D01*
X258487989Y-109195510D01*
X258444585Y-109220569D01*
X258444582Y-109220571D01*
X258332778Y-109332376D01*
X256845721Y-110819432D01*
X256784398Y-110852917D01*
X256723497Y-110850842D01*
X256413150Y-110760824D01*
X256413135Y-110760821D01*
X256299587Y-110743496D01*
X256299582Y-110743496D01*
X256147149Y-110760393D01*
X256147146Y-110760394D01*
X256084724Y-110784762D01*
X256015116Y-110790803D01*
X255953292Y-110758253D01*
X255939729Y-110742704D01*
X255900462Y-110689297D01*
X255780827Y-110593537D01*
X255780823Y-110593534D01*
X255675717Y-110547450D01*
X255675713Y-110547449D01*
X255564164Y-110515094D01*
X255236564Y-111644542D01*
X255198984Y-111703444D01*
X255135524Y-111732678D01*
X255082930Y-111729091D01*
X254961918Y-111693991D01*
X254961917Y-111693991D01*
X254926817Y-111815004D01*
X254889236Y-111873906D01*
X254825776Y-111903139D01*
X254773183Y-111899551D01*
X254018298Y-111680593D01*
X253877297Y-112166711D01*
X253875507Y-112178447D01*
X253845935Y-112241750D01*
X253817020Y-112265892D01*
X253802285Y-112274788D01*
X253802279Y-112274793D01*
X253693605Y-112377164D01*
X253693604Y-112377166D01*
X253608949Y-112500142D01*
X253552113Y-112638206D01*
X253525654Y-112785141D01*
X253525653Y-112785150D01*
X253530758Y-112934350D01*
X253530759Y-112934358D01*
X253536219Y-112956186D01*
X253536339Y-112956985D01*
X253547539Y-113001485D01*
X253549735Y-113012182D01*
X253555464Y-113048031D01*
X253556998Y-113069804D01*
X253556450Y-113100611D01*
X253554141Y-113122324D01*
X253547195Y-113157659D01*
X253544616Y-113168284D01*
X253116600Y-114643930D01*
X253116584Y-114643975D01*
X253104962Y-114684052D01*
X253101461Y-114694396D01*
X253088319Y-114728243D01*
X253078656Y-114747820D01*
X253062640Y-114774140D01*
X253049693Y-114791720D01*
X253025944Y-114818637D01*
X253018494Y-114826377D01*
X253009638Y-114834814D01*
X253009511Y-114834935D01*
X252984805Y-114858405D01*
X252984470Y-114858791D01*
X252967989Y-114874493D01*
X252904011Y-114968266D01*
X252849967Y-115012550D01*
X252780561Y-115020586D01*
X252717828Y-114989822D01*
X252713899Y-114986061D01*
X248928223Y-111200385D01*
X254157583Y-111200385D01*
X254157583Y-111200386D01*
X254791455Y-111384243D01*
X254791457Y-111384242D01*
X255083957Y-110375809D01*
X255083956Y-110375807D01*
X254972422Y-110343456D01*
X254972397Y-110343451D01*
X254858955Y-110326142D01*
X254858949Y-110326141D01*
X254706646Y-110343024D01*
X254563889Y-110398755D01*
X254440429Y-110489527D01*
X254344669Y-110609162D01*
X254344666Y-110609166D01*
X254298580Y-110714276D01*
X254157583Y-111200385D01*
X248928223Y-111200385D01*
X248471814Y-110743976D01*
X248438329Y-110682653D01*
X248435495Y-110656295D01*
X248435495Y-102398646D01*
X261697500Y-102398646D01*
X261712479Y-102512430D01*
X261712481Y-102512435D01*
X261771121Y-102654006D01*
X261771121Y-102654007D01*
X261864413Y-102775586D01*
X261985993Y-102868878D01*
X262127564Y-102927518D01*
X262127569Y-102927520D01*
X262241353Y-102942500D01*
X262747500Y-102942500D01*
X262747500Y-102282500D01*
X261697500Y-102282500D01*
X261697500Y-102398646D01*
X248435495Y-102398646D01*
X248435495Y-85184055D01*
X248435496Y-85184042D01*
X248435496Y-85015939D01*
X248394571Y-84863209D01*
X248394568Y-84863204D01*
X248315519Y-84726285D01*
X248315513Y-84726277D01*
X242490700Y-78901465D01*
X242457215Y-78840142D01*
X242455163Y-78827686D01*
X242445368Y-78740745D01*
X242385789Y-78570478D01*
X242289816Y-78417738D01*
X242162262Y-78290184D01*
X242009523Y-78194211D01*
X241839254Y-78134631D01*
X241839249Y-78134630D01*
X241660004Y-78114435D01*
X241659996Y-78114435D01*
X241480750Y-78134630D01*
X241480745Y-78134631D01*
X241310476Y-78194211D01*
X241157737Y-78290184D01*
X241030184Y-78417737D01*
X240934211Y-78570476D01*
X240874631Y-78740745D01*
X240874630Y-78740750D01*
X240854435Y-78919996D01*
X240854435Y-78920003D01*
X240874630Y-79099249D01*
X240874631Y-79099254D01*
X240934211Y-79269523D01*
X240960354Y-79311129D01*
X241030184Y-79422262D01*
X241157738Y-79549816D01*
X241310478Y-79645789D01*
X241480745Y-79705368D01*
X241567669Y-79715161D01*
X241632080Y-79742226D01*
X241641465Y-79750700D01*
X247198176Y-85307411D01*
X247231661Y-85368734D01*
X247234495Y-85395092D01*
X247234495Y-107425123D01*
X247214810Y-107492162D01*
X247162006Y-107537917D01*
X247092848Y-107547861D01*
X247029292Y-107518836D01*
X246991518Y-107460058D01*
X246988050Y-107444698D01*
X246888373Y-106821198D01*
X246846669Y-106560327D01*
X246571673Y-105077092D01*
X246369609Y-104120247D01*
X246259988Y-103601149D01*
X246216622Y-103418341D01*
X245911795Y-102133353D01*
X245527320Y-100674659D01*
X245106795Y-99225946D01*
X244650480Y-97788105D01*
X244563995Y-97537335D01*
X244158658Y-96362034D01*
X243631620Y-94948572D01*
X243405069Y-94384150D01*
X243069701Y-93548621D01*
X243034455Y-93466744D01*
X242473255Y-92163058D01*
X241856342Y-90822493D01*
X241842615Y-90792664D01*
X241178202Y-89438350D01*
X241178197Y-89438341D01*
X241178188Y-89438322D01*
X240480411Y-88100922D01*
X239749697Y-86781248D01*
X239524074Y-86396599D01*
X238986446Y-85480030D01*
X238191186Y-84198168D01*
X237364388Y-82936418D01*
X236506558Y-81695556D01*
X235618226Y-80476345D01*
X234699937Y-79279535D01*
X234661661Y-79232132D01*
X233752255Y-78105861D01*
X232775773Y-76956056D01*
X232242682Y-76359002D01*
X231771064Y-75830796D01*
X230738772Y-74730804D01*
X229747061Y-73725226D01*
X229679538Y-73656759D01*
X229679534Y-73656755D01*
X229679524Y-73656745D01*
X228593971Y-72609280D01*
X227633229Y-71727186D01*
X227482763Y-71589037D01*
X226346650Y-70596705D01*
X226346634Y-70596691D01*
X225746589Y-70098264D01*
X225186215Y-69632789D01*
X224002316Y-68698008D01*
X223972118Y-68675357D01*
X223013487Y-67956299D01*
X222795507Y-67792795D01*
X221566683Y-66917824D01*
X220316579Y-66073617D01*
X220293595Y-66058912D01*
X219045851Y-65260615D01*
X219045833Y-65260604D01*
X217755397Y-64479394D01*
X216978733Y-64035149D01*
X216445950Y-63730401D01*
X215502336Y-63221287D01*
X215118364Y-63014120D01*
X215118356Y-63014115D01*
X215118345Y-63014110D01*
X214317477Y-62607320D01*
X213773382Y-62330954D01*
X212862224Y-61896220D01*
X212411904Y-61681362D01*
X211034734Y-61065724D01*
X210995608Y-61049385D01*
X209642706Y-60484415D01*
X208985947Y-60229101D01*
X208985917Y-60229077D01*
X208502626Y-60041209D01*
X208465320Y-60026707D01*
X208465317Y-60026705D01*
X208465312Y-60026704D01*
X207505010Y-59688993D01*
X207505004Y-59688991D01*
X206534183Y-59382779D01*
X205678842Y-59143370D01*
X205553869Y-59108390D01*
X204565184Y-58866137D01*
X203569063Y-58656250D01*
X202566665Y-58478973D01*
X202566663Y-58478972D01*
X202566659Y-58478972D01*
X202354481Y-58448540D01*
X202114200Y-58414077D01*
X202114139Y-58414049D01*
X201454297Y-58319413D01*
X200232568Y-58181489D01*
X199007240Y-58080277D01*
X199007237Y-58080276D01*
X199007227Y-58080276D01*
X197779409Y-58015868D01*
X197578706Y-58011370D01*
X196550192Y-57988321D01*
X195320742Y-57997663D01*
X194092123Y-58043883D01*
X194092116Y-58043883D01*
X194092102Y-58043884D01*
X193333720Y-58095233D01*
X192865401Y-58126942D01*
X192308346Y-58181489D01*
X191641750Y-58246762D01*
X191353939Y-58283691D01*
X190422236Y-58403237D01*
X189207975Y-58596225D01*
X188000033Y-58825557D01*
X187265732Y-58987929D01*
X187196023Y-58983183D01*
X187139947Y-58941504D01*
X187115306Y-58876123D01*
X187129924Y-58807800D01*
X187151275Y-58779176D01*
X195634684Y-50295768D01*
X195634689Y-50295764D01*
X195644892Y-50285560D01*
X195644894Y-50285560D01*
X195756698Y-50173756D01*
X195835755Y-50036824D01*
X195866992Y-49920247D01*
X195876678Y-49884098D01*
X195876678Y-49725983D01*
X195876678Y-49640773D01*
X195896363Y-49573734D01*
X195949167Y-49527979D01*
X195972668Y-49519978D01*
X196001778Y-49513228D01*
X196218479Y-49462980D01*
X196326033Y-49422651D01*
X196326034Y-49422651D01*
X196326034Y-49422650D01*
X196326036Y-49422650D01*
X196450815Y-49333464D01*
X196548260Y-49215023D01*
X196604630Y-49091014D01*
X196611726Y-49075404D01*
X196611726Y-49075403D01*
X196611729Y-49075397D01*
X196636899Y-48924101D01*
X196625779Y-48809772D01*
X196621262Y-48790294D01*
X196504478Y-48286653D01*
X196460350Y-48096347D01*
X196440582Y-48043627D01*
X196420021Y-47988792D01*
X196420021Y-47988791D01*
X196330836Y-47864012D01*
X196279486Y-47821765D01*
X196240223Y-47763971D01*
X196238438Y-47694124D01*
X196245380Y-47674705D01*
X196272900Y-47614166D01*
X196298070Y-47462870D01*
X196286950Y-47348541D01*
X196281024Y-47322987D01*
X196249546Y-47187234D01*
X196196458Y-46958291D01*
X196200490Y-46888541D01*
X196229570Y-46842605D01*
X196685358Y-46386819D01*
X196746681Y-46353334D01*
X196773039Y-46350500D01*
X210985974Y-46350500D01*
X211053013Y-46370185D01*
G37*
%TD.AperFunction*%
%TA.AperFunction,Conductor*%
G36*
X264419553Y-75436395D02*
G01*
X264469605Y-75468792D01*
X264476754Y-75476412D01*
X264476758Y-75476415D01*
X264476759Y-75476416D01*
X264644668Y-75606778D01*
X264720213Y-75648352D01*
X264724195Y-75650543D01*
X264773437Y-75700110D01*
X264788410Y-75759179D01*
X264788410Y-82797508D01*
X264788409Y-82797526D01*
X264788409Y-82963232D01*
X264788408Y-82963232D01*
X264829333Y-83115963D01*
X264858268Y-83166078D01*
X264858269Y-83166082D01*
X264858270Y-83166082D01*
X264898214Y-83235269D01*
X264908389Y-83252892D01*
X264908391Y-83252895D01*
X265027259Y-83371763D01*
X265027265Y-83371768D01*
X269362843Y-87707346D01*
X269396328Y-87768669D01*
X269391344Y-87838361D01*
X269349472Y-87894294D01*
X269309705Y-87914118D01*
X268426454Y-88170309D01*
X268370982Y-88193073D01*
X268370978Y-88193075D01*
X268255486Y-88278938D01*
X268255483Y-88278941D01*
X268168854Y-88393875D01*
X268118116Y-88528552D01*
X268118115Y-88528556D01*
X268110551Y-88629658D01*
X268085919Y-88695042D01*
X268029849Y-88736730D01*
X267960141Y-88741485D01*
X267927112Y-88729042D01*
X267769615Y-88642367D01*
X267569639Y-88570274D01*
X267569640Y-88570274D01*
X267360846Y-88530350D01*
X267360851Y-88530350D01*
X267148380Y-88523580D01*
X266937475Y-88550130D01*
X266733319Y-88609347D01*
X266733312Y-88609350D01*
X266540939Y-88699771D01*
X266540937Y-88699772D01*
X266503386Y-88725269D01*
X266436865Y-88746640D01*
X266433733Y-88746680D01*
X259963628Y-88746680D01*
X259896589Y-88726995D01*
X259875947Y-88710361D01*
X251265678Y-80100092D01*
X251232193Y-80038769D01*
X251237177Y-79969077D01*
X251279049Y-79913144D01*
X251300608Y-79900191D01*
X251408923Y-79849280D01*
X251584790Y-79729872D01*
X251739813Y-79584424D01*
X251870175Y-79416515D01*
X251972664Y-79230281D01*
X252044757Y-79030306D01*
X252046604Y-79020645D01*
X252078527Y-78958498D01*
X252138984Y-78923473D01*
X252208779Y-78926694D01*
X252258824Y-78959087D01*
X252265555Y-78966261D01*
X252433463Y-79096623D01*
X252565372Y-79169215D01*
X252619702Y-79199114D01*
X252706155Y-79230281D01*
X252819673Y-79271206D01*
X253028463Y-79311129D01*
X253240929Y-79317899D01*
X253240929Y-79317898D01*
X253240933Y-79317899D01*
X253451838Y-79291349D01*
X253521290Y-79271204D01*
X253655997Y-79232132D01*
X253848378Y-79141707D01*
X254024245Y-79022299D01*
X254179268Y-78876851D01*
X254309630Y-78708942D01*
X254309630Y-78708940D01*
X254312618Y-78705093D01*
X254313557Y-78705822D01*
X254362581Y-78664215D01*
X254431838Y-78654980D01*
X254495093Y-78684655D01*
X254500615Y-78689850D01*
X254949298Y-79138533D01*
X254982783Y-79199856D01*
X254984837Y-79212330D01*
X254994630Y-79299249D01*
X255054210Y-79469521D01*
X255104662Y-79549815D01*
X255150184Y-79622262D01*
X255277738Y-79749816D01*
X255430478Y-79845789D01*
X255585944Y-79900189D01*
X255600745Y-79905368D01*
X255600750Y-79905369D01*
X255779996Y-79925565D01*
X255780000Y-79925565D01*
X255780004Y-79925565D01*
X255959249Y-79905369D01*
X255959252Y-79905368D01*
X255959255Y-79905368D01*
X256129522Y-79845789D01*
X256282262Y-79749816D01*
X256409816Y-79622262D01*
X256505789Y-79469522D01*
X256565368Y-79299255D01*
X256567590Y-79279535D01*
X256585565Y-79120003D01*
X256585565Y-79119996D01*
X256565369Y-78940750D01*
X256565368Y-78940745D01*
X256551623Y-78901465D01*
X256505789Y-78770478D01*
X256487106Y-78740745D01*
X256409815Y-78617737D01*
X256357166Y-78565088D01*
X256323681Y-78503765D01*
X256328665Y-78434073D01*
X256370537Y-78378140D01*
X256375173Y-78374832D01*
X256463700Y-78314726D01*
X256618723Y-78169278D01*
X256749085Y-78001369D01*
X256851574Y-77815135D01*
X256923667Y-77615160D01*
X256923667Y-77615157D01*
X256924370Y-77613209D01*
X256965624Y-77556818D01*
X257030815Y-77531683D01*
X257099248Y-77545783D01*
X257131450Y-77570418D01*
X257158390Y-77599131D01*
X257158394Y-77599135D01*
X257326303Y-77729497D01*
X257326305Y-77729498D01*
X257512541Y-77831988D01*
X257604119Y-77865002D01*
X257712513Y-77904079D01*
X257921303Y-77944002D01*
X258133768Y-77950772D01*
X258133768Y-77950771D01*
X258133772Y-77950772D01*
X258344678Y-77924222D01*
X258414126Y-77904078D01*
X258548836Y-77865005D01*
X258741218Y-77774579D01*
X258917085Y-77655172D01*
X259072107Y-77509724D01*
X259202469Y-77341815D01*
X259304958Y-77155580D01*
X259377051Y-76955605D01*
X259378898Y-76945943D01*
X259410822Y-76883796D01*
X259471280Y-76848773D01*
X259541075Y-76851994D01*
X259591120Y-76884390D01*
X259597849Y-76891562D01*
X259765758Y-77021924D01*
X259765760Y-77021925D01*
X259951996Y-77124415D01*
X260038437Y-77155577D01*
X260151968Y-77196506D01*
X260360758Y-77236429D01*
X260573223Y-77243199D01*
X260573223Y-77243198D01*
X260573227Y-77243199D01*
X260784133Y-77216649D01*
X260853581Y-77196505D01*
X260988291Y-77157432D01*
X261180673Y-77067006D01*
X261356540Y-76947599D01*
X261511562Y-76802151D01*
X261641924Y-76634242D01*
X261744413Y-76448007D01*
X261816506Y-76248032D01*
X261818469Y-76237764D01*
X261850393Y-76175617D01*
X261910850Y-76140593D01*
X261980645Y-76143814D01*
X262030691Y-76176210D01*
X262037641Y-76183617D01*
X262037640Y-76183617D01*
X262205480Y-76313924D01*
X262205491Y-76313932D01*
X262391655Y-76416383D01*
X262591556Y-76488449D01*
X262591555Y-76488449D01*
X262800260Y-76528356D01*
X262800278Y-76528358D01*
X263012649Y-76535124D01*
X263012657Y-76535124D01*
X263079079Y-76526762D01*
X262830009Y-75668059D01*
X262883629Y-75682427D01*
X263015281Y-75682427D01*
X263142448Y-75648352D01*
X263256462Y-75582526D01*
X263310216Y-75528771D01*
X263559287Y-76387475D01*
X263559288Y-76387476D01*
X263619869Y-76359002D01*
X263619872Y-76359000D01*
X263795676Y-76239637D01*
X263795689Y-76239627D01*
X263950645Y-76094241D01*
X264080952Y-75926401D01*
X264080960Y-75926390D01*
X264183412Y-75740222D01*
X264255475Y-75540329D01*
X264257382Y-75530357D01*
X264289303Y-75468205D01*
X264349758Y-75433177D01*
X264419553Y-75436395D01*
G37*
%TD.AperFunction*%
%TA.AperFunction,Conductor*%
G36*
X250346223Y-60285410D02*
G01*
X250366865Y-60302044D01*
X261888194Y-71823373D01*
X261921679Y-71884696D01*
X261916695Y-71954388D01*
X261874823Y-72010321D01*
X261853261Y-72023275D01*
X261721890Y-72085023D01*
X261721886Y-72085026D01*
X261546084Y-72204389D01*
X261391117Y-72349786D01*
X261260813Y-72517622D01*
X261260805Y-72517633D01*
X261158354Y-72703797D01*
X261086288Y-72903698D01*
X261084381Y-72913675D01*
X261052456Y-72975825D01*
X260991998Y-73010848D01*
X260922203Y-73007625D01*
X260872159Y-72975231D01*
X260865007Y-72967608D01*
X260792829Y-72911570D01*
X260697098Y-72837246D01*
X260697096Y-72837245D01*
X260697095Y-72837244D01*
X260510860Y-72734755D01*
X260310886Y-72662663D01*
X260310887Y-72662663D01*
X260102105Y-72622741D01*
X260102100Y-72622740D01*
X260102098Y-72622740D01*
X260102095Y-72622739D01*
X260102088Y-72622739D01*
X259889639Y-72615970D01*
X259889631Y-72615970D01*
X259678716Y-72642522D01*
X259474574Y-72701735D01*
X259474562Y-72701739D01*
X259282181Y-72792163D01*
X259106317Y-72911570D01*
X259106311Y-72911574D01*
X258951294Y-73057017D01*
X258851743Y-73185243D01*
X258795082Y-73226125D01*
X258725314Y-73229884D01*
X258666116Y-73196881D01*
X258054751Y-72585516D01*
X258054749Y-72585513D01*
X257935878Y-72466642D01*
X257935870Y-72466636D01*
X257811819Y-72395016D01*
X257811816Y-72395015D01*
X257798946Y-72387584D01*
X257646218Y-72346660D01*
X257488104Y-72346660D01*
X257480508Y-72346660D01*
X257480492Y-72346661D01*
X256597877Y-72346661D01*
X256530838Y-72326976D01*
X256485083Y-72274172D01*
X256475139Y-72205014D01*
X256504164Y-72141458D01*
X256514616Y-72130772D01*
X256604289Y-72049517D01*
X256663214Y-71996126D01*
X256791538Y-71836638D01*
X256893333Y-71659040D01*
X256966091Y-71467703D01*
X257008023Y-71267342D01*
X257016452Y-71096214D01*
X257018094Y-71062891D01*
X257018093Y-71062877D01*
X257012759Y-71013613D01*
X256996059Y-70859373D01*
X256967505Y-70754130D01*
X256837721Y-70275779D01*
X256837718Y-70275772D01*
X256837717Y-70275767D01*
X256753870Y-70089024D01*
X256641842Y-69917696D01*
X256641841Y-69917695D01*
X256641840Y-69917693D01*
X256641837Y-69917690D01*
X256504393Y-69766003D01*
X256504390Y-69766000D01*
X256344908Y-69637681D01*
X256336399Y-69632804D01*
X256178830Y-69542489D01*
X256167308Y-69535885D01*
X256167307Y-69535884D01*
X256167306Y-69535884D01*
X256038122Y-69486760D01*
X255975974Y-69463127D01*
X255975971Y-69463126D01*
X255975970Y-69463126D01*
X255875789Y-69442160D01*
X255775609Y-69421194D01*
X255571157Y-69411122D01*
X255571143Y-69411123D01*
X255367646Y-69433156D01*
X255170084Y-69486758D01*
X255170080Y-69486759D01*
X255170078Y-69486760D01*
X254983335Y-69570607D01*
X254983333Y-69570607D01*
X254983329Y-69570610D01*
X254812004Y-69682636D01*
X254812001Y-69682639D01*
X254660314Y-69820083D01*
X254660311Y-69820086D01*
X254531992Y-69979568D01*
X254430196Y-70157168D01*
X254357438Y-70348502D01*
X254357433Y-70348519D01*
X254336125Y-70450334D01*
X254303125Y-70511920D01*
X254242068Y-70545887D01*
X254172339Y-70541453D01*
X254122866Y-70508194D01*
X254053019Y-70431109D01*
X254053016Y-70431106D01*
X253893534Y-70302787D01*
X253869576Y-70289055D01*
X253715932Y-70200990D01*
X253586748Y-70151866D01*
X253524600Y-70128233D01*
X253524597Y-70128232D01*
X253524596Y-70128232D01*
X253424415Y-70107266D01*
X253324235Y-70086300D01*
X253119783Y-70076228D01*
X253119769Y-70076229D01*
X252916272Y-70098262D01*
X252718710Y-70151864D01*
X252718706Y-70151865D01*
X252718704Y-70151866D01*
X252531961Y-70235713D01*
X252531959Y-70235713D01*
X252531955Y-70235716D01*
X252360630Y-70347742D01*
X252360627Y-70347745D01*
X252208940Y-70485189D01*
X252208937Y-70485192D01*
X252080618Y-70644674D01*
X251978822Y-70822274D01*
X251906064Y-71013608D01*
X251906059Y-71013625D01*
X251884751Y-71115440D01*
X251851751Y-71177026D01*
X251790694Y-71210993D01*
X251720965Y-71206559D01*
X251671492Y-71173300D01*
X251601644Y-71096214D01*
X251601641Y-71096211D01*
X251442159Y-70967892D01*
X251264559Y-70866096D01*
X251264558Y-70866095D01*
X251264557Y-70866095D01*
X251204311Y-70843186D01*
X251073225Y-70793338D01*
X251073222Y-70793337D01*
X251073221Y-70793337D01*
X250973040Y-70772371D01*
X250872860Y-70751405D01*
X250668408Y-70741333D01*
X250668394Y-70741334D01*
X250464897Y-70763367D01*
X250267335Y-70816969D01*
X250267331Y-70816970D01*
X250220643Y-70837932D01*
X250080586Y-70900818D01*
X250080584Y-70900818D01*
X250080580Y-70900821D01*
X249909255Y-71012847D01*
X249909252Y-71012850D01*
X249757565Y-71150294D01*
X249757562Y-71150297D01*
X249629243Y-71309779D01*
X249527447Y-71487379D01*
X249454689Y-71678713D01*
X249454684Y-71678730D01*
X249433250Y-71781148D01*
X249400250Y-71842734D01*
X249339193Y-71876701D01*
X249269465Y-71872267D01*
X249219991Y-71839008D01*
X249149927Y-71761683D01*
X249149924Y-71761681D01*
X248990504Y-71633411D01*
X248812972Y-71531654D01*
X248812971Y-71531653D01*
X248621712Y-71458923D01*
X248621706Y-71458921D01*
X248421425Y-71417008D01*
X248217050Y-71406938D01*
X248217049Y-71406939D01*
X248162265Y-71412870D01*
X248435532Y-72420051D01*
X248373468Y-72403421D01*
X248241816Y-72403421D01*
X248114649Y-72437496D01*
X248000635Y-72503322D01*
X247952978Y-72550978D01*
X247679711Y-71543796D01*
X247679710Y-71543795D01*
X247629461Y-71566357D01*
X247629454Y-71566361D01*
X247458195Y-71678345D01*
X247458187Y-71678351D01*
X247306555Y-71815744D01*
X247306554Y-71815746D01*
X247178284Y-71975166D01*
X247076527Y-72152698D01*
X247076526Y-72152699D01*
X247003796Y-72343958D01*
X247003794Y-72343964D01*
X246961881Y-72544245D01*
X246951811Y-72748621D01*
X246951812Y-72748633D01*
X246973838Y-72952054D01*
X246987539Y-73002552D01*
X247824272Y-72775529D01*
X247807642Y-72837595D01*
X247807642Y-72969247D01*
X247841717Y-73096414D01*
X247907543Y-73210428D01*
X247955197Y-73258082D01*
X247118464Y-73485105D01*
X247118463Y-73485106D01*
X247132160Y-73535589D01*
X247215976Y-73722264D01*
X247215977Y-73722266D01*
X247327962Y-73893526D01*
X247327965Y-73893529D01*
X247465356Y-74045158D01*
X247465359Y-74045160D01*
X247624782Y-74173433D01*
X247624783Y-74173434D01*
X247802306Y-74275184D01*
X247802313Y-74275188D01*
X247993580Y-74347920D01*
X248193860Y-74389834D01*
X248398234Y-74399903D01*
X248398245Y-74399902D01*
X248453018Y-74393971D01*
X248179751Y-73386790D01*
X248241816Y-73403421D01*
X248373468Y-73403421D01*
X248500635Y-73369346D01*
X248614649Y-73303520D01*
X248662304Y-73255864D01*
X248935571Y-74263044D01*
X248985827Y-74240480D01*
X248985829Y-74240479D01*
X249157094Y-74128493D01*
X249308727Y-73991098D01*
X249308729Y-73991095D01*
X249436999Y-73831675D01*
X249538756Y-73654143D01*
X249538757Y-73654142D01*
X249611487Y-73462883D01*
X249611489Y-73462876D01*
X249632865Y-73360736D01*
X249665865Y-73299150D01*
X249726921Y-73265182D01*
X249796650Y-73269615D01*
X249846124Y-73302874D01*
X249916387Y-73380418D01*
X250075874Y-73508743D01*
X250253473Y-73610537D01*
X250444809Y-73683296D01*
X250645171Y-73725227D01*
X250799137Y-73732811D01*
X250849621Y-73735299D01*
X250849623Y-73735298D01*
X250849627Y-73735299D01*
X250980697Y-73721106D01*
X251053132Y-73713264D01*
X251053133Y-73713263D01*
X251053140Y-73713263D01*
X251053145Y-73713261D01*
X251053148Y-73713261D01*
X251163597Y-73683294D01*
X251250701Y-73659661D01*
X251437444Y-73575814D01*
X251449581Y-73567878D01*
X251516463Y-73547665D01*
X251517442Y-73547661D01*
X252488851Y-73547661D01*
X252555890Y-73567346D01*
X252601645Y-73620150D01*
X252612071Y-73657778D01*
X252624630Y-73769249D01*
X252624631Y-73769254D01*
X252684211Y-73939523D01*
X252716616Y-73991095D01*
X252776190Y-74085906D01*
X252780185Y-74092263D01*
X252782445Y-74095097D01*
X252783334Y-74097275D01*
X252783889Y-74098158D01*
X252783734Y-74098255D01*
X252808855Y-74159783D01*
X252809500Y-74172412D01*
X252809500Y-74665842D01*
X252789815Y-74732881D01*
X252737011Y-74778636D01*
X252681551Y-74789779D01*
X252585192Y-74786708D01*
X252374287Y-74813258D01*
X252170131Y-74872475D01*
X252170124Y-74872478D01*
X251977751Y-74962899D01*
X251977747Y-74962902D01*
X251801888Y-75082303D01*
X251801872Y-75082316D01*
X251646858Y-75227755D01*
X251516503Y-75395657D01*
X251516495Y-75395669D01*
X251414006Y-75581901D01*
X251341913Y-75781877D01*
X251340067Y-75791535D01*
X251308142Y-75853685D01*
X251247684Y-75888708D01*
X251177889Y-75885485D01*
X251127846Y-75853091D01*
X251121118Y-75845921D01*
X251121118Y-75845920D01*
X250953216Y-75715565D01*
X250953214Y-75715563D01*
X250953208Y-75715559D01*
X250841838Y-75654269D01*
X250766972Y-75613068D01*
X250566996Y-75540975D01*
X250566997Y-75540975D01*
X250358203Y-75501051D01*
X250358208Y-75501051D01*
X250145737Y-75494281D01*
X249934832Y-75520831D01*
X249730676Y-75580048D01*
X249730669Y-75580051D01*
X249538296Y-75670472D01*
X249538292Y-75670475D01*
X249362433Y-75789876D01*
X249362417Y-75789889D01*
X249207403Y-75935328D01*
X249077048Y-76103230D01*
X249077040Y-76103242D01*
X248974551Y-76289474D01*
X248902458Y-76489450D01*
X248862534Y-76698241D01*
X248855764Y-76910709D01*
X248882313Y-77121608D01*
X248991039Y-77496457D01*
X248990808Y-77566327D01*
X248952841Y-77624980D01*
X248889190Y-77653795D01*
X248820064Y-77643624D01*
X248784266Y-77618681D01*
X242365691Y-71200106D01*
X242332206Y-71138783D01*
X242337190Y-71069091D01*
X242379062Y-71013158D01*
X242395001Y-71004083D01*
X242394746Y-71003642D01*
X242456667Y-70967891D01*
X242456668Y-70967890D01*
X242538716Y-70920520D01*
X242650520Y-70808716D01*
X242650520Y-70808714D01*
X242660724Y-70798511D01*
X242660728Y-70798506D01*
X242758506Y-70700728D01*
X242758511Y-70700724D01*
X242768714Y-70690520D01*
X242768716Y-70690520D01*
X242880520Y-70578716D01*
X242943393Y-70469816D01*
X242959577Y-70441785D01*
X243000500Y-70289057D01*
X243000500Y-70130943D01*
X243000500Y-64609059D01*
X243000501Y-64609046D01*
X243000501Y-64440945D01*
X243000501Y-64440943D01*
X242959577Y-64288215D01*
X242907898Y-64198705D01*
X242880520Y-64151284D01*
X242768716Y-64039480D01*
X242768715Y-64039479D01*
X242764385Y-64035149D01*
X242764374Y-64035139D01*
X240069609Y-61340374D01*
X240036124Y-61279051D01*
X240038061Y-61218629D01*
X240067425Y-61115865D01*
X240068524Y-61049383D01*
X240089314Y-60982680D01*
X240142866Y-60937804D01*
X240162388Y-60931147D01*
X240226899Y-60915000D01*
X240360975Y-60840518D01*
X240443531Y-60760647D01*
X240799229Y-60312622D01*
X240856329Y-60272359D01*
X240896343Y-60265725D01*
X250279184Y-60265725D01*
X250346223Y-60285410D01*
G37*
%TD.AperFunction*%
%TA.AperFunction,Conductor*%
G36*
X262861765Y-74187143D02*
G01*
X262920418Y-74225111D01*
X262945529Y-74271461D01*
X263068898Y-74696794D01*
X263015281Y-74682427D01*
X262883629Y-74682427D01*
X262756462Y-74716502D01*
X262642448Y-74782328D01*
X262588692Y-74836083D01*
X262465322Y-74410746D01*
X262465553Y-74340877D01*
X262503520Y-74282223D01*
X262549872Y-74257111D01*
X262791896Y-74186912D01*
X262861765Y-74187143D01*
G37*
%TD.AperFunction*%
%TA.AperFunction,Conductor*%
G36*
X192276897Y-46710719D02*
G01*
X192322652Y-46763523D01*
X192332596Y-46832681D01*
X192303571Y-46896237D01*
X192244793Y-46934011D01*
X192237870Y-46935828D01*
X191454784Y-47117411D01*
X191447809Y-47119028D01*
X191421257Y-47125183D01*
X191410519Y-47127178D01*
X191374578Y-47132231D01*
X191352778Y-47133356D01*
X191321989Y-47132229D01*
X191300324Y-47129512D01*
X191280299Y-47125183D01*
X191264674Y-47121805D01*
X191254107Y-47119028D01*
X191210406Y-47105459D01*
X191209508Y-47105275D01*
X191188169Y-47098684D01*
X191188166Y-47098683D01*
X191039460Y-47085465D01*
X191039454Y-47085465D01*
X190891309Y-47103886D01*
X190891296Y-47103888D01*
X190750359Y-47153121D01*
X190750351Y-47153124D01*
X190622959Y-47230956D01*
X190622949Y-47230964D01*
X190514825Y-47333896D01*
X190514821Y-47333900D01*
X190505505Y-47347587D01*
X190451509Y-47391929D01*
X190415008Y-47401228D01*
X190402725Y-47402423D01*
X190402708Y-47402425D01*
X188929446Y-47744046D01*
X188821894Y-47784374D01*
X188821893Y-47784374D01*
X188748849Y-47836583D01*
X188682863Y-47859551D01*
X188676745Y-47859702D01*
X188196467Y-47859702D01*
X188196451Y-47859701D01*
X188188855Y-47859701D01*
X188030741Y-47859701D01*
X187954377Y-47880163D01*
X187878010Y-47900625D01*
X187878007Y-47900627D01*
X187858395Y-47911950D01*
X187810281Y-47927782D01*
X187660750Y-47944630D01*
X187490478Y-48004210D01*
X187337737Y-48100184D01*
X187210184Y-48227737D01*
X187114211Y-48380476D01*
X187054631Y-48550745D01*
X187054630Y-48550750D01*
X187034435Y-48729996D01*
X187034435Y-48730003D01*
X187054630Y-48909249D01*
X187054631Y-48909254D01*
X187114211Y-49079523D01*
X187201369Y-49218233D01*
X187210184Y-49232262D01*
X187337738Y-49359816D01*
X187396978Y-49397039D01*
X187486742Y-49453442D01*
X187490478Y-49455789D01*
X187511029Y-49462980D01*
X187660745Y-49515368D01*
X187660750Y-49515369D01*
X187839996Y-49535565D01*
X187840000Y-49535565D01*
X187840004Y-49535565D01*
X188019249Y-49515369D01*
X188019252Y-49515368D01*
X188019255Y-49515368D01*
X188189522Y-49455789D01*
X188342262Y-49359816D01*
X188469816Y-49232262D01*
X188501545Y-49181764D01*
X188553880Y-49135474D01*
X188622933Y-49124826D01*
X188686782Y-49153201D01*
X188722645Y-49204202D01*
X188727906Y-49218233D01*
X188727906Y-49218234D01*
X188817091Y-49343012D01*
X188817093Y-49343013D01*
X188817094Y-49343015D01*
X188851909Y-49371658D01*
X188868839Y-49385587D01*
X188908103Y-49443381D01*
X188909888Y-49513228D01*
X188902942Y-49532657D01*
X188875511Y-49593001D01*
X188875510Y-49593007D01*
X188850362Y-49744169D01*
X188850362Y-49744170D01*
X188861471Y-49858401D01*
X188887707Y-49971543D01*
X188887708Y-49971544D01*
X190033312Y-49705903D01*
X190103065Y-49709935D01*
X190159565Y-49751039D01*
X190182117Y-49798688D01*
X190210578Y-49921431D01*
X190333321Y-49892970D01*
X190403074Y-49897002D01*
X190459574Y-49938106D01*
X190482126Y-49985755D01*
X190659672Y-50751439D01*
X191152732Y-50637110D01*
X191152742Y-50637107D01*
X191163868Y-50632935D01*
X191233551Y-50627826D01*
X191268749Y-50641272D01*
X191269995Y-50641982D01*
X191283720Y-50649794D01*
X191343609Y-50668655D01*
X191426121Y-50694641D01*
X191574777Y-50708465D01*
X191723008Y-50690646D01*
X191864153Y-50641982D01*
X191991869Y-50564662D01*
X192008010Y-50549463D01*
X192008584Y-50549022D01*
X192042223Y-50517267D01*
X192050488Y-50510126D01*
X192078980Y-50487623D01*
X192097230Y-50475655D01*
X192124391Y-50461091D01*
X192144460Y-50452510D01*
X192179124Y-50441179D01*
X192189676Y-50438239D01*
X192190310Y-50438092D01*
X192190311Y-50438091D01*
X192223008Y-50430512D01*
X192223008Y-50430511D01*
X192239934Y-50426588D01*
X192239954Y-50426580D01*
X193678813Y-50092937D01*
X193678846Y-50092934D01*
X193693165Y-50089612D01*
X193693166Y-50089613D01*
X193726697Y-50081835D01*
X193737429Y-50079840D01*
X193773380Y-50074781D01*
X193795172Y-50073654D01*
X193825982Y-50074777D01*
X193847635Y-50077489D01*
X193877626Y-50083967D01*
X193938998Y-50117360D01*
X193972574Y-50178634D01*
X193967693Y-50248333D01*
X193939128Y-50292853D01*
X186218802Y-58013181D01*
X186157479Y-58046666D01*
X186131121Y-58049500D01*
X175740940Y-58049500D01*
X175700018Y-58060465D01*
X175699985Y-58060474D01*
X175696271Y-58061468D01*
X175626421Y-58059785D01*
X175568570Y-58020606D01*
X175541085Y-57956369D01*
X175552691Y-57887470D01*
X175588945Y-57843141D01*
X176214021Y-57365753D01*
X176295431Y-57284713D01*
X176372419Y-57152060D01*
X176412452Y-57004002D01*
X176412678Y-56904216D01*
X176432515Y-56837224D01*
X176485423Y-56791589D01*
X176536678Y-56780500D01*
X178757588Y-56780500D01*
X178824627Y-56800185D01*
X178834903Y-56807555D01*
X178837736Y-56809814D01*
X178837738Y-56809816D01*
X178951270Y-56881152D01*
X178987977Y-56904218D01*
X178990478Y-56905789D01*
X179127597Y-56953769D01*
X179160745Y-56965368D01*
X179160750Y-56965369D01*
X179339996Y-56985565D01*
X179340000Y-56985565D01*
X179340004Y-56985565D01*
X179519249Y-56965369D01*
X179519252Y-56965368D01*
X179519255Y-56965368D01*
X179689522Y-56905789D01*
X179842262Y-56809816D01*
X179969816Y-56682262D01*
X180065789Y-56529522D01*
X180125368Y-56359255D01*
X180129762Y-56320261D01*
X180145565Y-56180003D01*
X180145565Y-56179996D01*
X180125369Y-56000750D01*
X180125368Y-56000745D01*
X180101747Y-55933241D01*
X180065789Y-55830478D01*
X179969816Y-55677738D01*
X179842262Y-55550184D01*
X179778773Y-55510291D01*
X179689523Y-55454211D01*
X179519254Y-55394631D01*
X179519249Y-55394630D01*
X179340004Y-55374435D01*
X179339996Y-55374435D01*
X179160750Y-55394630D01*
X179160745Y-55394631D01*
X178990476Y-55454211D01*
X178837736Y-55550185D01*
X178834903Y-55552445D01*
X178832724Y-55553334D01*
X178831842Y-55553889D01*
X178831744Y-55553734D01*
X178770217Y-55578855D01*
X178757588Y-55579500D01*
X176068215Y-55579500D01*
X176068199Y-55579499D01*
X176060603Y-55579499D01*
X175902488Y-55579499D01*
X175800670Y-55606781D01*
X175749760Y-55620423D01*
X175666749Y-55668349D01*
X175598848Y-55684820D01*
X175532822Y-55661968D01*
X175489632Y-55607046D01*
X175484903Y-55592782D01*
X175467676Y-55527900D01*
X175469497Y-55458054D01*
X175499840Y-55408400D01*
X180449620Y-50458621D01*
X189000651Y-50458621D01*
X189026885Y-50571760D01*
X189026888Y-50571771D01*
X189067183Y-50679229D01*
X189156292Y-50803902D01*
X189156294Y-50803905D01*
X189274627Y-50901259D01*
X189274630Y-50901261D01*
X189414130Y-50964674D01*
X189414139Y-50964676D01*
X189565300Y-50989824D01*
X189679530Y-50978715D01*
X189679537Y-50978714D01*
X190172595Y-50864383D01*
X190023512Y-50221441D01*
X189000651Y-50458621D01*
X180449620Y-50458621D01*
X184180889Y-46727353D01*
X184242212Y-46693868D01*
X184268570Y-46691034D01*
X192209858Y-46691034D01*
X192276897Y-46710719D01*
G37*
%TD.AperFunction*%
%TD*%
M02*
