%TF.GenerationSoftware,KiCad,Pcbnew,8.0.7*%
%TF.CreationDate,2026-02-28T13:34:10+00:00*%
%TF.ProjectId,macropad,6d616372-6f70-4616-942e-6b696361645f,rev?*%
%TF.SameCoordinates,Original*%
%TF.FileFunction,Legend,Bot*%
%TF.FilePolarity,Positive*%
%FSLAX46Y46*%
G04 Gerber Fmt 4.6, Leading zero omitted, Abs format (unit mm)*
G04 Created by KiCad (PCBNEW 8.0.7) date 2026-02-28 13:34:10*
%MOMM*%
%LPD*%
G01*
G04 APERTURE LIST*
G04 Aperture macros list*
%AMRoundRect*
0 Rectangle with rounded corners*
0 $1 Rounding radius*
0 $2 $3 $4 $5 $6 $7 $8 $9 X,Y pos of 4 corners*
0 Add a 4 corners polygon primitive as box body*
4,1,4,$2,$3,$4,$5,$6,$7,$8,$9,$2,$3,0*
0 Add four circle primitives for the rounded corners*
1,1,$1+$1,$2,$3*
1,1,$1+$1,$4,$5*
1,1,$1+$1,$6,$7*
1,1,$1+$1,$8,$9*
0 Add four rect primitives between the rounded corners*
20,1,$1+$1,$2,$3,$4,$5,0*
20,1,$1+$1,$4,$5,$6,$7,0*
20,1,$1+$1,$6,$7,$8,$9,0*
20,1,$1+$1,$8,$9,$2,$3,0*%
%AMHorizOval*
0 Thick line with rounded ends*
0 $1 width*
0 $2 $3 position (X,Y) of the first rounded end (center of the circle)*
0 $4 $5 position (X,Y) of the second rounded end (center of the circle)*
0 Add line between two ends*
20,1,$1,$2,$3,$4,$5,0*
0 Add two circle primitives to create the rounded ends*
1,1,$1,$2,$3*
1,1,$1,$4,$5*%
G04 Aperture macros list end*
%ADD10C,0.101600*%
%ADD11C,0.150000*%
%ADD12C,0.100000*%
%ADD13C,0.127000*%
%ADD14C,0.120000*%
%ADD15C,0.253999*%
%ADD16C,0.025400*%
%ADD17RoundRect,0.089600X-0.748400X0.358400X-0.748400X-0.358400X0.748400X-0.358400X0.748400X0.358400X0*%
%ADD18RoundRect,0.089600X0.552696X0.618935X-0.135730X0.818615X-0.552696X-0.618935X0.135730X-0.818615X0*%
%ADD19RoundRect,0.089600X-0.363285X0.746041X-0.808984X0.184655X0.363285X-0.746041X0.808984X-0.184655X0*%
%ADD20RoundRect,0.089600X-0.663691X0.498064X-0.804108X-0.204848X0.663691X-0.498064X0.804108X0.204848X0*%
%ADD21RoundRect,0.089600X-0.810014X0.180083X-0.648099X-0.518190X0.810014X-0.180083X0.648099X0.518190X0*%
%ADD22RoundRect,0.089600X-0.812312X-0.169417X-0.377243X-0.739081X0.812312X0.169417X0.377243X0.739081X0*%
%ADD23C,6.076000*%
%ADD24C,1.776000*%
%ADD25C,4.076000*%
%ADD26C,2.276000*%
%ADD27HorizOval,1.676000X-0.052370X0.193022X0.052370X-0.193022X0*%
%ADD28RoundRect,0.038000X1.303854X-1.443941X0.328852X1.917513X-1.303854X1.443941X-0.328852X-1.917513X0*%
%ADD29HorizOval,1.776000X-0.264643X0.912395X0.264643X-0.912395X0*%
%ADD30HorizOval,1.776000X0.264643X-0.912395X-0.264643X0.912395X0*%
%ADD31HorizOval,1.776000X-0.278572X0.960415X0.278572X-0.960415X0*%
G04 APERTURE END LIST*
D10*
X258407782Y-85144279D02*
X257716603Y-85344758D01*
X257716603Y-85344758D02*
X257623495Y-85327687D01*
X257623495Y-85327687D02*
X257571045Y-85298822D01*
X257571045Y-85298822D02*
X257506802Y-85229300D01*
X257506802Y-85229300D02*
X257459630Y-85066669D01*
X257459630Y-85066669D02*
X257476702Y-84973561D01*
X257476702Y-84973561D02*
X257505567Y-84921111D01*
X257505567Y-84921111D02*
X257575089Y-84856867D01*
X257575089Y-84856867D02*
X258266268Y-84656388D01*
X257164808Y-84050230D02*
X257306323Y-84538121D01*
X257235565Y-84294176D02*
X258089375Y-84046525D01*
X258089375Y-84046525D02*
X257990988Y-84163219D01*
X257990988Y-84163219D02*
X257933258Y-84268120D01*
X257933258Y-84268120D02*
X257916186Y-84361228D01*
D11*
X260662539Y-85371643D02*
X259516409Y-85009938D01*
X260476825Y-84731366D02*
X259702124Y-85650215D01*
X259410286Y-84644065D02*
X260370702Y-84365493D01*
X259565303Y-84152867D02*
X259432650Y-83695527D01*
X259317429Y-84323927D02*
X260184987Y-83725217D01*
X260184987Y-83725217D02*
X259131715Y-83683650D01*
X259946211Y-82902004D02*
X259893150Y-82719067D01*
X259893150Y-82719067D02*
X259820885Y-82640865D01*
X259820885Y-82640865D02*
X259702886Y-82575927D01*
X259702886Y-82575927D02*
X259506685Y-82583254D01*
X259506685Y-82583254D02*
X259186546Y-82676112D01*
X259186546Y-82676112D02*
X259016875Y-82774907D01*
X259016875Y-82774907D02*
X258951938Y-82892906D01*
X258951938Y-82892906D02*
X258932734Y-82997639D01*
X258932734Y-82997639D02*
X258985796Y-83180576D01*
X258985796Y-83180576D02*
X259058061Y-83258778D01*
X259058061Y-83258778D02*
X259176059Y-83323716D01*
X259176059Y-83323716D02*
X259372261Y-83316389D01*
X259372261Y-83316389D02*
X259692399Y-83223531D01*
X259692399Y-83223531D02*
X259862070Y-83124736D01*
X259862070Y-83124736D02*
X259927008Y-83006737D01*
X259927008Y-83006737D02*
X259946211Y-82902004D01*
X262570732Y-88189722D02*
X262485202Y-88065786D01*
X262485202Y-88065786D02*
X262418875Y-87837115D01*
X262418875Y-87837115D02*
X262438079Y-87732382D01*
X262438079Y-87732382D02*
X262470547Y-87673382D01*
X262470547Y-87673382D02*
X262548750Y-87601118D01*
X262548750Y-87601118D02*
X262640218Y-87574587D01*
X262640218Y-87574587D02*
X262744952Y-87593790D01*
X262744952Y-87593790D02*
X262803951Y-87626259D01*
X262803951Y-87626259D02*
X262876216Y-87704462D01*
X262876216Y-87704462D02*
X262975011Y-87874133D01*
X262975011Y-87874133D02*
X263047276Y-87952336D01*
X263047276Y-87952336D02*
X263106275Y-87984804D01*
X263106275Y-87984804D02*
X263211009Y-88004008D01*
X263211009Y-88004008D02*
X263302477Y-87977477D01*
X263302477Y-87977477D02*
X263380680Y-87905212D01*
X263380680Y-87905212D02*
X263413149Y-87846213D01*
X263413149Y-87846213D02*
X263432352Y-87741479D01*
X263432352Y-87741479D02*
X263366025Y-87512809D01*
X263366025Y-87512809D02*
X263280495Y-87388872D01*
X262186037Y-86863435D02*
X262166834Y-86968168D01*
X262166834Y-86968168D02*
X262219895Y-87151104D01*
X262219895Y-87151104D02*
X262292160Y-87229307D01*
X262292160Y-87229307D02*
X262396893Y-87248510D01*
X262396893Y-87248510D02*
X262762766Y-87142388D01*
X262762766Y-87142388D02*
X262840969Y-87070123D01*
X262840969Y-87070123D02*
X262860172Y-86965390D01*
X262860172Y-86965390D02*
X262807111Y-86782453D01*
X262807111Y-86782453D02*
X262734846Y-86704250D01*
X262734846Y-86704250D02*
X262630113Y-86685047D01*
X262630113Y-86685047D02*
X262538644Y-86711578D01*
X262538644Y-86711578D02*
X262579830Y-87195449D01*
X261947261Y-86040221D02*
X261928058Y-86144955D01*
X261928058Y-86144955D02*
X261981119Y-86327891D01*
X261981119Y-86327891D02*
X262053384Y-86406094D01*
X262053384Y-86406094D02*
X262158117Y-86425297D01*
X262158117Y-86425297D02*
X262523990Y-86319174D01*
X262523990Y-86319174D02*
X262602193Y-86246910D01*
X262602193Y-86246910D02*
X262621396Y-86142176D01*
X262621396Y-86142176D02*
X262568335Y-85959240D01*
X262568335Y-85959240D02*
X262496070Y-85881037D01*
X262496070Y-85881037D02*
X262391336Y-85861834D01*
X262391336Y-85861834D02*
X262299868Y-85888365D01*
X262299868Y-85888365D02*
X262341054Y-86372236D01*
X261708485Y-85217008D02*
X261689282Y-85321741D01*
X261689282Y-85321741D02*
X261742343Y-85504678D01*
X261742343Y-85504678D02*
X261814608Y-85582880D01*
X261814608Y-85582880D02*
X261919341Y-85602084D01*
X261919341Y-85602084D02*
X262285214Y-85495961D01*
X262285214Y-85495961D02*
X262363417Y-85423696D01*
X262363417Y-85423696D02*
X262382620Y-85318963D01*
X262382620Y-85318963D02*
X262329559Y-85136027D01*
X262329559Y-85136027D02*
X262257294Y-85057824D01*
X262257294Y-85057824D02*
X262152560Y-85038621D01*
X262152560Y-85038621D02*
X262061092Y-85065151D01*
X262061092Y-85065151D02*
X262102277Y-85549023D01*
X261410710Y-84361326D02*
X262371125Y-84082754D01*
X261456444Y-84348061D02*
X261437240Y-84452794D01*
X261437240Y-84452794D02*
X261490302Y-84635730D01*
X261490302Y-84635730D02*
X261562566Y-84713933D01*
X261562566Y-84713933D02*
X261621566Y-84746402D01*
X261621566Y-84746402D02*
X261726299Y-84765605D01*
X261726299Y-84765605D02*
X262000704Y-84686013D01*
X262000704Y-84686013D02*
X262078906Y-84613749D01*
X262078906Y-84613749D02*
X262111375Y-84554749D01*
X262111375Y-84554749D02*
X262130578Y-84450016D01*
X262130578Y-84450016D02*
X262077517Y-84267079D01*
X262077517Y-84267079D02*
X262005252Y-84188877D01*
X261124810Y-83204709D02*
X261039280Y-83080772D01*
X261039280Y-83080772D02*
X260972953Y-82852102D01*
X260972953Y-82852102D02*
X260992157Y-82747368D01*
X260992157Y-82747368D02*
X261024625Y-82688369D01*
X261024625Y-82688369D02*
X261102828Y-82616104D01*
X261102828Y-82616104D02*
X261194296Y-82589573D01*
X261194296Y-82589573D02*
X261299030Y-82608777D01*
X261299030Y-82608777D02*
X261358029Y-82641245D01*
X261358029Y-82641245D02*
X261430294Y-82719448D01*
X261430294Y-82719448D02*
X261529089Y-82889119D01*
X261529089Y-82889119D02*
X261601354Y-82967322D01*
X261601354Y-82967322D02*
X261660354Y-82999791D01*
X261660354Y-82999791D02*
X261765087Y-83018994D01*
X261765087Y-83018994D02*
X261856555Y-82992463D01*
X261856555Y-82992463D02*
X261934758Y-82920199D01*
X261934758Y-82920199D02*
X261967227Y-82861199D01*
X261967227Y-82861199D02*
X261986430Y-82756466D01*
X261986430Y-82756466D02*
X261920103Y-82527795D01*
X261920103Y-82527795D02*
X261834573Y-82403859D01*
X261480577Y-82209046D02*
X261374454Y-81843174D01*
X261760919Y-81978987D02*
X260937706Y-82217763D01*
X260937706Y-82217763D02*
X260832973Y-82198559D01*
X260832973Y-82198559D02*
X260760708Y-82120357D01*
X260760708Y-82120357D02*
X260734177Y-82028888D01*
X261162209Y-81111428D02*
X260521932Y-81297143D01*
X261281597Y-81523035D02*
X260778522Y-81668954D01*
X260778522Y-81668954D02*
X260673789Y-81649750D01*
X260673789Y-81649750D02*
X260601524Y-81571547D01*
X260601524Y-81571547D02*
X260561728Y-81434345D01*
X260561728Y-81434345D02*
X260580931Y-81329612D01*
X260580931Y-81329612D02*
X260613400Y-81270612D01*
X260269890Y-80428196D02*
X261230306Y-80149624D01*
X260315624Y-80414930D02*
X260296421Y-80519664D01*
X260296421Y-80519664D02*
X260349482Y-80702600D01*
X260349482Y-80702600D02*
X260421747Y-80780803D01*
X260421747Y-80780803D02*
X260480747Y-80813272D01*
X260480747Y-80813272D02*
X260585480Y-80832475D01*
X260585480Y-80832475D02*
X260859884Y-80752883D01*
X260859884Y-80752883D02*
X260938087Y-80680618D01*
X260938087Y-80680618D02*
X260970556Y-80621619D01*
X260970556Y-80621619D02*
X260989759Y-80516885D01*
X260989759Y-80516885D02*
X260936698Y-80333949D01*
X260936698Y-80333949D02*
X260864433Y-80255746D01*
X260137237Y-79970855D02*
X260777514Y-79785140D01*
X261097652Y-79692283D02*
X261065184Y-79751282D01*
X261065184Y-79751282D02*
X261006184Y-79718814D01*
X261006184Y-79718814D02*
X261038653Y-79659814D01*
X261038653Y-79659814D02*
X261097652Y-79692283D01*
X261097652Y-79692283D02*
X261006184Y-79718814D01*
X259964788Y-79376313D02*
X260037052Y-79454515D01*
X260037052Y-79454515D02*
X260096052Y-79486984D01*
X260096052Y-79486984D02*
X260200785Y-79506187D01*
X260200785Y-79506187D02*
X260475190Y-79426595D01*
X260475190Y-79426595D02*
X260553392Y-79354331D01*
X260553392Y-79354331D02*
X260585861Y-79295331D01*
X260585861Y-79295331D02*
X260605065Y-79190598D01*
X260605065Y-79190598D02*
X260565269Y-79053396D01*
X260565269Y-79053396D02*
X260493004Y-78975193D01*
X260493004Y-78975193D02*
X260434004Y-78942724D01*
X260434004Y-78942724D02*
X260329271Y-78923521D01*
X260329271Y-78923521D02*
X260054867Y-79003113D01*
X260054867Y-79003113D02*
X259976664Y-79075378D01*
X259976664Y-79075378D02*
X259944195Y-79134377D01*
X259944195Y-79134377D02*
X259924992Y-79239110D01*
X259924992Y-79239110D02*
X259964788Y-79376313D01*
D12*
%TO.C,D6*%
X269797500Y-103182500D02*
X268897500Y-103182500D01*
X269797500Y-102282500D01*
X269797500Y-103182500D01*
G36*
X269797500Y-103182500D02*
G01*
X268897500Y-103182500D01*
X269797500Y-102282500D01*
X269797500Y-103182500D01*
G37*
%TO.C,D5*%
X252827524Y-118155172D02*
X251963150Y-117904458D01*
X252213865Y-117040084D01*
X252827524Y-118155172D01*
G36*
X252827524Y-118155172D02*
G01*
X251963150Y-117904458D01*
X252213865Y-117040084D01*
X252827524Y-118155172D01*
G37*
%TO.C,D4*%
X239258035Y-62735526D02*
X238553169Y-62175915D01*
X239817646Y-62030661D01*
X239258035Y-62735526D01*
G36*
X239258035Y-62735526D02*
G01*
X238553169Y-62175915D01*
X239817646Y-62030661D01*
X239258035Y-62735526D01*
G37*
%TO.C,D3*%
X218472970Y-50979803D02*
X217590408Y-50803498D01*
X218649275Y-50097241D01*
X218472970Y-50979803D01*
G36*
X218472970Y-50979803D02*
G01*
X217590408Y-50803498D01*
X218649275Y-50097241D01*
X218472970Y-50979803D01*
G37*
%TO.C,D2*%
X197094593Y-49505682D02*
X196217855Y-49708980D01*
X196891296Y-48628944D01*
X197094593Y-49505682D01*
G36*
X197094593Y-49505682D02*
G01*
X196217855Y-49708980D01*
X196891296Y-48628944D01*
X197094593Y-49505682D01*
G37*
%TO.C,D1*%
X177030002Y-57043925D02*
X176314743Y-57590189D01*
X176483739Y-56328666D01*
X177030002Y-57043925D01*
G36*
X177030002Y-57043925D02*
G01*
X176314743Y-57590189D01*
X176483739Y-56328666D01*
X177030002Y-57043925D01*
G37*
D13*
%TO.C,U1*%
X248188149Y-80218881D02*
X252032443Y-93472613D01*
X254510418Y-94836299D02*
X270837479Y-90100574D01*
X263330882Y-78325593D02*
X270393104Y-76277169D01*
X265838030Y-86969331D02*
X263330882Y-78325593D01*
X265878896Y-73005181D02*
X249551835Y-77740906D01*
X270393104Y-76277169D02*
X272900252Y-84920907D01*
X272200291Y-87622852D02*
X268355997Y-74369121D01*
X272900252Y-84920907D02*
X265838030Y-86969331D01*
D14*
X248188149Y-80218881D02*
G75*
G02*
X249551835Y-77740907I1920830J557144D01*
G01*
X254510418Y-94836299D02*
G75*
G02*
X252032443Y-93472613I-526559J1976408D01*
G01*
X265878896Y-73005181D02*
G75*
G02*
X268356871Y-74368867I526727J-1976102D01*
G01*
X272201165Y-87622599D02*
G75*
G02*
X270837479Y-90100574I-1976104J-526726D01*
G01*
D15*
X271837604Y-92033874D02*
G75*
G02*
X271583606Y-92033874I-126999J0D01*
G01*
X271583606Y-92033874D02*
G75*
G02*
X271837604Y-92033874I126999J0D01*
G01*
D16*
X270939307Y-90055073D02*
X270893319Y-90071586D01*
X270985256Y-90037514D01*
X270939307Y-90055073D01*
X249173236Y-77910853D02*
X249216581Y-77887967D01*
X249260454Y-77865984D01*
X249304926Y-77845151D01*
X249349924Y-77825223D01*
X249395276Y-77806515D01*
X249441224Y-77788956D01*
X249487213Y-77772444D01*
X249534043Y-77757008D01*
X249173236Y-77910853D01*
%TD*%
%LPC*%
D17*
%TO.C,D6*%
X262997500Y-100532500D03*
X262997500Y-102032500D03*
X268197500Y-100532500D03*
X268197500Y-102032500D03*
%TD*%
D18*
%TO.C,D5*%
X256402541Y-112111849D03*
X254961918Y-111693991D03*
X254953966Y-117106009D03*
X253513343Y-116688151D03*
%TD*%
D19*
%TO.C,D4*%
X235580130Y-56431914D03*
X234647445Y-57606690D03*
X239652686Y-59665225D03*
X238720000Y-60840000D03*
%TD*%
D20*
%TO.C,D3*%
X212323842Y-47049062D03*
X212030000Y-48520000D03*
X217423091Y-48067715D03*
X217129249Y-49538653D03*
%TD*%
D21*
%TO.C,D2*%
X189871750Y-48460202D03*
X190210579Y-49921432D03*
X194937349Y-47285593D03*
X195276178Y-48746824D03*
%TD*%
D22*
%TO.C,D1*%
X170017378Y-59065211D03*
X170927817Y-60257309D03*
X174149987Y-55909020D03*
X175060427Y-57101118D03*
%TD*%
D23*
%TO.C,H1*%
X158330000Y-62400000D03*
%TD*%
%TO.C,H2*%
X256590000Y-127220000D03*
%TD*%
D24*
%TO.C,SW3*%
X210718426Y-42314854D03*
D25*
X215700000Y-43310000D03*
D24*
X220681575Y-44305145D03*
D26*
X219185933Y-38825998D03*
X212461392Y-40072853D03*
%TD*%
D24*
%TO.C,SW5*%
X261235146Y-110901090D03*
D25*
X259820000Y-115780000D03*
D24*
X258404854Y-120658910D03*
D26*
X263991337Y-119634601D03*
X263320815Y-112828391D03*
%TD*%
D27*
%TO.C,Brd1*%
X248307642Y-72903421D03*
X250759015Y-72238316D03*
X253210390Y-71573211D03*
X255661764Y-70908105D03*
%TD*%
D23*
%TO.C,H4*%
X231000000Y-40480000D03*
%TD*%
D24*
%TO.C,SW2*%
X186471299Y-44777502D03*
D25*
X191420000Y-43630000D03*
D24*
X196368701Y-42482499D03*
D26*
X192746848Y-38107548D03*
X187134723Y-42016276D03*
%TD*%
D24*
%TO.C,SW1*%
X165437064Y-57083356D03*
D25*
X169474305Y-54000000D03*
D24*
X173511547Y-50916644D03*
D26*
X168409570Y-48421081D03*
X164904696Y-54293896D03*
%TD*%
D24*
%TO.C,SW4*%
X236291052Y-51514634D03*
D25*
X240269625Y-54673329D03*
D24*
X244248198Y-57832025D03*
D26*
X245417607Y-52274104D03*
X238865043Y-50315021D03*
%TD*%
D23*
%TO.C,H3*%
X223790000Y-60770000D03*
%TD*%
D28*
%TO.C,U1*%
X269915706Y-90081603D03*
D29*
X267476251Y-90789176D03*
X265036796Y-91496749D03*
X262597341Y-92204322D03*
X260157886Y-92911895D03*
D30*
X257718431Y-93619468D03*
D29*
X255278976Y-94327041D03*
X250473608Y-77759877D03*
X252913063Y-77052304D03*
X255352518Y-76344731D03*
D31*
X257791973Y-75637158D03*
X260231428Y-74929585D03*
X262670883Y-74222012D03*
X265110338Y-73514439D03*
%TD*%
%LPD*%
M02*
