%TF.GenerationSoftware,KiCad,Pcbnew,8.0.7*%
%TF.CreationDate,2026-02-28T13:32:46+00:00*%
%TF.ProjectId,macropad,6d616372-6f70-4616-942e-6b696361645f,rev?*%
%TF.SameCoordinates,Original*%
%TF.FileFunction,Soldermask,Bot*%
%TF.FilePolarity,Negative*%
%FSLAX46Y46*%
G04 Gerber Fmt 4.6, Leading zero omitted, Abs format (unit mm)*
G04 Created by KiCad (PCBNEW 8.0.7) date 2026-02-28 13:32:46*
%MOMM*%
%LPD*%
G01*
G04 APERTURE LIST*
G04 Aperture macros list*
%AMRoundRect*
0 Rectangle with rounded corners*
0 $1 Rounding radius*
0 $2 $3 $4 $5 $6 $7 $8 $9 X,Y pos of 4 corners*
0 Add a 4 corners polygon primitive as box body*
4,1,4,$2,$3,$4,$5,$6,$7,$8,$9,$2,$3,0*
0 Add four circle primitives for the rounded corners*
1,1,$1+$1,$2,$3*
1,1,$1+$1,$4,$5*
1,1,$1+$1,$6,$7*
1,1,$1+$1,$8,$9*
0 Add four rect primitives between the rounded corners*
20,1,$1+$1,$2,$3,$4,$5,0*
20,1,$1+$1,$4,$5,$6,$7,0*
20,1,$1+$1,$6,$7,$8,$9,0*
20,1,$1+$1,$8,$9,$2,$3,0*%
%AMHorizOval*
0 Thick line with rounded ends*
0 $1 width*
0 $2 $3 position (X,Y) of the first rounded end (center of the circle)*
0 $4 $5 position (X,Y) of the second rounded end (center of the circle)*
0 Add line between two ends*
20,1,$1,$2,$3,$4,$5,0*
0 Add two circle primitives to create the rounded ends*
1,1,$1,$2,$3*
1,1,$1,$4,$5*%
G04 Aperture macros list end*
%ADD10RoundRect,0.089600X-0.748400X0.358400X-0.748400X-0.358400X0.748400X-0.358400X0.748400X0.358400X0*%
%ADD11RoundRect,0.089600X0.552696X0.618935X-0.135730X0.818615X-0.552696X-0.618935X0.135730X-0.818615X0*%
%ADD12RoundRect,0.089600X-0.363285X0.746041X-0.808984X0.184655X0.363285X-0.746041X0.808984X-0.184655X0*%
%ADD13RoundRect,0.089600X-0.663691X0.498064X-0.804108X-0.204848X0.663691X-0.498064X0.804108X0.204848X0*%
%ADD14RoundRect,0.089600X-0.810014X0.180083X-0.648099X-0.518190X0.810014X-0.180083X0.648099X0.518190X0*%
%ADD15RoundRect,0.089600X-0.812312X-0.169417X-0.377243X-0.739081X0.812312X0.169417X0.377243X0.739081X0*%
%ADD16C,6.076000*%
%ADD17C,1.776000*%
%ADD18C,4.076000*%
%ADD19C,2.276000*%
%ADD20HorizOval,1.676000X-0.052370X0.193022X0.052370X-0.193022X0*%
%ADD21RoundRect,0.038000X1.303854X-1.443941X0.328852X1.917513X-1.303854X1.443941X-0.328852X-1.917513X0*%
%ADD22HorizOval,1.776000X-0.264643X0.912395X0.264643X-0.912395X0*%
%ADD23HorizOval,1.776000X0.264643X-0.912395X-0.264643X0.912395X0*%
%ADD24HorizOval,1.776000X-0.278572X0.960415X0.278572X-0.960415X0*%
G04 APERTURE END LIST*
D10*
%TO.C,D6*%
X262997500Y-100532500D03*
X262997500Y-102032500D03*
X268197500Y-100532500D03*
X268197500Y-102032500D03*
%TD*%
D11*
%TO.C,D5*%
X256402541Y-112111849D03*
X254961918Y-111693991D03*
X254953966Y-117106009D03*
X253513343Y-116688151D03*
%TD*%
D12*
%TO.C,D4*%
X235580130Y-56431914D03*
X234647445Y-57606690D03*
X239652686Y-59665225D03*
X238720000Y-60840000D03*
%TD*%
D13*
%TO.C,D3*%
X212323842Y-47049062D03*
X212030000Y-48520000D03*
X217423091Y-48067715D03*
X217129249Y-49538653D03*
%TD*%
D14*
%TO.C,D2*%
X189871750Y-48460202D03*
X190210579Y-49921432D03*
X194937349Y-47285593D03*
X195276178Y-48746824D03*
%TD*%
D15*
%TO.C,D1*%
X170017378Y-59065211D03*
X170927817Y-60257309D03*
X174149987Y-55909020D03*
X175060427Y-57101118D03*
%TD*%
D16*
%TO.C,H1*%
X158330000Y-62400000D03*
%TD*%
%TO.C,H2*%
X256590000Y-127220000D03*
%TD*%
D17*
%TO.C,SW3*%
X210718426Y-42314854D03*
D18*
X215700000Y-43310000D03*
D17*
X220681575Y-44305145D03*
D19*
X219185933Y-38825998D03*
X212461392Y-40072853D03*
%TD*%
D17*
%TO.C,SW5*%
X261235146Y-110901090D03*
D18*
X259820000Y-115780000D03*
D17*
X258404854Y-120658910D03*
D19*
X263991337Y-119634601D03*
X263320815Y-112828391D03*
%TD*%
D20*
%TO.C,Brd1*%
X248307642Y-72903421D03*
X250759015Y-72238316D03*
X253210390Y-71573211D03*
X255661764Y-70908105D03*
%TD*%
D16*
%TO.C,H4*%
X231000000Y-40480000D03*
%TD*%
D17*
%TO.C,SW2*%
X186471299Y-44777502D03*
D18*
X191420000Y-43630000D03*
D17*
X196368701Y-42482499D03*
D19*
X192746848Y-38107548D03*
X187134723Y-42016276D03*
%TD*%
D17*
%TO.C,SW1*%
X165437064Y-57083356D03*
D18*
X169474305Y-54000000D03*
D17*
X173511547Y-50916644D03*
D19*
X168409570Y-48421081D03*
X164904696Y-54293896D03*
%TD*%
D17*
%TO.C,SW4*%
X236291052Y-51514634D03*
D18*
X240269625Y-54673329D03*
D17*
X244248198Y-57832025D03*
D19*
X245417607Y-52274104D03*
X238865043Y-50315021D03*
%TD*%
D16*
%TO.C,H3*%
X223790000Y-60770000D03*
%TD*%
D21*
%TO.C,U1*%
X269915706Y-90081603D03*
D22*
X267476251Y-90789176D03*
X265036796Y-91496749D03*
X262597341Y-92204322D03*
X260157886Y-92911895D03*
D23*
X257718431Y-93619468D03*
D22*
X255278976Y-94327041D03*
X250473608Y-77759877D03*
X252913063Y-77052304D03*
X255352518Y-76344731D03*
D24*
X257791973Y-75637158D03*
X260231428Y-74929585D03*
X262670883Y-74222012D03*
X265110338Y-73514439D03*
%TD*%
M02*
